{"glyphs":{"0":{"ha":0,"x_min":0,"x_max":0,"o":"b 450 -237 44 0 450 -149 b 805 62 450 -85 715 62 b 386 NaN 652 62 386 NaN "},"1":{"ha":-180,"x_min":0,"x_max":0,"o":"m 410 982 l 309 982 l 75 827 l 75 728 l 307 882 l 312 882 l 312 0 l 410 0 z "},"2":{"ha":0,"x_min":0,"x_max":0,"o":"l 52 96 b 382 357 222 275 272 358 b 83 -153 290 305 220 179 l -276 NaN "},"3":{"ha":0,"x_min":0,"x_max":0,"o":""},"4":{"ha":0,"x_min":0,"x_max":0,"o":"l 79 0 l 79 73 l 767 73 l 767 -43 l 319 -738 m 427 -731 l 427 -724 l 782 -172 l 791 -172 l 791 -731 z "},"5":{"ha":45,"x_min":0,"x_max":0,"o":"m 400 -14 l 487 -14 l 487 -525 z "},"6":{"ha":67,"x_min":0,"x_max":0,"o":"m 423 -14 b 751 311 621 -15 751 132 b 438 631 751 496 609 631 b 183 490 328 631 233 576 l 172 490 b 438 909 172 757 269 909 b 644 736 555 909 625 836 l 741 736 b 438 996 719 890 605 996 b 81 452 202 996 81 776 b 423 -14 81 102 252 -12 z m 423 72 b 189 305 293 72 198 174 b 425 545 182 431 286 545 b 658 311 557 545 658 439 b 423 72 658 179 557 72 z "},"7":{"ha":-12,"x_min":0,"x_max":0,"o":"m 126 0 l 228 0 l 686 891 l 686 982 l 57 982 l 57 895 l 585 895 l 585 890 z "},"8":{"ha":68,"x_min":0,"x_max":0,"o":"m 416 -14 b 758 259 613 -14 757 102 b 553 509 757 382 669 488 l 553 514 b 720 738 652 540 720 631 b 416 996 720 886 589 996 b 113 738 243 996 113 886 b 281 514 113 631 180 540 l 281 509 b 76 259 164 488 76 382 b 416 -14 76 102 218 -14 z m 416 72 b 172 264 270 72 171 153 b 416 467 171 378 277 467 b 662 264 557 467 662 378 b 416 72 662 153 563 72 z m 416 548 b 206 732 296 548 206 625 b 416 911 206 837 293 911 b 627 732 538 911 627 837 b 416 548 627 625 536 548 z "},"9":{"ha":67,"x_min":0,"x_max":0,"o":"m 408 996 b 81 673 210 997 81 850 b 395 354 81 488 222 354 b 650 495 503 354 600 408 l 661 495 b 395 73 661 225 563 73 b 187 248 278 73 206 146 l 91 248 b 395 -14 113 92 228 -14 b 751 533 629 -14 751 208 b 408 996 751 880 579 994 z m 408 910 b 643 680 538 910 633 808 b 408 439 651 553 545 439 b 175 674 274 439 175 543 b 408 910 174 803 274 910 z "}," ":{"ha":-431,"x_min":0,"x_max":0,"o":""}," ":{"ha":-431,"x_min":0,"x_max":0,"o":""},"A":{"ha":0,"x_min":0,"x_max":0,"o":""},"Á":{"ha":0,"x_min":0,"x_max":0,"o":""},"Ă":{"ha":0,"x_min":0,"x_max":0,"o":""},"Ắ":{"ha":104,"x_min":0,"x_max":0,"o":"m 581 1204 l 495 1204 z m 286 1223 l 243 1223 l 243 1196 l 210 1196 l 210 1133 l 270 1133 "},"Ặ":{"ha":0,"x_min":0,"x_max":0,"o":""},"Ằ":{"ha":104,"x_min":0,"x_max":0,"o":"m 581 1204 l 495 1204 z m 300 1223 l 256 1223 l 256 1195 l 224 1195 l 224 1133 l 283 1133 "},"Ẳ":{"ha":0,"x_min":0,"x_max":0,"o":""},"Ẵ":{"ha":104,"x_min":0,"x_max":0,"o":"m -349 -1020 l 228 209 l 397 689 l 404 689 l 575 209 z "},"Ǎ":{"ha":0,"x_min":0,"x_max":0,"o":""},"Â":{"ha":104,"x_min":0,"x_max":0,"o":"m -174 -827 l 347 240 l 517 720 l 524 720 l 694 240 z "},"Ấ":{"ha":0,"x_min":0,"x_max":0,"o":""},"Ậ":{"ha":0,"x_min":0,"x_max":0,"o":""},"Ầ":{"ha":0,"x_min":0,"x_max":0,"o":""},"Ẩ":{"ha":0,"x_min":0,"x_max":0,"o":""},"Ẫ":{"ha":0,"x_min":0,"x_max":0,"o":""},"Ȁ":{"ha":0,"x_min":0,"x_max":0,"o":""},"Ä":{"ha":0,"x_min":0,"x_max":0,"o":""},"Ǟ":{"ha":0,"x_min":0,"x_max":0,"o":""},"Ạ":{"ha":0,"x_min":0,"x_max":0,"o":""},"Ǡ":{"ha":0,"x_min":0,"x_max":0,"o":""},"À":{"ha":0,"x_min":0,"x_max":0,"o":""},"Ả":{"ha":0,"x_min":0,"x_max":0,"o":""},"Ȃ":{"ha":104,"x_min":0,"x_max":0,"o":"m 1 -742 l 236 377 l 406 857 l 412 857 l 583 377 z "},"Ā":{"ha":0,"x_min":0,"x_max":0,"o":""},"Ą":{"ha":0,"x_min":0,"x_max":0,"o":""},"Å":{"ha":0,"x_min":0,"x_max":0,"o":""},"Ǻ":{"ha":0,"x_min":0,"x_max":0,"o":""},"Ḁ":{"ha":0,"x_min":0,"x_max":0,"o":""},"Ã":{"ha":0,"x_min":0,"x_max":0,"o":""},"Æ":{"ha":0,"x_min":0,"x_max":0,"o":""},"Ǽ":{"ha":0,"x_min":0,"x_max":0,"o":""},"Ǣ":{"ha":0,"x_min":0,"x_max":0,"o":""},"B":{"ha":87,"x_min":0,"x_max":0,"o":""},"Ḃ":{"ha":0,"x_min":0,"x_max":0,"o":""},"Ḅ":{"ha":87,"x_min":0,"x_max":0,"o":"m -41 -777 z "},"Ɓ":{"ha":275,"x_min":0,"x_max":0,"o":"m 240 895 l 240 959 l -655 959 l -655 559 l -713 559 l -713 650 l -682 650 b -591 770 -682 720 -667 770 "},"Ḇ":{"ha":0,"x_min":0,"x_max":0,"o":""},"Ƃ":{"ha":0,"x_min":0,"x_max":0,"o":""},"C":{"ha":192,"x_min":0,"x_max":0,"o":""},"Ć":{"ha":0,"x_min":0,"x_max":0,"o":""},"Č":{"ha":0,"x_min":0,"x_max":0,"o":""},"Ç":{"ha":0,"x_min":0,"x_max":0,"o":""},"Ḉ":{"ha":0,"x_min":0,"x_max":0,"o":""},"Ĉ":{"ha":0,"x_min":0,"x_max":0,"o":""},"Ċ":{"ha":0,"x_min":0,"x_max":0,"o":""},"Ƈ":{"ha":230,"x_min":0,"x_max":0,"o":"m 891 674 l 891 807 b 991 911 891 886 930 911 b 1025 907 1004 911 1017 910 l 1025 987 b 971 991 1010 991 990 991 b 803 863 887 991 822 947 b 500 996 733 945 628 996 b 500 1354 251 996 500 1203 b NaN 1525 500 1492 684 1525 z "},"D":{"ha":0,"x_min":0,"x_max":0,"o":""},"Ǳ":{"ha":0,"x_min":0,"x_max":0,"o":""},"Ɖ":{"ha":0,"x_min":0,"x_max":0,"o":""},"Ď":{"ha":0,"x_min":0,"x_max":0,"o":""},"Ḑ":{"ha":0,"x_min":0,"x_max":0,"o":""},"Ḓ":{"ha":0,"x_min":0,"x_max":0,"o":""},"Đ":{"ha":0,"x_min":0,"x_max":0,"o":""},"Ḋ":{"ha":0,"x_min":0,"x_max":0,"o":""},"Ḍ":{"ha":0,"x_min":0,"x_max":0,"o":""},"Ɗ":{"ha":378,"x_min":0,"x_max":0,"o":"m 58 802 l 58 743 l 149 743 l 149 774 b 240 895 149 845 164 895 l 313 895 l 313 0 l 605 0 "},"Ḏ":{"ha":0,"x_min":0,"x_max":0,"o":""},"Ƌ":{"ha":48,"x_min":0,"x_max":0,"o":"m 381 0 l 747 0 l 747 967 l 172 967 l 172 878 l 639 878 l 639 557 l 381 557 b 66 283 182 557 66 449 b 381 0 66 114 180 0 z m 639 88 l 381 88 b 176 286 240 88 176 175 b 381 468 176 389 241 468 l 639 468 z "},"ǲ":{"ha":877,"x_min":0,"x_max":0,"o":"m 906 0 "},"ǅ":{"ha":877,"x_min":0,"x_max":0,"o":"m 906 0 z m -175 -806 l -175 -646 l 783 -646 l 783 163 l 989 163 b 1348 -239 1225 163 1348 12 b 972 -646 1350 -492 1222 -646 z "},"Ð":{"ha":0,"x_min":0,"x_max":0,"o":""},"E":{"ha":14,"x_min":0,"x_max":0,"o":""},"É":{"ha":0,"x_min":0,"x_max":0,"o":""},"Ĕ":{"ha":0,"x_min":0,"x_max":0,"o":""},"Ě":{"ha":0,"x_min":0,"x_max":0,"o":""},"Ḝ":{"ha":14,"x_min":0,"x_max":0,"o":"m 117 0 l 353 0 l 335 -83 l 342 -49 "},"Ê":{"ha":0,"x_min":0,"x_max":0,"o":""},"Ế":{"ha":0,"x_min":0,"x_max":0,"o":""},"Ḙ":{"ha":0,"x_min":0,"x_max":0,"o":""},"Ệ":{"ha":0,"x_min":0,"x_max":0,"o":""},"Ề":{"ha":0,"x_min":0,"x_max":0,"o":""},"Ể":{"ha":0,"x_min":0,"x_max":0,"o":""},"Ễ":{"ha":0,"x_min":0,"x_max":0,"o":""},"Ȅ":{"ha":0,"x_min":0,"x_max":0,"o":""},"Ë":{"ha":0,"x_min":0,"x_max":0,"o":""},"Ė":{"ha":0,"x_min":0,"x_max":0,"o":""},"Ẹ":{"ha":0,"x_min":0,"x_max":0,"o":""},"È":{"ha":0,"x_min":0,"x_max":0,"o":""},"Ẻ":{"ha":0,"x_min":0,"x_max":0,"o":""},"Ȇ":{"ha":0,"x_min":0,"x_max":0,"o":""},"Ē":{"ha":0,"x_min":0,"x_max":0,"o":""},"Ḗ":{"ha":0,"x_min":0,"x_max":0,"o":""},"Ḕ":{"ha":0,"x_min":0,"x_max":0,"o":""},"Ę":{"ha":14,"x_min":0,"x_max":0,"o":"m 117 0 l 604 0 l 604 1 l 690 1 l 690 -487 l 1053 -487 l 1053 -38 l 1138 -38 l 1138 -487 l 1499 -487 l 1499 -8 l 1586 -8 l 1586 -583 z "},"Ɛ":{"ha":45,"x_min":0,"x_max":0,"o":"m 68 258 b 403 -14 68 77 218 -14 b 746 260 589 -14 739 79 l 636 260 b 403 75 631 156 552 75 b 178 266 271 75 178 140 b 414 457 178 388 262 457 l 509 457 l 509 545 l 414 545 b 193 728 263 545 193 629 b 406 906 193 833 269 906 b 618 732 537 906 613 834 l 727 732 b 406 996 722 892 594 996 b 84 732 221 996 84 894 b 258 503 84 622 150 541 b 68 258 136 467 68 384 z "},"Ʃ":{"ha":47,"x_min":0,"x_max":0,"o":"m 743 91 l 205 91 l 518 469 l 518 483 l 202 878 l 713 878 l 713 967 l 64 967 l 64 887 l 401 475 l 64 79 l 64 0 l 743 0 z "},"Ẽ":{"ha":0,"x_min":0,"x_max":0,"o":""},"Ḛ":{"ha":0,"x_min":0,"x_max":0,"o":""},"Ǝ":{"ha":14,"x_min":0,"x_max":0,"o":"m 663 982 l 79 982 l 79 895 l 567 895 l 567 533 l 118 533 l 118 448 l 567 448 l 567 87 l 88 87 l 88 0 l 663 0 z "},"Ə":{"ha":172,"x_min":0,"x_max":0,"o":"m 457 -14 b 861 452 704 -14 861 180 l 861 518 b 434 996 861 814 697 996 b 170 930 336 996 235 970 l 197 849 b 429 903 277 886 354 903 b 750 518 639 903 750 761 l 750 502 l 77 502 l 77 438 b 457 -14 77 153 229 -14 z m 186 401 l 186 418 l 750 418 b 457 77 739 212 633 77 b 186 401 293 77 186 195 z "},"Ʒ":{"ha":138,"x_min":0,"x_max":0,"o":""},"Ǯ":{"ha":0,"x_min":0,"x_max":0,"o":""},"Ƹ":{"ha":138,"x_min":0,"x_max":0,"o":"m 845 45 l 746 45 b 458 -203 741 -102 614 -203 b 168 111 285 -203 168 -68 b 518 441 168 309 312 438 l 585 441 l 585 524 l 229 894 l 789 894 l 789 982 l 99 982 l 99 911 l 464 526 l 464 519 b 72 113 233 509 72 343 b 460 -290 72 -115 224 -290 b 845 45 670 -290 837 -153 z "},"F":{"ha":3,"x_min":0,"x_max":0,"o":"m 117 0 l 213 0 l 213 449 z "},"Ḟ":{"ha":3,"x_min":0,"x_max":0,"o":"m 117 0 l 213 0 l 213 449 "},"Ƒ":{"ha":-5,"x_min":0,"x_max":0,"o":"m 109 982 l 109 -85 b 4 -194 109 -165 66 -194 b -33 -190 -11 -194 -23 -193 l -33 -270 b 5 -275 -9 -275 -4 -275 b 205 -87 136 -275 205 -209 l 205 449 z "},"G":{"ha":214,"x_min":0,"x_max":0,"o":""},"Ǵ":{"ha":0,"x_min":0,"x_max":0,"o":""},"Ǥ":{"ha":212,"x_min":0,"x_max":0,"o":"m 967 292 l 890 292 b 899 395 896 324 899 358 l 899 479 l 525 479 l 525 393 l 806 393 b 792 292 805 357 801 323 l 525 292 l 525 214 l 761 214 b 621 73 673 214 621 123 b 258 104 621 -39 471 104 b 618 332 425 104 559 189 l 720 332 z "},"Ğ":{"ha":0,"x_min":0,"x_max":0,"o":""},"Ǧ":{"ha":0,"x_min":0,"x_max":0,"o":""},"Ĝ":{"ha":0,"x_min":0,"x_max":0,"o":""},"Ģ":{"ha":0,"x_min":0,"x_max":0,"o":""},"Ġ":{"ha":0,"x_min":0,"x_max":0,"o":""},"Ɠ":{"ha":233,"x_min":0,"x_max":0,"o":"m 793 675 l 894 675 l 892 682 l 892 783 b 932 924 932 860 956 924 b NaN NaN 932 924 911 NaN b NaN NaN NaN NaN NaN NaN "},"Ḡ":{"ha":0,"x_min":0,"x_max":0,"o":""},"Ȝ":{"ha":48,"x_min":0,"x_max":0,"o":"m 132 311 l 132 228 b 557 419 303 269 451 334 b 631 220 608 380 631 317 b 132 -199 631 -18 467 -118 l 132 -288 b 741 214 513 -198 742 -76 b 621 477 741 343 698 427 b 726 722 688 549 726 631 b 406 996 726 894 593 996 b 75 731 213 996 75 890 l 183 731 b 406 906 183 833 273 906 b 617 713 538 906 617 833 b 132 311 617 528 437 401 z "},"H":{"ha":211,"x_min":0,"x_max":0,"o":""},"Ħ":{"ha":250,"x_min":0,"x_max":0,"o":"m 958 758 l 882 758 l 882 982 l 784 982 l 784 758 l 235 758 l 235 982 l 138 982 l 138 758 l 58 758 l 58 678 l 138 678 l 138 0 l 235 0 l 235 449 l 784 449 l 784 0 l 882 0 l 882 678 l 958 678 z m 235 534 l 235 678 l 784 678 l 784 534 z "},"Ḫ":{"ha":0,"x_min":0,"x_max":0,"o":""},"Ḩ":{"ha":211,"x_min":0,"x_max":0,"o":"m 117 0 l 136 0 l 118 -85 l 125 -49 z "},"Ĥ":{"ha":0,"x_min":0,"x_max":0,"o":""},"Ḧ":{"ha":0,"x_min":0,"x_max":0,"o":""},"Ḣ":{"ha":0,"x_min":0,"x_max":0,"o":""},"Ḥ":{"ha":0,"x_min":0,"x_max":0,"o":""},"I":{"ha":-436,"x_min":0,"x_max":0,"o":""},"Ĳ":{"ha":0,"x_min":0,"x_max":0,"o":""},"Í":{"ha":0,"x_min":0,"x_max":0,"o":""},"Ĭ":{"ha":0,"x_min":0,"x_max":0,"o":""},"Ǐ":{"ha":0,"x_min":0,"x_max":0,"o":""},"Î":{"ha":0,"x_min":0,"x_max":0,"o":""},"Ȉ":{"ha":0,"x_min":0,"x_max":0,"o":""},"Ï":{"ha":0,"x_min":0,"x_max":0,"o":""},"Ḯ":{"ha":0,"x_min":0,"x_max":0,"o":""},"İ":{"ha":0,"x_min":0,"x_max":0,"o":""},"Ị":{"ha":0,"x_min":0,"x_max":0,"o":""},"Ì":{"ha":0,"x_min":0,"x_max":0,"o":""},"Ỉ":{"ha":0,"x_min":0,"x_max":0,"o":""},"Ȋ":{"ha":-436,"x_min":0,"x_max":0,"o":""},"Ī":{"ha":0,"x_min":0,"x_max":0,"o":""},"Į":{"ha":-436,"x_min":0,"x_max":0,"o":"m 213 982 z "},"Ɩ":{"ha":-395,"x_min":0,"x_max":0,"o":""},"Ɨ":{"ha":-436,"x_min":0,"x_max":0,"o":"m 213 982 l 117 982 l 117 543 l -39 543 l -39 471 l 117 471 l 117 0 l 213 0 l 213 471 l 369 471 l 369 543 l 213 543 z "},"Ĩ":{"ha":0,"x_min":0,"x_max":0,"o":""},"Ḭ":{"ha":0,"x_min":0,"x_max":0,"o":""},"J":{"ha":0,"x_min":0,"x_max":0,"o":""},"Ĵ":{"ha":0,"x_min":0,"x_max":0,"o":""},"K":{"ha":81,"x_min":0,"x_max":0,"o":""},"Ḱ":{"ha":0,"x_min":0,"x_max":0,"o":""},"Ǩ":{"ha":0,"x_min":0,"x_max":0,"o":""},"Ķ":{"ha":0,"x_min":0,"x_max":0,"o":""},"Ḳ":{"ha":0,"x_min":0,"x_max":0,"o":""},"Ƙ":{"ha":115,"x_min":0,"x_max":0,"o":"m 117 0 l 213 0 l 213 317 l 343 463 l 715 0 l 833 0 l 403 530 l 708 860 b 840 886 754 910 796 914 l 880 958 b 646 928 811 1010 715 1005 l 222 463 l 213 463 l 213 982 l 117 982 z "},"Ḵ":{"ha":0,"x_min":0,"x_max":0,"o":""},"L":{"ha":-28,"x_min":0,"x_max":0,"o":""},"Ǉ":{"ha":0,"x_min":0,"x_max":0,"o":""},"Ĺ":{"ha":0,"x_min":0,"x_max":0,"o":""},"Ƚ":{"ha":-28,"x_min":0,"x_max":0,"o":"m 117 0 l 678 0 l 678 87 l 213 87 l 213 471 l 369 471 l 369 543 l 213 543 l 213 982 l 117 982 l 117 543 l -39 543 l -39 471 l 117 471 z "},"Ľ":{"ha":0,"x_min":0,"x_max":0,"o":""},"Ḽ":{"ha":0,"x_min":0,"x_max":0,"o":""},"Ļ":{"ha":0,"x_min":0,"x_max":0,"o":""},"Ŀ":{"ha":-35,"x_min":0,"x_max":0,"o":"m 115 0 l 677 0 "},"Ḷ":{"ha":0,"x_min":0,"x_max":0,"o":""},"Ḹ":{"ha":0,"x_min":0,"x_max":0,"o":""},"ǈ":{"ha":0,"x_min":0,"x_max":0,"o":""},"Ḻ":{"ha":0,"x_min":0,"x_max":0,"o":""},"Ł":{"ha":-36,"x_min":0,"x_max":0,"o":"m 384 602 l 202 543 l 202 982 l 106 982 l 106 511 l 8 479 l 8 407 l 106 439 l 106 0 l 667 0 l 667 87 l 202 87 l 202 471 l 384 530 z "},"M":{"ha":405,"x_min":0,"x_max":0,"o":""},"Ḿ":{"ha":0,"x_min":0,"x_max":0,"o":""},"Ṁ":{"ha":0,"x_min":0,"x_max":0,"o":""},"Ṃ":{"ha":0,"x_min":0,"x_max":0,"o":""},"N":{"ha":235,"x_min":0,"x_max":0,"o":""},"Ǌ":{"ha":0,"x_min":0,"x_max":0,"o":""},"Ń":{"ha":0,"x_min":0,"x_max":0,"o":""},"Ň":{"ha":0,"x_min":0,"x_max":0,"o":""},"Ṋ":{"ha":0,"x_min":0,"x_max":0,"o":""},"Ņ":{"ha":0,"x_min":0,"x_max":0,"o":""},"Ṅ":{"ha":0,"x_min":0,"x_max":0,"o":""},"Ṇ":{"ha":0,"x_min":0,"x_max":0,"o":""},"Ɲ":{"ha":233,"x_min":0,"x_max":0,"o":"m 113 982 l 113 -85 b 8 -194 113 -165 71 -194 b -28 -190 -5 -194 -19 -193 l -28 -270 b 30 -275 -14 -275 9 -275 b 209 -87 132 -275 209 -209 l 209 810 l 217 810 l 788 0 l 880 0 l 880 982 l 785 982 l 785 171 l 777 171 l 206 982 z "},"ǋ":{"ha":0,"x_min":0,"x_max":0,"o":""},"Ṉ":{"ha":0,"x_min":0,"x_max":0,"o":""},"Ñ":{"ha":0,"x_min":0,"x_max":0,"o":""},"Ŋ":{"ha":235,"x_min":0,"x_max":0,"o":"m 791 0 l 791 -85 b 684 -194 791 -165 747 -194 b 646 -190 669 -194 656 -193 l 646 -270 b 704 -277 662 -275 684 -277 b 884 -87 807 -277 884 -209 l 884 982 l 789 982 l 789 171 l 781 171 z "},"O":{"ha":235,"x_min":0,"x_max":0,"o":""},"Ƣ":{"ha":347,"x_min":0,"x_max":0,"o":"m 788 126 l 788 830 l 890 878 l 890 -277 l 996 -277 l 996 982 l 907 982 l 749 905 b 487 996 685 962 589 996 b 73 530 233 996 73 814 l 73 446 b 479 -14 73 168 232 -14 b 788 126 612 -14 731 38 z m 182 446 l 182 530 b 486 906 182 766 294 906 b 684 827 568 906 644 876 l 684 155 b 484 75 642 103 566 75 b 182 446 294 75 182 218 z "},"Ó":{"ha":0,"x_min":0,"x_max":0,"o":""},"Ɵ":{"ha":0,"x_min":0,"x_max":0,"o":""},"Ŏ":{"ha":0,"x_min":0,"x_max":0,"o":""},"Ǒ":{"ha":0,"x_min":0,"x_max":0,"o":""},"Ô":{"ha":0,"x_min":0,"x_max":0,"o":""},"Ố":{"ha":0,"x_min":0,"x_max":0,"o":""},"Ộ":{"ha":0,"x_min":0,"x_max":0,"o":""},"Ồ":{"ha":0,"x_min":0,"x_max":0,"o":""},"Ổ":{"ha":0,"x_min":0,"x_max":0,"o":""},"Ỗ":{"ha":0,"x_min":0,"x_max":0,"o":""},"Ȍ":{"ha":0,"x_min":0,"x_max":0,"o":""},"Ö":{"ha":0,"x_min":0,"x_max":0,"o":""},"Ọ":{"ha":0,"x_min":0,"x_max":0,"o":""},"Ò":{"ha":0,"x_min":0,"x_max":0,"o":""},"Ỏ":{"ha":0,"x_min":0,"x_max":0,"o":""},"Ơ":{"ha":242,"x_min":0,"x_max":0,"o":""},"Ớ":{"ha":0,"x_min":0,"x_max":0,"o":""},"Ợ":{"ha":0,"x_min":0,"x_max":0,"o":""},"Ờ":{"ha":0,"x_min":0,"x_max":0,"o":""},"Ở":{"ha":0,"x_min":0,"x_max":0,"o":""},"Ỡ":{"ha":0,"x_min":0,"x_max":0,"o":""},"Ő":{"ha":0,"x_min":0,"x_max":0,"o":""},"Ȏ":{"ha":235,"x_min":0,"x_max":0,"o":""},"Ō":{"ha":0,"x_min":0,"x_max":0,"o":""},"Ṓ":{"ha":0,"x_min":0,"x_max":0,"o":""},"Ṑ":{"ha":0,"x_min":0,"x_max":0,"o":""},"Ǫ":{"ha":235,"x_min":0,"x_max":0,"o":""},"Ǭ":{"ha":0,"x_min":0,"x_max":0,"o":""},"Ɔ":{"ha":192,"x_min":0,"x_max":0,"o":""},"Ø":{"ha":235,"x_min":0,"x_max":0,"o":"m -665 0 b -332 414 -665 262 -522 414 b -142 351 -260 414 -195 392 l -576 -297 b -665 0 -632 -227 -665 -125 z "},"Ǿ":{"ha":235,"x_min":0,"x_max":0,"o":"m -412 -811 b 323 -924 -412 -1185 180 -924 b 665 -787 475 -924 665 -852 b NaN -755 665 -808 624 -755 l NaN -1404 b NaN -1107 NaN -1333 NaN -1232 z "},"Õ":{"ha":0,"x_min":0,"x_max":0,"o":""},"Ṍ":{"ha":0,"x_min":0,"x_max":0,"o":""},"Ṏ":{"ha":0,"x_min":0,"x_max":0,"o":""},"Œ":{"ha":489,"x_min":0,"x_max":0,"o":"m 499 0 l 1176 0 l 1176 87 l 688 87 l 688 449 l 1137 449 l 1137 534 l 688 534 l 688 895 l 1166 895 l 1166 982 l 499 982 b 73 491 245 982 73 787 b 499 0 73 198 245 0 z m 168 491 b 499 895 168 735 302 897 l 591 895 l 591 87 l 499 87 b 168 491 301 87 168 250 z "},"P":{"ha":0,"x_min":0,"x_max":0,"o":""},"Ṕ":{"ha":0,"x_min":0,"x_max":0,"o":""},"Ṗ":{"ha":0,"x_min":0,"x_max":0,"o":""},"Ƥ":{"ha":231,"x_min":0,"x_max":0,"o":"m 149 743 l 149 774 b 240 895 149 845 164 895 l 240 944 l -655 944 l -655 572 l -713 572 "},"Þ":{"ha":0,"x_min":0,"x_max":0,"o":""},"Q":{"ha":235,"x_min":0,"x_max":0,"o":"m 481 308 l 635 107 b 500 77 594 87 549 77 b 229 -115 347 77 298 -38 l 110 39 b 357 448 110 378 293 448 b 402 NaN 373 448 402 505 l 494 NaN l 602 NaN l 473 NaN b 637 NaN 574 NaN 637 NaN z "},"Ɋ":{"ha":253,"x_min":0,"x_max":0,"o":"m 883 -94 l 883 982 l 793 982 l 793 802 l 784 802 b 487 996 734 926 625 996 b 73 494 241 996 73 788 b 486 -15 73 194 243 -15 b 784 182 623 -15 732 56 b 515 163 791 182 515 203 b NaN NaN 515 187 593 NaN z m NaN NaN b NaN NaN NaN NaN NaN NaN b NaN NaN NaN NaN NaN NaN b NaN NaN NaN NaN NaN NaN b NaN NaN NaN NaN NaN NaN z "},"R":{"ha":0,"x_min":0,"x_max":0,"o":""},"Ŕ":{"ha":0,"x_min":0,"x_max":0,"o":""},"Ř":{"ha":0,"x_min":0,"x_max":0,"o":""},"Ŗ":{"ha":0,"x_min":0,"x_max":0,"o":""},"Ȑ":{"ha":0,"x_min":0,"x_max":0,"o":""},"Ṙ":{"ha":0,"x_min":0,"x_max":0,"o":""},"Ṛ":{"ha":0,"x_min":0,"x_max":0,"o":""},"Ṝ":{"ha":0,"x_min":0,"x_max":0,"o":""},"Ȓ":{"ha":0,"x_min":0,"x_max":0,"o":""},"Ṟ":{"ha":0,"x_min":0,"x_max":0,"o":""},"S":{"ha":64,"x_min":0,"x_max":0,"o":""},"Ś":{"ha":0,"x_min":0,"x_max":0,"o":""},"Ṥ":{"ha":0,"x_min":0,"x_max":0,"o":""},"Š":{"ha":0,"x_min":0,"x_max":0,"o":""},"Ṧ":{"ha":0,"x_min":0,"x_max":0,"o":""},"Ş":{"ha":0,"x_min":0,"x_max":0,"o":"l 64 650 l 75 503 l 186 401 l 364 387 l 351 319 l 370 NaN b 677 NaN 564 NaN 677 NaN "},"Ŝ":{"ha":0,"x_min":0,"x_max":0,"o":""},"Ș":{"ha":0,"x_min":0,"x_max":0,"o":""},"Ṡ":{"ha":0,"x_min":0,"x_max":0,"o":""},"Ṣ":{"ha":0,"x_min":0,"x_max":0,"o":""},"Ṩ":{"ha":0,"x_min":0,"x_max":0,"o":""},"ẞ":{"ha":106,"x_min":0,"x_max":0,"o":"m 117 677 l 117 0 l 213 0 l 213 674 b 407 909 213 803 263 909 b 594 842 486 909 545 878 l 385 553 l 385 469 l 458 469 b 694 275 547 469 694 448 b 486 76 694 153 617 76 b 345 104 426 76 380 91 l 313 20 b 481 -9 370 0 427 -9 b 800 275 670 -9 800 94 b 492 551 800 444 689 543 l 719 856 b 404 996 636 936 534 996 b 117 677 218 996 117 884 z "},"T":{"ha":68,"x_min":0,"x_max":0,"o":""},"Ŧ":{"ha":68,"x_min":0,"x_max":0,"o":"m 58 895 l 369 895 l 369 541 l 213 541 l 213 469 l 369 469 l 369 0 l 467 0 l 467 469 l 621 469 l 621 541 l 467 541 l 467 895 l 776 895 l 776 982 l 58 982 z "},"Ť":{"ha":0,"x_min":0,"x_max":0,"o":""},"Ṱ":{"ha":0,"x_min":0,"x_max":0,"o":""},"Ţ":{"ha":68,"x_min":0,"x_max":0,"o":"m 58 895 l 369 895 l 369 0 l 388 0 l 370 -84 l 377 -49 "},"Ṫ":{"ha":0,"x_min":0,"x_max":0,"o":""},"Ṭ":{"ha":0,"x_min":0,"x_max":0,"o":""},"Ƭ":{"ha":108,"x_min":0,"x_max":0,"o":"m 815 982 l 239 982 b 58 802 126 982 58 911 l 58 750 l 146 750 l 146 783 b 239 895 146 848 170 895 l 408 895 l 408 0 l 505 0 l 505 895 l 815 895 z "},"Ṯ":{"ha":0,"x_min":0,"x_max":0,"o":""},"Ƽ":{"ha":5,"x_min":0,"x_max":0,"o":"m 681 982 l 31 982 l 31 895 l 159 895 l 102 895 l 102 458 z "},"Ƅ":{"ha":264,"x_min":0,"x_max":0,"o":"m 384 982 b -28 315 58 982 -28 1210 b NaN 3 -28 202 77 3 l NaN 3 z m NaN -467 "},"Ƨ":{"ha":64,"x_min":0,"x_max":0,"o":"m 85 735 l 180 735 b 410 910 191 842 282 910 b 637 731 545 910 637 834 b 444 556 637 629 536 582 l 342 528 b 72 263 218 492 72 429 b 416 -16 72 104 201 -16 b 757 248 618 -16 746 91 l 659 248 b 416 71 648 133 545 71 b 167 264 273 71 167 148 b 369 441 167 362 251 407 l 487 475 b 731 727 642 521 731 600 b 408 996 731 887 591 996 b 85 735 222 996 92 886 z "},"Ʈ":{"ha":68,"x_min":0,"x_max":0,"o":"m 465 -87 l 465 0 l 467 0 l 467 895 l -517 895 b -331 708 -517 773 -433 708 l -275 708 l -275 793 l -309 793 b -420 897 -372 793 -420 817 z "},"U":{"ha":216,"x_min":0,"x_max":0,"o":""},"Ú":{"ha":0,"x_min":0,"x_max":0,"o":""},"Ŭ":{"ha":0,"x_min":0,"x_max":0,"o":""},"Ǔ":{"ha":0,"x_min":0,"x_max":0,"o":""},"Û":{"ha":0,"x_min":0,"x_max":0,"o":""},"Ṷ":{"ha":0,"x_min":0,"x_max":0,"o":""},"Ȕ":{"ha":0,"x_min":0,"x_max":0,"o":""},"Ü":{"ha":0,"x_min":0,"x_max":0,"o":""},"Ǘ":{"ha":0,"x_min":0,"x_max":0,"o":""},"Ṳ":{"ha":216,"x_min":0,"x_max":0,"o":"m 270 0 z "},"Ǚ":{"ha":0,"x_min":0,"x_max":0,"o":""},"Ǜ":{"ha":0,"x_min":0,"x_max":0,"o":""},"Ǖ":{"ha":0,"x_min":0,"x_max":0,"o":""},"Ụ":{"ha":0,"x_min":0,"x_max":0,"o":""},"Ù":{"ha":0,"x_min":0,"x_max":0,"o":""},"Ủ":{"ha":0,"x_min":0,"x_max":0,"o":""},"Ư":{"ha":360,"x_min":0,"x_max":0,"o":""},"Ứ":{"ha":0,"x_min":0,"x_max":0,"o":""},"Ự":{"ha":0,"x_min":0,"x_max":0,"o":""},"Ừ":{"ha":0,"x_min":0,"x_max":0,"o":""},"Ử":{"ha":360,"x_min":0,"x_max":0,"o":"m -536 35 l -536 88 b -435 189 -483 95 -435 125 b -623 311 -435 262 -499 311 l -627 250 b -519 190 -563 250 -519 232 b -613 136 -519 155 -545 138 l -613 35 z "},"Ữ":{"ha":360,"x_min":0,"x_max":0,"o":"m -808 39 l -735 37 b -663 110 -734 77 -704 110 b -484 43 -587 110 -571 43 b -343 189 -410 43 -347 100 l -415 197 b -490 123 -418 153 -450 123 b -667 189 -557 123 -589 189 b -808 39 -745 189 -806 127 z "},"Ű":{"ha":0,"x_min":0,"x_max":0,"o":""},"Ȗ":{"ha":0,"x_min":0,"x_max":0,"o":""},"Ū":{"ha":0,"x_min":0,"x_max":0,"o":""},"Ṻ":{"ha":0,"x_min":0,"x_max":0,"o":""},"Ų":{"ha":216,"x_min":0,"x_max":0,"o":"m 769 982 b 1105 635 769 793 903 651 b 1023 486 1048 589 1023 538 b 1153 363 1023 406 1077 363 b 1252 392 1195 363 1229 377 b 1388 488 1303 392 1343 436 b 1698 833 1575 514 1698 652 l 1698 1482 z "},"Ʊ":{"ha":234,"x_min":0,"x_max":0,"o":"m 75 468 b 500 -14 75 187 252 -14 b 926 468 747 -14 926 187 b 701 888 926 659 845 803 l 701 895 l 926 895 l 926 982 l 587 982 l 587 871 b 831 469 722 810 833 666 b 500 77 831 250 696 77 b 168 469 305 77 168 250 b 414 871 168 667 278 810 l 414 982 l 75 982 l 75 895 l 300 895 l 300 888 b 75 468 155 802 75 659 z "},"Ů":{"ha":0,"x_min":0,"x_max":0,"o":""},"Ũ":{"ha":0,"x_min":0,"x_max":0,"o":""},"Ṹ":{"ha":0,"x_min":0,"x_max":0,"o":""},"Ṵ":{"ha":0,"x_min":0,"x_max":0,"o":""},"V":{"ha":104,"x_min":0,"x_max":0,"o":""},"Ɣ":{"ha":21,"x_min":0,"x_max":0,"o":"m -11 982 l 345 152 l 343 148 b 232 -146 270 -27 232 -92 b 393 -292 232 -237 294 -292 b 555 -146 494 -292 555 -237 b 444 145 555 -96 515 -24 l 799 982 l 694 982 l 393 267 l 95 982 z m 330 -148 b 396 33 330 -115 352 -68 b 458 -148 438 -71 458 -115 b 393 -205 457 -179 431 -205 b 330 -148 355 -205 330 -180 z "},"Ʋ":{"ha":51,"x_min":0,"x_max":0,"o":"m 407 -14 b 751 312 597 -14 751 98 l 751 783 b 560 996 751 921 673 996 b 486 985 533 996 505 991 l 486 898 b 533 903 500 902 519 903 b 640 783 604 903 640 871 l 640 312 b 407 75 640 153 548 75 b 175 312 266 75 175 152 l 175 982 l 66 982 l 66 312 b 407 -14 66 96 210 -14 z "},"Ṿ":{"ha":0,"x_min":0,"x_max":0,"o":""},"Ṽ":{"ha":0,"x_min":0,"x_max":0,"o":""},"W":{"ha":478,"x_min":0,"x_max":0,"o":""},"Ẃ":{"ha":0,"x_min":0,"x_max":0,"o":""},"Ŵ":{"ha":0,"x_min":0,"x_max":0,"o":""},"Ẅ":{"ha":0,"x_min":0,"x_max":0,"o":""},"Ẇ":{"ha":0,"x_min":0,"x_max":0,"o":""},"Ẉ":{"ha":0,"x_min":0,"x_max":0,"o":""},"Ẁ":{"ha":0,"x_min":0,"x_max":0,"o":""},"X":{"ha":59,"x_min":0,"x_max":0,"o":""},"Ẍ":{"ha":0,"x_min":0,"x_max":0,"o":""},"Ẋ":{"ha":0,"x_min":0,"x_max":0,"o":""},"Y":{"ha":92,"x_min":0,"x_max":0,"o":""},"Ʀ":{"ha":163,"x_min":0,"x_max":0,"o":"m 61 1050 l 61 0 l 171 0 l 171 412 l 401 412 l 749 -240 l 865 -240 l 865 -233 l 507 433 b 696 696 625 474 696 570 b 373 983 696 879 576 983 l 171 983 l 171 1050 z m 171 502 l 171 892 l 373 892 b 587 696 517 892 587 814 b 384 502 587 583 510 502 z "},"Ý":{"ha":0,"x_min":0,"x_max":0,"o":""},"Ŷ":{"ha":0,"x_min":0,"x_max":0,"o":""},"Ÿ":{"ha":0,"x_min":0,"x_max":0,"o":""},"Ẏ":{"ha":0,"x_min":0,"x_max":0,"o":""},"Ỵ":{"ha":0,"x_min":0,"x_max":0,"o":""},"Ỳ":{"ha":0,"x_min":0,"x_max":0,"o":""},"Ƴ":{"ha":136,"x_min":0,"x_max":0,"o":"m 19 982 l 374 422 l 374 0 l 471 0 l 471 422 l 747 856 b 869 898 781 910 826 917 l 897 974 b 666 901 821 1016 723 996 "},"Ỷ":{"ha":0,"x_min":0,"x_max":0,"o":""},"Ỹ":{"ha":0,"x_min":0,"x_max":0,"o":""},"Z":{"ha":50,"x_min":0,"x_max":0,"o":""},"Ź":{"ha":0,"x_min":0,"x_max":0,"o":""},"Ƶ":{"ha":50,"x_min":0,"x_max":0,"o":"m 79 0 l 742 0 l 742 87 l 194 87 l 445 467 l 618 467 l 618 538 l 492 538 l 736 910 l 736 982 l 76 982 l 76 895 l 620 895 l 385 538 l 210 538 l 210 467 l 339 467 l 79 72 z "},"Ž":{"ha":0,"x_min":0,"x_max":0,"o":""},"Ẑ":{"ha":0,"x_min":0,"x_max":0,"o":""},"Ż":{"ha":0,"x_min":0,"x_max":0,"o":""},"Ẓ":{"ha":0,"x_min":0,"x_max":0,"o":""},"Ẕ":{"ha":0,"x_min":0,"x_max":0,"o":""},"Ɯ":{"ha":406,"x_min":0,"x_max":0,"o":"m 99 278 b 332 -12 99 72 189 -12 b 557 123 441 -12 517 40 b 766 -12 593 28 668 -12 b 971 88 860 -12 928 26 l 974 0 l 1073 0 l 1073 982 l 968 982 l 968 229 b 784 76 948 138 888 76 b 637 278 703 76 637 129 l 637 982 l 533 982 l 533 278 b 536 231 533 261 534 245 b 349 76 515 138 454 76 b 205 278 267 76 205 129 l 205 982 l 99 982 z "},"Ƕ":{"ha":714,"x_min":0,"x_max":0,"o":"m 1074 -14 b 1381 307 1255 -14 1381 88 l 1381 742 l 1284 742 l 1284 307 b 1074 76 1284 148 1211 75 b 860 307 939 76 860 148 l 860 982 l 762 982 l 762 0 l 859 0 l 859 449 l 1408 449 l 1408 307 b 1720 -14 1408 92 1535 -14 z "},"Ƿ":{"ha":6,"x_min":0,"x_max":0,"o":"m 161 982 l 52 982 l 52 -277 l 161 -277 l 161 -100 b 720 552 492 -28 720 227 l 720 581 b 349 996 720 863 578 996 b 161 954 273 996 212 981 z m 161 -8 l 161 817 b 350 906 197 873 255 906 b 610 582 521 906 610 807 l 610 552 b 161 -8 610 307 466 70 z "},"Ǹ":{"ha":0,"x_min":0,"x_max":0,"o":""},"Ț":{"ha":0,"x_min":0,"x_max":0,"o":""},"Ȟ":{"ha":0,"x_min":0,"x_max":0,"o":""},"Ƞ":{"ha":20,"x_min":0,"x_max":0,"o":"m 726 -275 l 726 659 b 384 996 726 892 574 996 b 168 944 299 996 226 975 l 168 982 l 64 982 l 64 0 l 168 0 l 168 856 b 376 907 225 888 295 907 b 620 659 533 907 620 838 l 620 -275 z "},"Ȣ":{"ha":39,"x_min":0,"x_max":0,"o":"m 393 488 l 411 488 b 656 282 567 488 656 420 b 408 77 656 141 564 77 l 395 77 b 146 281 240 77 146 141 b 393 488 146 420 237 488 z m 415 581 l 389 581 b 149 751 251 581 149 614 b 277 910 149 842 195 891 l 277 996 b 41 751 145 985 41 906 b 186 530 41 636 98 567 b 38 281 93 484 38 400 b 395 -14 38 84 186 -14 l 408 -14 b 766 282 617 -14 766 84 b 618 530 766 400 711 484 b 762 751 706 567 762 636 b 521 997 762 907 658 987 l 521 913 b 654 751 605 894 654 844 b 415 581 654 614 552 581 z "},"Ȥ":{"ha":41,"x_min":0,"x_max":0,"o":"m 71 895 l 614 895 l 73 72 l 73 0 l 563 0 b 654 -113 632 0 654 -49 l 654 -140 l 742 -140 l 742 -92 b 563 87 742 15 674 87 l 189 87 l 731 910 l 731 982 l 71 982 z "},"Ȧ":{"ha":0,"x_min":0,"x_max":0,"o":""},"Ȩ":{"ha":14,"x_min":0,"x_max":0,"o":"m 117 0 l 353 0 l 335 -83 l 342 -49 z "},"Ȫ":{"ha":0,"x_min":0,"x_max":0,"o":""},"Ȭ":{"ha":0,"x_min":0,"x_max":0,"o":""},"Ȯ":{"ha":235,"x_min":0,"x_max":0,"o":"m -332 617 z "},"Ȱ":{"ha":235,"x_min":0,"x_max":0,"o":"m -332 617 "},"Ȳ":{"ha":0,"x_min":0,"x_max":0,"o":""},"Ⱥ":{"ha":104,"x_min":0,"x_max":0,"o":"m 715 1107 l 627 1107 l 536 849 l 487 982 l 382 982 l 26 0 l 127 0 l 231 292 l 339 292 l 191 -125 l 279 -125 l 427 292 l 639 292 l 742 0 l 844 0 l 581 726 z m 262 377 l 431 857 l 438 857 l 488 716 l 369 377 z m 457 377 l 533 591 l 609 377 z "},"Ȼ":{"ha":192,"x_min":0,"x_max":0,"o":"m 217 -125 l 305 -125 l 355 12 b 382 52 338 12 382 61 b 349 66 382 104 342 66 b 328 NaN 363 66 328 NaN l 604 NaN b 734 NaN 671 NaN 718 NaN l 832 NaN b 637 NaN 810 NaN 740 NaN l 694 NaN l 606 NaN l 559 NaN b 441 NaN 523 NaN 484 NaN b 235 NaN 235 NaN 315 NaN b 705 NaN 235 NaN 677 NaN b 694 NaN 701 NaN 694 NaN l 420 NaN b 275 NaN 332 NaN 275 NaN z "},"Ⱦ":{"ha":68,"x_min":0,"x_max":0,"o":"m 161 -125 l 248 -125 l 369 208 l 369 0 l 467 0 l 467 476 l 620 895 l 776 895 l 776 982 l 651 982 l 696 1107 l 608 1107 l 563 982 l 58 982 l 58 895 l 369 895 l 369 449 z m 467 718 l 467 895 l 532 895 z "},"Ɂ":{"ha":-73,"x_min":0,"x_max":0,"o":"m 334 290 l 278 290 l 278 0 l 388 0 l 388 201 b 647 538 559 227 647 366 l 647 655 b 336 996 647 845 541 996 b 46 732 167 996 53 886 l 149 732 b 336 903 155 836 225 903 b 538 655 486 903 538 788 l 538 538 b 334 290 538 403 487 292 z "},"Ƀ":{"ha":163,"x_min":0,"x_max":0,"o":"m 193 0 l -473 0 l -473 -155 l -545 -155 l -545 0 z m -194 -157 z "},"Ʉ":{"ha":205,"x_min":0,"x_max":0,"o":"m 986 572 l 859 572 l 859 982 l 762 982 l 762 572 l 206 572 l 206 982 l 110 982 l 110 572 l -15 572 l -15 506 l 110 506 l 110 332 l 110 506 l 237 506 z m -543 339 z "},"Ʌ":{"ha":168,"x_min":0,"x_max":0,"o":"m 751 0 l 871 0 l 517 982 l 416 982 l 62 0 l 182 0 l 465 842 z "},"Ɇ":{"ha":14,"x_min":0,"x_max":0,"o":"m 651 1107 l 564 1107 l 529 982 l 117 982 l 117 0 l 245 0 l 209 -125 l 296 -125 l 332 0 l 701 0 l 701 87 l 357 87 l 461 449 l 662 449 l 662 534 l 486 534 l 590 895 l 692 895 l 692 982 l 616 982 z m 213 87 l 213 449 l 374 449 l 270 87 z m 213 534 l 213 895 l 503 895 l 399 534 z "},"Ɉ":{"ha":-63,"x_min":0,"x_max":0,"o":"m 490 982 l 490 620 l 334 620 l 334 548 l 490 548 l 490 275 l 762 275 l 762 431 l 834 431 l 834 275 l 1196 275 z "},"Ɍ":{"ha":77,"x_min":0,"x_max":0,"o":"m 125 0 b 690 323 125 96 518 323 b 707 NaN 583 323 707 111 l 385 NaN l 385 NaN l 266 NaN l 266 NaN l 385 NaN z m 481 NaN l 481 NaN l 703 NaN b 930 NaN 857 NaN 930 NaN b 704 NaN 930 NaN 857 NaN z "},"Ɏ":{"ha":93,"x_min":0,"x_max":0,"o":"m 868 779 l 704 779 l 831 982 l 720 982 l 594 779 l 263 779 l 137 982 l 26 982 l 155 779 l -11 779 l -11 713 l 195 713 l 380 420 l 564 713 l 770 713 z m 206 713 l 457 713 l 335 518 l 327 518 z "},"Ỻ":{"ha":170,"x_min":0,"x_max":0,"o":"m 106 0 l 917 0 l 917 87 l 452 87 l 452 982 l 355 982 l 355 87 l 202 87 l 202 982 l 106 982 z "},"Ỽ":{"ha":-102,"x_min":0,"x_max":0,"o":"m 351 637 l 323 551 b 521 285 431 524 521 433 b 338 75 521 156 450 75 b 144 369 232 75 144 179 l 144 441 b 441 869 144 673 231 821 l 422 956 b 38 412 125 897 38 684 l 38 374 b 338 -14 38 170 137 -14 b 625 293 521 -14 625 110 b 351 637 625 463 513 598 z "},"Ỿ":{"ha":177,"x_min":0,"x_max":0,"o":"m 231 982 l 110 982 l 410 374 b 289 411 376 397 336 411 b 77 199 172 411 77 316 b 289 -14 77 81 172 -14 b 491 132 382 -12 462 47 l 886 982 l 766 982 l 506 399 z m 289 83 b 176 199 227 83 176 127 b 289 317 176 273 227 317 b 401 199 353 317 401 273 b 289 83 403 127 353 83 z "},"Ɀ":{"ha":41,"x_min":0,"x_max":0,"o":"m 648 -288 b 749 -271 689 -288 730 -279 l 749 -186 b 667 -198 724 -193 699 -198 b 186 81 519 -198 435 49 l 731 911 l 731 982 l 71 982 l 71 895 l 616 895 l 73 72 l 73 0 l 121 0 b 648 -288 365 0 457 -288 z "},"Ａ":{"ha":536,"x_min":0,"x_max":0,"o":"m 345 0 "},"Ｂ":{"ha":536,"x_min":0,"x_max":0,"o":""},"Ｃ":{"ha":536,"x_min":0,"x_max":0,"o":"m 966 674 l 1063 674 b 673 996 1029 860 880 996 b 673 1354 423 996 673 1203 b NaN 1525 673 1492 856 1525 z "},"Ｄ":{"ha":536,"x_min":0,"x_max":0,"o":"m 586 0 l 278 0 l 278 -982 z m 374 -895 "},"Ｅ":{"ha":536,"x_min":0,"x_max":0,"o":"m 378 0 z "},"Ｆ":{"ha":536,"x_min":0,"x_max":0,"o":"m 384 0 l 480 0 l 480 449 z "},"Ｇ":{"ha":536,"x_min":0,"x_max":0,"o":"m 955 675 "},"Ｈ":{"ha":536,"x_min":0,"x_max":0,"o":""},"Ｉ":{"ha":536,"x_min":0,"x_max":0,"o":""},"Ｊ":{"ha":536,"x_min":0,"x_max":0,"o":"m 789 982 "},"Ｋ":{"ha":536,"x_min":0,"x_max":0,"o":"m 346 0 l 442 0 l 442 317 l 572 463 l 929 0 l 1047 0 l 632 530 l 1050 982 l 924 982 l 452 461 l 442 461 l 442 982 l 346 982 z "},"Ｌ":{"ha":536,"x_min":0,"x_max":0,"o":"m 400 0 l 962 0 z "},"Ｍ":{"ha":536,"x_min":0,"x_max":0,"o":"m 183 982 l 183 0 l 274 0 l 274 783 l 282 783 l 608 0 l 694 0 l 1020 783 l 1028 783 l 1028 0 l 1120 0 l 1120 982 l 1006 982 l 656 138 l 647 138 l 296 982 z "},"Ｎ":{"ha":536,"x_min":0,"x_max":0,"o":"m 1035 982 l 940 982 l 940 171 l 932 171 l 361 982 l 267 982 l 267 0 l 363 0 l 363 810 l 372 810 l 943 0 l 1035 0 z "},"Ｏ":{"ha":536,"x_min":0,"x_max":0,"o":""},"Ｐ":{"ha":536,"x_min":0,"x_max":0,"o":"m 355 0 z "},"Ｑ":{"ha":536,"x_min":0,"x_max":0,"o":"m 632 308 l 785 107 b 651 77 745 87 699 77 b 380 -115 498 77 449 -38 l 260 39 b 508 448 260 378 444 448 b 553 NaN 524 448 553 505 l 645 NaN l 752 NaN l 623 NaN b 787 NaN 725 NaN 787 NaN z "},"Ｒ":{"ha":536,"x_min":0,"x_max":0,"o":"m 353 0 b 918 323 353 96 746 323 b 935 NaN 811 323 935 111 l 613 NaN "},"Ｓ":{"ha":536,"x_min":0,"x_max":0,"o":"m 887 735 l 982 735 b 661 996 975 886 845 996 b 335 727 476 996 335 887 b 581 475 335 600 426 521 l 697 441 b 901 264 817 407 901 362 b 651 71 901 148 796 71 b 408 248 521 71 418 133 l 309 248 b 651 -16 320 91 449 -16 b 994 263 867 -16 994 104 "},"Ｔ":{"ha":536,"x_min":0,"x_max":0,"o":"m 293 895 "},"Ｕ":{"ha":536,"x_min":0,"x_max":0,"o":"m 930 982 l 930 1632 z "},"Ｖ":{"ha":0,"x_min":0,"x_max":0,"o":""},"Ｗ":{"ha":536,"x_min":0,"x_max":0,"o":"m 320 0 "},"Ｘ":{"ha":536,"x_min":0,"x_max":0,"o":"m 381 982 z "},"Ｙ":{"ha":536,"x_min":0,"x_max":0,"o":"m 248 982 z "},"Ｚ":{"ha":536,"x_min":0,"x_max":0,"o":"m 323 0 l 986 0 l 986 87 l 438 87 l 981 910 l 981 982 l 320 982 l 320 895 l 864 895 l 323 72 z "},"ɢ":{"ha":50,"x_min":0,"x_max":0,"o":"m 719 103 l 719 353 l 427 353 l 427 267 l 625 267 l 625 138 b 562 27 625 113 602 27 b 600 217 463 27 600 144 b NaN 176 600 163 499 176 l NaN 176 b NaN 415 NaN 316 NaN 415 b NaN 100 NaN 415 NaN 286 l NaN -7 b NaN -326 NaN -195 NaN -326 b NaN -209 NaN -326 NaN -258 z "},"ʛ":{"ha":50,"x_min":0,"x_max":0,"o":"m 718 488 l 718 570 b 815 675 718 647 751 675 b 854 671 826 675 841 674 l 854 745 b 793 753 837 750 812 753 b 651 643 714 753 667 715 b 415 727 600 695 522 727 b 80 412 220 727 80 598 l 80 305 b 418 -14 80 117 217 -14 b 718 103 576 -14 685 54 l 718 353 l 427 353 l 427 267 l 625 267 l 625 138 b 562 26 625 113 602 26 b 600 217 464 26 600 144 b NaN 176 600 163 499 176 z "},"ɪ":{"ha":-347,"x_min":0,"x_max":0,"o":"m 365 713 l 57 713 l 57 628 l 156 628 l 156 85 l 57 85 l 57 0 l 365 0 l 365 85 l 262 85 l 262 628 l 365 628 z "},"ʟ":{"ha":-195,"x_min":0,"x_max":0,"o":"m 519 84 l 160 84 l 160 713 l 54 713 l 54 0 l 519 0 z "},"ɴ":{"ha":10,"x_min":0,"x_max":0,"o":"m 677 736 l 585 736 l 585 170 l 576 170 l 189 736 l 99 736 l 99 0 l 193 0 l 193 564 l 199 564 l 586 0 l 677 0 z "},"ɶ":{"ha":441,"x_min":0,"x_max":0,"o":"m 1103 84 l 699 84 l 699 320 l 1046 320 l 1046 406 l 699 406 l 699 629 l 1103 629 l 1103 713 l 662 713 b 434 727 564 716 502 727 b 109 363 232 727 109 571 l 109 351 b 435 -14 109 142 233 -14 b 661 0 502 -14 572 -3 l 1103 0 z m 214 351 l 214 363 b 435 642 214 517 289 642 b 593 633 492 642 536 637 l 593 81 b 435 72 536 77 489 72 b 214 351 290 72 214 195 z "},"ʀ":{"ha":47,"x_min":0,"x_max":0,"o":"m 401 713 l 103 713 l 103 0 l 209 0 l 209 285 l 418 285 l 419 285 l 595 0 l 709 0 l 524 302 b 665 500 614 334 665 408 b 401 713 665 627 568 713 z m 209 370 l 209 629 l 401 629 b 560 502 507 629 560 570 b 418 370 560 431 513 370 z "},"ʁ":{"ha":47,"x_min":0,"x_max":0,"o":"m 401 0 b 665 213 568 0 665 88 b 524 412 665 307 614 380 l 709 713 l 595 713 l 419 429 l 418 429 l 209 429 l 209 713 l 103 713 l 103 0 z m 209 84 l 209 343 l 418 343 b 560 213 513 343 560 283 b 401 84 560 144 507 84 z "},"ʏ":{"ha":-71,"x_min":0,"x_max":0,"o":"m 126 713 l 8 713 l 293 245 l 293 0 l 397 0 l 397 241 l 686 713 l 568 713 l 349 335 z "},"a":{"ha":0,"x_min":0,"x_max":0,"o":""},"á":{"ha":0,"x_min":0,"x_max":0,"o":""},"ă":{"ha":0,"x_min":0,"x_max":0,"o":""},"ắ":{"ha":-35,"x_min":0,"x_max":0,"o":"m 547 959 l 461 959 z m 252 978 l 209 978 l 209 951 l 176 951 l 176 887 l 236 887 "},"ặ":{"ha":0,"x_min":0,"x_max":0,"o":""},"ằ":{"ha":-35,"x_min":0,"x_max":0,"o":"m 547 959 l 461 959 z m 266 978 l 222 978 l 222 949 l 190 949 l 190 887 l 250 887 "},"ẳ":{"ha":-35,"x_min":0,"x_max":0,"o":"m -270 -784 l 267 -784 l 267 194 l 153 194 l 153 286 l 651 286 "},"ẵ":{"ha":0,"x_min":0,"x_max":0,"o":""},"ǎ":{"ha":0,"x_min":0,"x_max":0,"o":""},"â":{"ha":0,"x_min":0,"x_max":0,"o":""},"ấ":{"ha":0,"x_min":0,"x_max":0,"o":""},"ậ":{"ha":0,"x_min":0,"x_max":0,"o":""},"ầ":{"ha":0,"x_min":0,"x_max":0,"o":""},"ẩ":{"ha":0,"x_min":0,"x_max":0,"o":""},"ẫ":{"ha":0,"x_min":0,"x_max":0,"o":""},"ȁ":{"ha":0,"x_min":0,"x_max":0,"o":""},"ä":{"ha":0,"x_min":0,"x_max":0,"o":""},"ǟ":{"ha":0,"x_min":0,"x_max":0,"o":""},"ạ":{"ha":0,"x_min":0,"x_max":0,"o":""},"ǡ":{"ha":0,"x_min":0,"x_max":0,"o":""},"à":{"ha":0,"x_min":0,"x_max":0,"o":""},"ả":{"ha":0,"x_min":0,"x_max":0,"o":""},"ȃ":{"ha":0,"x_min":0,"x_max":0,"o":""},"ā":{"ha":0,"x_min":0,"x_max":0,"o":""},"ą":{"ha":0,"x_min":0,"x_max":0,"o":""},"ẚ":{"ha":0,"x_min":0,"x_max":0,"o":""},"å":{"ha":0,"x_min":0,"x_max":0,"o":""},"ǻ":{"ha":0,"x_min":0,"x_max":0,"o":""},"ḁ":{"ha":0,"x_min":0,"x_max":0,"o":""},"ɑ":{"ha":0,"x_min":0,"x_max":0,"o":""},"ɒ":{"ha":51,"x_min":0,"x_max":0,"o":"m 749 365 l 749 395 b 472 747 749 602 648 747 b 258 631 374 747 304 705 b 142 747 244 711 202 747 b 69 727 115 747 92 743 l 83 648 b 106 652 88 651 98 652 b 157 564 136 652 157 635 l 157 0 l 247 0 l 258 98 b 465 -14 302 27 370 -14 b 749 365 647 -14 749 142 z m 643 395 l 643 365 b 439 72 643 202 582 72 b 263 208 351 72 296 127 l 263 521 b 445 661 298 604 352 661 b 643 395 585 661 643 547 z "},"ã":{"ha":0,"x_min":0,"x_max":0,"o":""},"ɐ":{"ha":-35,"x_min":0,"x_max":0,"o":"m 100 239 b 366 -11 100 37 256 -11 b 647 183 519 -11 632 66 l 551 183 b 372 72 533 117 468 72 b 193 231 256 72 193 132 l 193 301 b 396 312 228 302 347 309 b 667 530 547 324 667 381 b 425 753 667 673 559 753 b 198 623 301 753 228 686 l 193 623 l 193 736 l 100 736 z m 193 377 l 193 456 b 411 670 193 572 275 670 b 575 534 506 670 575 621 b 382 391 575 450 513 400 z "},"æ":{"ha":0,"x_min":0,"x_max":0,"o":""},"ǽ":{"ha":0,"x_min":0,"x_max":0,"o":""},"ǣ":{"ha":0,"x_min":0,"x_max":0,"o":""},"b":{"ha":43,"x_min":0,"x_max":0,"o":""},"ɤ":{"ha":191,"x_min":0,"x_max":0,"o":"m 73 652 l 138 586 b 225 644 163 621 191 644 b 401 446 290 644 321 594 l 419 415 l 416 410 b 309 129 357 297 309 201 b 477 -14 309 42 374 -14 b 646 129 583 -14 646 42 b 538 410 646 201 600 297 l 537 414 b 731 644 638 596 670 644 b 819 586 765 644 795 621 l 884 652 b 716 747 842 705 788 747 b 477 522 621 747 559 667 b 241 747 397 666 338 747 b 73 652 171 747 114 705 z m 415 132 b 477 302 415 164 435 218 b 541 132 524 209 541 161 b 477 75 541 100 521 75 b 415 132 434 75 415 100 z "},"ƀ":{"ha":43,"x_min":0,"x_max":0,"o":"m 117 0 l 326 0 l 326 159 l 397 159 l 397 0 l 499 0 l 499 -92 l 397 -92 "},"ḃ":{"ha":0,"x_min":0,"x_max":0,"o":""},"ḅ":{"ha":0,"x_min":0,"x_max":0,"o":""},"ɓ":{"ha":43,"x_min":0,"x_max":0,"o":"m 441 -15 l 654 -15 l 654 62 l 694 62 l 694 152 l 827 152 l 827 163 b 1051 15 857 99 917 15 z m 1039 98 b 818 397 899 98 818 222 z "},"ḇ":{"ha":0,"x_min":0,"x_max":0,"o":""},"ƃ":{"ha":43,"x_min":0,"x_max":0,"o":"m 652 982 l 117 982 l 117 0 l 414 0 l 414 444 "},"ʘ":{"ha":0,"x_min":0,"x_max":0,"o":""},"c":{"ha":-36,"x_min":0,"x_max":0,"o":""},"ć":{"ha":0,"x_min":0,"x_max":0,"o":""},"č":{"ha":0,"x_min":0,"x_max":0,"o":""},"ç":{"ha":0,"x_min":0,"x_max":0,"o":""},"ḉ":{"ha":0,"x_min":0,"x_max":0,"o":""},"ĉ":{"ha":0,"x_min":0,"x_max":0,"o":""},"ɕ":{"ha":-40,"x_min":0,"x_max":0,"o":"m 388 -15 b 647 190 533 -15 647 65 b 457 355 647 285 579 355 b 172 232 347 355 251 300 b 151 368 158 271 151 317 b 387 663 151 544 247 663 b 576 517 491 663 559 598 b 250 137 382 517 250 357 b 293 -66 250 60 265 -9 b 182 -199 246 -117 209 -166 l 248 -254 b 345 -142 269 -227 303 -186 b 579 -245 401 -208 481 -245 z m 408 -80 b 647 43 481 -14 568 43 b 745 -43 696 43 745 11 b 579 -163 745 -113 673 -163 b 408 -80 508 -163 449 -133 z "},"ċ":{"ha":0,"x_min":0,"x_max":0,"o":""},"ƈ":{"ha":25,"x_min":0,"x_max":0,"o":"m 673 517 l 673 617 b 774 720 673 694 712 720 b 815 716 788 720 803 719 l 815 795 b 754 800 798 800 774 800 b 587 677 671 800 608 758 b 389 747 537 722 468 747 b 62 365 194 747 62 587 b 391 -15 62 145 190 -15 b 674 216 545 -15 654 83 z "},"ʗ":{"ha":-75,"x_min":0,"x_max":0,"o":"m 363 -206 b 155 71 212 -206 155 -75 l 155 382 b 363 661 155 530 213 661 b 540 494 464 661 530 585 l 640 494 b 362 747 631 636 524 747 b 49 382 157 747 49 583 l 49 71 b 363 -292 49 -132 157 -292 b 642 -61 511 -292 631 -190 l 541 -61 b 363 -206 532 -148 457 -206 z "},"d":{"ha":43,"x_min":0,"x_max":0,"o":""},"ď":{"ha":0,"x_min":0,"x_max":0,"o":""},"ḑ":{"ha":0,"x_min":0,"x_max":0,"o":""},"ḓ":{"ha":0,"x_min":0,"x_max":0,"o":""},"đ":{"ha":43,"x_min":0,"x_max":0,"o":""},"ḋ":{"ha":0,"x_min":0,"x_max":0,"o":""},"ḍ":{"ha":0,"x_min":0,"x_max":0,"o":""},"ƍ":{"ha":-86,"x_min":0,"x_max":0,"o":"m 559 -247 l 559 -184 b 317 54 487 -103 395 -20 b 358 53 334 52 342 52 b 651 370 538 69 651 203 l 651 382 b 339 747 651 601 533 747 b 30 381 146 747 30 601 l 30 370 b 248 4 30 232 114 123 b 416 -164 305 -49 381 -123 l 109 -164 l 109 -247 z m 545 381 l 545 370 b 331 119 545 232 472 119 b 256 130 304 119 282 122 b 134 370 186 189 134 269 l 134 381 b 339 661 134 547 203 661 b 545 381 477 661 545 545 z "},"ɗ":{"ha":0,"x_min":0,"x_max":0,"o":"l 29 0 l 29 366 l 844 366 b 949 464 844 445 885 464 b 988 461 960 464 977 464 l 988 541 b 927 548 970 547 946 548 b 751 366 824 548 751 487 l 751 151 l 744 151 "},"ḏ":{"ha":0,"x_min":0,"x_max":0,"o":""},"ɖ":{"ha":26,"x_min":0,"x_max":0,"o":"m 772 -275 b 833 -271 793 -275 817 -275 l 833 -191 b 793 -195 821 -193 807 -195 b 690 -94 731 -195 690 -171 b 663 982 690 0 692 982 b 463 NaN 661 982 463 NaN "},"ƌ":{"ha":43,"x_min":0,"x_max":0,"o":"m 155 982 l 69 982 l 69 1426 l -228 1426 l -228 1561 l -168 1561 z m -259 947 b -481 647 -259 772 -340 647 z "},"ʤ":{"ha":484,"x_min":0,"x_max":0,"o":"m 685 0 l 685 651 l 1043 651 l 789 286 l 789 201 l 868 201 b 1120 -8 1034 201 1120 107 b 898 -214 1120 -115 1036 -214 b 689 -61 787 -214 700 -149 l 598 -61 b 898 -292 618 -222 749 -292 b 1211 -8 1089 -292 1211 -175 b 895 281 1211 160 1099 273 l 1168 669 l 1166 736 l 685 736 l 685 982 l 593 982 l 593 601 l 586 601 b 362 747 557 663 498 747 l 180 747 l 180 624 l 28 624 l 28 395 l -202 395 l -202 518 l -353 518 l -353 699 l -486 699 z m -932 1066 b -708 1362 -932 1233 -854 1362 b -487 1066 -566 1362 -487 1240 b -708 766 -487 891 -566 766 b -932 1066 -853 766 -932 898 z "},"ǳ":{"ha":633,"x_min":0,"x_max":0,"o":"m 399 -68 z "},"ʣ":{"ha":612,"x_min":0,"x_max":0,"o":"m 760 0 l 1316 0 l 1316 85 l 886 85 l 886 92 l 1301 662 l 1375 662 l 1375 53 l 1866 53 l 1866 46 l 1443 -526 z m 1062 -530 b 806 -796 887 -530 806 -655 z "},"ǆ":{"ha":633,"x_min":0,"x_max":0,"o":"m 399 -68 "},"ʥ":{"ha":707,"x_min":0,"x_max":0,"o":"m 1024 0 l 1204 0 b 1457 202 1383 0 1457 115 b 1287 357 1457 292 1381 357 b 978 85 1177 357 1101 260 l 884 85 l 1303 662 l 1378 662 l 1378 50 l 1873 50 l 1451 -522 l 1451 -601 l 1605 -601 l 1557 -671 l 1629 -719 z m 1892 -515 l 1770 -515 b 1968 -332 1853 -395 1902 -332 b 2052 -406 2013 -332 2052 -359 b 1892 -515 2052 -461 1995 -515 z m 1065 -533 b 808 -799 890 -533 808 -658 z "},"ð":{"ha":1,"x_min":0,"x_max":0,"o":"m 628 943 l 604 1002 l 437 922 b 259 1043 381 971 321 1011 l 221 975 b 361 887 273 948 319 918 l 213 817 l 237 757 l 414 841 b 595 560 508 751 564 651 l 587 560 b 362 693 547 631 472 693 b 62 339 194 693 62 545 b 384 -15 62 134 191 -15 b 704 362 574 -15 704 126 b 487 876 704 569 614 745 z m 384 68 b 155 339 233 68 155 194 b 384 616 155 490 239 616 b 614 334 536 616 614 475 b 384 68 614 184 528 68 z "},"e":{"ha":0,"x_min":0,"x_max":0,"o":""},"é":{"ha":0,"x_min":0,"x_max":0,"o":""},"ĕ":{"ha":0,"x_min":0,"x_max":0,"o":""},"ě":{"ha":0,"x_min":0,"x_max":0,"o":""},"ḝ":{"ha":0,"x_min":0,"x_max":0,"o":""},"ê":{"ha":0,"x_min":0,"x_max":0,"o":""},"ế":{"ha":0,"x_min":0,"x_max":0,"o":""},"ḙ":{"ha":0,"x_min":0,"x_max":0,"o":""},"ệ":{"ha":0,"x_min":0,"x_max":0,"o":""},"ề":{"ha":0,"x_min":0,"x_max":0,"o":""},"ể":{"ha":0,"x_min":0,"x_max":0,"o":""},"ễ":{"ha":0,"x_min":0,"x_max":0,"o":""},"ȅ":{"ha":0,"x_min":0,"x_max":0,"o":""},"ë":{"ha":0,"x_min":0,"x_max":0,"o":""},"ė":{"ha":0,"x_min":0,"x_max":0,"o":""},"ẹ":{"ha":0,"x_min":0,"x_max":0,"o":""},"è":{"ha":0,"x_min":0,"x_max":0,"o":""},"ẻ":{"ha":0,"x_min":0,"x_max":0,"o":""},"ȇ":{"ha":0,"x_min":0,"x_max":0,"o":""},"ē":{"ha":0,"x_min":0,"x_max":0,"o":""},"ḗ":{"ha":0,"x_min":0,"x_max":0,"o":""},"ḕ":{"ha":0,"x_min":0,"x_max":0,"o":""},"ę":{"ha":0,"x_min":0,"x_max":0,"o":"b 399 -234 -3 0 399 -286 b 488 -139 399 -193 444 -139 b 715 39 605 -121 687 -49 b 1010 -337 715 -170 827 -318 b 925 -489 951 -385 925 -435 b 1055 -611 925 -569 979 -611 "},"ɛ":{"ha":0,"x_min":0,"x_max":0,"o":""},"ɜ":{"ha":0,"x_min":0,"x_max":0,"o":"b 103 45 0 -13 103 16 b 171 NaN 103 112 171 NaN b -102 NaN 171 NaN 61 NaN b -384 NaN -259 NaN -365 NaN "},"ɞ":{"ha":-55,"x_min":0,"x_max":0,"o":"m 366 -14 b 654 197 534 -14 654 71 b 507 372 654 267 616 340 b 640 534 610 400 640 467 b 368 746 640 666 530 746 b 49 377 159 746 49 610 b 366 -14 49 129 157 -14 z m 141 377 b 372 663 141 560 217 663 b 547 536 477 663 547 612 b 378 419 547 464 490 419 l 296 419 l 296 339 l 378 339 b 557 201 487 339 557 279 b 366 71 557 123 481 71 b 141 377 214 71 141 182 z "},"ɝ":{"ha":0,"x_min":0,"x_max":0,"o":"b 223 132 146 88 170 123 b NaN NaN 280 160 286 NaN l NaN NaN b NaN NaN NaN NaN NaN NaN b NaN NaN NaN NaN NaN NaN l NaN NaN b NaN NaN NaN NaN NaN NaN b NaN NaN NaN NaN NaN NaN l NaN NaN b NaN NaN NaN NaN NaN NaN b NaN NaN NaN NaN NaN NaN "},"ʚ":{"ha":-55,"x_min":0,"x_max":0,"o":"m 345 -14 b 663 377 552 -14 663 129 b 343 746 663 610 552 746 b 307 821 374 746 307 850 b 159 646 197 790 159 717 b 447 436 159 520 279 436 z m 256 650 b 435 789 256 729 328 789 l 517 789 l 517 869 l 435 869 b 267 985 323 869 267 913 b 441 1113 267 1061 336 1113 b 672 827 596 1113 672 1010 b 447 520 672 631 599 520 b 256 650 332 520 256 573 z "},"ɘ":{"ha":-73,"x_min":0,"x_max":0,"o":"m 323 -14 b 644 346 518 -14 644 126 l 644 365 b 331 747 644 593 518 747 b 50 385 156 747 50 610 l 50 335 l 538 335 b 320 72 534 173 452 72 b 123 178 239 72 170 109 l 56 130 b 323 -14 113 38 206 -14 z m 156 419 l 156 427 b 336 661 163 578 229 661 b 537 419 450 661 523 567 z "},"ʃ":{"ha":-205,"x_min":0,"x_max":0,"o":"m 228 806 l 228 -71 l 1104 -71 b 1236 54 1187 -71 1236 -22 b 1180 -151 1236 76 1261 -11 z "},"ʆ":{"ha":-64,"x_min":0,"x_max":0,"o":"m 445 -39 l 445 806 b 576 937 445 888 500 937 b 642 932 598 937 623 936 l 647 1016 b 567 1027 621 1023 593 1027 b 353 806 431 1027 353 945 l 353 119 l 353 33 b 244 60 318 51 283 60 b 60 -109 140 60 60 -4 b 252 -277 60 -205 138 -277 b 437 -146 361 -277 417 -220 l 448 -160 l 532 -255 l 594 -193 l 467 -62 z m 164 -109 b 256 -26 164 -62 202 -26 b 353 -64 288 -26 319 -39 l 353 -102 b 251 -191 353 -153 312 -191 b 164 -109 201 -191 164 -156 z "},"ƪ":{"ha":-93,"x_min":0,"x_max":0,"o":"m 60 815 b 271 604 58 700 153 604 b 377 632 310 604 346 614 l 377 -62 b 545 -277 377 -203 434 -277 b 613 -266 567 -277 597 -273 l 613 -182 b 570 -187 600 -186 583 -187 b 483 -62 513 -187 483 -153 l 483 817 b 271 1027 482 934 387 1027 b 60 815 153 1027 60 933 z m 271 700 b 157 817 208 700 157 743 b 271 933 157 890 208 933 b 384 817 334 933 384 890 b 271 700 384 743 334 701 z "},"ʅ":{"ha":-207,"x_min":0,"x_max":0,"o":"m 332 -72 l 332 526 b 111 747 332 666 247 747 b 33 735 85 747 57 743 l 37 651 b 102 658 56 656 80 658 b 228 526 179 658 228 608 l 228 -72 b 449 -292 228 -212 313 -292 b 530 -283 473 -292 503 -289 l 525 -197 b 458 -203 506 -201 480 -203 b 332 -72 381 -203 332 -153 z "},"ẽ":{"ha":0,"x_min":0,"x_max":0,"o":""},"ḛ":{"ha":0,"x_min":0,"x_max":0,"o":""},"ǝ":{"ha":0,"x_min":0,"x_max":0,"o":""},"ə":{"ha":0,"x_min":0,"x_max":0,"o":""},"ɚ":{"ha":135,"x_min":0,"x_max":0,"o":"m 300 732 b 38 591 168 732 88 670 l 103 541 b 296 647 149 606 209 647 b 503 467 404 647 477 574 l 23 377 l 23 338 b 317 -14 23 136 121 -14 b 618 358 476 -14 618 129 l 618 378 l 618 401 l 650 407 b 800 243 666 315 703 244 b 878 262 827 243 853 251 l 863 328 b 822 324 853 326 842 324 b 718 506 754 326 734 395 l 606 486 b 300 732 571 635 459 732 z m 129 296 l 129 309 l 513 381 l 513 377 l 513 355 b 317 72 513 180 431 72 b 129 296 190 72 129 178 z "},"ʒ":{"ha":0,"x_min":0,"x_max":0,"o":""},"ǯ":{"ha":0,"x_min":0,"x_max":0,"o":""},"ʓ":{"ha":67,"x_min":0,"x_max":0,"o":"m 133 736 l 133 650 l 567 650 l 567 643 l 305 327 l 305 248 l 373 248 b 621 50 525 248 621 167 b 597 -53 621 16 613 -20 l 567 -27 b 296 98 496 34 406 98 b 95 -79 172 98 95 26 b 354 -277 95 -203 210 -277 b 614 -176 462 -277 551 -237 l 689 -240 l 742 -178 l 667 -113 b 716 54 699 -62 716 -4 b 418 324 716 202 601 308 l 418 330 l 696 666 l 696 736 z m 178 -80 b 297 11 178 -26 224 11 b 513 -90 381 11 453 -35 l 548 -119 b 358 -191 505 -162 441 -191 b 178 -80 260 -191 178 -151 z "},"ƹ":{"ha":54,"x_min":0,"x_max":0,"o":"m 735 1 l 637 1 b 412 -172 629 -107 534 -172 b 184 31 279 -172 184 -95 b 461 245 184 148 269 245 l 519 245 l 519 324 l 256 644 l 256 651 l 690 651 l 690 736 l 123 736 l 123 666 l 401 328 l 401 321 b 90 30 221 312 90 195 b 414 -259 90 -134 221 -259 b 735 1 587 -259 727 -159 z "},"ƺ":{"ha":-79,"x_min":0,"x_max":0,"o":"m 76 738 l 77 651 l 492 651 l 210 404 l 210 335 l 301 335 b 467 245 419 335 467 304 b 300 127 467 183 430 156 b 46 -87 130 91 46 26 b 315 -292 46 -213 151 -292 b 600 -58 492 -292 597 -183 l 495 -58 b 309 -206 488 -163 404 -206 b 151 -92 210 -206 151 -165 b 317 41 151 -34 186 11 b 572 243 481 79 572 126 b 359 418 572 340 495 404 l 644 669 l 644 736 z "},"f":{"ha":-313,"x_min":0,"x_max":0,"o":""},"ḟ":{"ha":0,"x_min":0,"x_max":0,"o":""},"ʩ":{"ha":307,"x_min":0,"x_max":0,"o":"m 498 736 l 245 736 l 245 823 l 245 718 l 132 718 l 132 639 l 245 639 l 245 -19 l 338 -19 l 338 639 l 500 639 l 500 -19 l 594 -19 l 594 438 l 593 438 z "},"ʪ":{"ha":16,"x_min":0,"x_max":0,"o":"m 623 191 b 458 72 623 119 562 72 b 122 206 367 72 235 100 l 122 982 l 30 982 l 30 0 l 122 0 l 122 90 b 458 -14 222 14 347 -14 b 728 199 620 -14 728 71 b 476 408 728 312 646 370 b 307 526 351 435 307 464 b 460 648 307 593 357 648 b 616 522 552 648 606 590 l 722 525 b 460 732 711 644 616 732 b 203 524 305 732 203 640 b 456 320 203 412 288 359 b 623 191 585 290 623 258 z "},"ʭ":{"ha":-44,"x_min":0,"x_max":0,"o":"m 627 384 l 98 384 l 98 0 l 179 0 l 179 316 l 545 316 l 545 0 l 627 0 z m 627 959 l 98 959 l 98 578 l 179 578 l 179 892 l 545 892 l 545 578 l 627 578 z "},"g":{"ha":26,"x_min":0,"x_max":0,"o":""},"ǵ":{"ha":0,"x_min":0,"x_max":0,"o":""},"ɣ":{"ha":-9,"x_min":0,"x_max":0,"o":"m 377 -292 b 537 -149 476 -292 537 -239 b 491 0 537 -121 528 -75 l 431 122 l 726 736 l 625 736 l 378 231 l 130 736 l 30 736 l 327 123 l 264 -3 b 213 -149 229 -73 213 -118 b 377 -292 213 -239 278 -292 z m 313 -151 b 380 14 313 -118 336 -74 b 439 -151 420 -72 439 -119 b 377 -203 439 -179 414 -203 b 313 -151 339 -203 313 -180 z "},"ǥ":{"ha":0,"x_min":0,"x_max":0,"o":"b 380 232 26 0 380 160 b 573 -19 380 72 710 -19 b 794 -275 705 -19 784 -124 l 638 -275 l 638 -347 l 794 -347 b 573 -591 783 -500 703 -591 "},"ğ":{"ha":0,"x_min":0,"x_max":0,"o":""},"ǧ":{"ha":0,"x_min":0,"x_max":0,"o":""},"ĝ":{"ha":0,"x_min":0,"x_max":0,"o":""},"ģ":{"ha":0,"x_min":0,"x_max":0,"o":""},"ɡ":{"ha":26,"x_min":0,"x_max":0,"o":""},"ġ":{"ha":0,"x_min":0,"x_max":0,"o":""},"ɠ":{"ha":0,"x_min":0,"x_max":0,"o":"l 0 28 l 755 28 l 755 26 l 831 26 b 935 128 831 104 871 128 b 974 125 948 128 962 127 l 974 204 b 913 210 958 210 935 210 b 742 26 811 210 742 147 l 742 -186 l 734 -186 b 509 -39 704 -124 646 -39 b 203 -412 327 -39 203 -186 b 507 -778 203 -638 331 -778 b 732 -637 642 -778 704 -701 l 741 -637 l 741 -800 b 525 -996 741 -934 659 -996 b 324 -878 419 -996 342 -957 l 227 -878 b 525 -1078 244 -1008 362 -1078 m 519 -695 b 297 -414 376 -695 297 -580 b 519 -123 297 -252 374 -123 b 742 -414 662 -123 742 -245 b 519 -695 742 -589 659 -695 z "},"ʡ":{"ha":-74,"x_min":0,"x_max":0,"o":"m 517 191 l 370 191 l 370 275 l 312 275 l 312 109 l 160 109 l 160 24 l 312 24 l 312 -83 l 422 -83 l 422 24 l 568 24 z "},"ƾ":{"ha":-73,"x_min":0,"x_max":0,"o":"m 522 190 b 354 73 522 122 458 73 b 174 224 260 73 176 123 l 68 224 b 354 -14 68 102 170 -14 b 627 198 517 -14 627 73 b 384 526 627 393 384 349 l 384 631 l 524 631 l 524 711 l 384 711 l 384 883 l 278 883 l 278 711 l 140 711 l 140 631 l 278 631 l 278 524 b 522 190 278 301 522 328 z "},"ʢ":{"ha":-74,"x_min":0,"x_max":0,"o":"m 316 0 l 420 0 l 420 107 l 571 107 l 571 179 l 420 179 l 420 358 l 345 358 b 155 612 202 372 155 484 l 155 656 b 357 910 155 789 206 910 b 544 739 467 910 537 837 l 643 739 b 357 996 636 887 526 996 b 49 656 152 996 49 846 l 49 612 b 316 275 49 436 136 298 l 316 179 l 163 179 l 163 107 l 316 107 z "},"ʖ":{"ha":-74,"x_min":0,"x_max":0,"o":"m 273 661 l 324 661 b 538 404 484 659 538 543 l 538 331 b 335 76 538 198 486 76 b 149 247 225 76 156 151 l 49 247 b 335 -9 57 100 167 -9 b 643 331 541 -9 643 141 l 643 404 b 378 745 643 581 557 720 l 378 982 l 273 982 z "},"ʕ":{"ha":-74,"x_min":0,"x_max":0,"o":"m 316 0 l 420 0 l 420 358 l 345 358 b 155 612 202 372 155 484 l 155 656 b 357 910 155 789 206 910 b 544 739 467 910 537 837 l 643 739 b 357 996 636 887 526 996 b 49 656 152 996 49 846 l 49 612 b 316 275 49 436 136 298 z "},"ḡ":{"ha":0,"x_min":0,"x_max":0,"o":""},"ȝ":{"ha":-73,"x_min":0,"x_max":0,"o":"m 127 228 l 127 146 b 458 278 262 170 376 216 b 510 115 492 241 510 186 b 127 -203 510 -61 399 -156 l 127 -288 b 616 110 457 -250 617 -118 b 522 335 616 212 584 287 b 604 529 574 392 603 458 b 354 747 604 662 509 747 b 79 517 190 747 79 658 l 183 517 b 350 661 183 605 252 661 b 498 524 445 661 496 610 b 127 228 498 384 358 275 z "},"h":{"ha":2,"x_min":0,"x_max":0,"o":""},"ħ":{"ha":0,"x_min":0,"x_max":0,"o":""},"ḫ":{"ha":0,"x_min":0,"x_max":0,"o":""},"ḩ":{"ha":0,"x_min":0,"x_max":0,"o":"l 2 0 l 2 193 l 17 193 l -1 109 l 6 144 l 9 144 "},"ĥ":{"ha":0,"x_min":0,"x_max":0,"o":""},"ḧ":{"ha":0,"x_min":0,"x_max":0,"o":""},"ḣ":{"ha":0,"x_min":0,"x_max":0,"o":""},"ḥ":{"ha":0,"x_min":0,"x_max":0,"o":""},"ɧ":{"ha":-2,"x_min":0,"x_max":0,"o":"m 570 0 l 570 -87 b 465 -195 570 -167 528 -195 b 426 -190 450 -195 435 -193 l 426 -269 l 419 -269 l 419 -254 l 442 -254 l 442 -167 l 444 -167 l 444 309 l 442 309 l 442 385 b 487 525 486 463 510 525 b NaN NaN 487 525 467 NaN b NaN NaN NaN NaN NaN NaN l NaN NaN l NaN NaN l NaN NaN l NaN NaN l NaN NaN z "},"ɦ":{"ha":-2,"x_min":0,"x_max":0,"o":"m 194 457 l 193 457 l 193 533 l 193 610 l 236 610 l 236 530 l 237 530 l 237 -202 l 331 -202 z "},"ẖ":{"ha":0,"x_min":0,"x_max":0,"o":""},"ɥ":{"ha":2,"x_min":0,"x_max":0,"o":"m 575 279 b 374 75 575 152 491 75 b 191 267 262 75 191 146 l 191 736 l 99 736 l 99 260 b 350 -9 99 84 201 -9 b 568 117 463 -9 533 39 l 575 117 l 575 -245 l 669 -245 l 669 736 l 575 736 z "},"ʯ":{"ha":0,"x_min":0,"x_max":0,"o":"b -105 22 119 0 -92 22 b -208 123 -168 22 -208 46 l -208 954 l -300 954 l -300 496 "},"ʮ":{"ha":0,"x_min":0,"x_max":0,"o":"l 100 0 l 100 -393 l 192 -393 l 192 620 l 100 620 l 100 163 "},"ƕ":{"ha":479,"x_min":0,"x_max":0,"o":"m 99 0 l 99 -178 b 334 -483 99 -388 197 -483 b 669 178 534 -483 669 -281 l 669 267 l 576 267 l 576 180 b 339 -400 576 -235 477 -400 b 191 -178 266 -400 191 -353 l 191 7 b -60 277 191 183 90 277 b -278 151 -171 277 -243 228 l -285 151 l -285 513 l -378 513 z "},"i":{"ha":-473,"x_min":0,"x_max":0,"o":""},"ı":{"ha":-473,"x_min":0,"x_max":0,"o":""},"í":{"ha":0,"x_min":0,"x_max":0,"o":""},"ɨ":{"ha":0,"x_min":0,"x_max":0,"o":""},"ĭ":{"ha":0,"x_min":0,"x_max":0,"o":""},"ǐ":{"ha":0,"x_min":0,"x_max":0,"o":""},"î":{"ha":0,"x_min":0,"x_max":0,"o":""},"ȉ":{"ha":0,"x_min":0,"x_max":0,"o":""},"ï":{"ha":0,"x_min":0,"x_max":0,"o":""},"ḯ":{"ha":0,"x_min":0,"x_max":0,"o":""},"ị":{"ha":0,"x_min":0,"x_max":0,"o":""},"ì":{"ha":0,"x_min":0,"x_max":0,"o":""},"ỉ":{"ha":0,"x_min":0,"x_max":0,"o":""},"ȋ":{"ha":0,"x_min":0,"x_max":0,"o":""},"ī":{"ha":0,"x_min":0,"x_max":0,"o":""},"į":{"ha":0,"x_min":0,"x_max":0,"o":"l 0 -485 l 123 -485 l 123 -772 l 860 -772 l 860 -865 l 126 -865 "},"ĩ":{"ha":-433,"x_min":0,"x_max":0,"o":"m 121 0 "},"ḭ":{"ha":0,"x_min":0,"x_max":0,"o":""},"ĳ":{"ha":0,"x_min":0,"x_max":0,"o":""},"j":{"ha":0,"x_min":0,"x_max":0,"o":""},"ȷ":{"ha":-473,"x_min":0,"x_max":0,"o":""},"ǰ":{"ha":0,"x_min":0,"x_max":0,"o":""},"ĵ":{"ha":0,"x_min":0,"x_max":0,"o":""},"ʝ":{"ha":-364,"x_min":0,"x_max":0,"o":"m 133 -277 b 315 -77 250 -277 315 -182 l 315 -24 l 442 -26 l 442 61 l 315 61 l 315 736 l 222 736 l 222 61 l 142 61 b -47 -109 38 62 -47 -7 b 133 -277 -47 -202 26 -277 "},"ɟ":{"ha":0,"x_min":0,"x_max":0,"o":""},"ʄ":{"ha":-205,"x_min":0,"x_max":0,"o":"m 228 806 l 228 94 l 77 94 l 77 22 l 228 22 l 228 -71 l 320 -71 l 320 81 l 392 81 l 392 -71 l 1104 -71 b 1236 54 1187 -71 1236 -22 b 1180 -151 1236 76 1261 -11 z "},"k":{"ha":-74,"x_min":0,"x_max":0,"o":""},"ḱ":{"ha":0,"x_min":0,"x_max":0,"o":""},"ǩ":{"ha":0,"x_min":0,"x_max":0,"o":""},"ķ":{"ha":0,"x_min":0,"x_max":0,"o":""},"ḳ":{"ha":0,"x_min":0,"x_max":0,"o":""},"ĸ":{"ha":0,"x_min":0,"x_max":0,"o":""},"ƙ":{"ha":-83,"x_min":0,"x_max":0,"o":"m 555 0 l 666 0 l 342 422 l 642 736 l 524 736 l 199 392 l 193 392 l 193 812 l 193 890 l 232 890 l 232 983 l 491 983 l 579 1078 z "},"ḵ":{"ha":0,"x_min":0,"x_max":0,"o":""},"ʞ":{"ha":-74,"x_min":0,"x_max":0,"o":"m 593 736 l 499 736 l 499 454 l 416 376 l 132 736 l 15 736 l 347 316 l 34 0 l 151 0 l 490 342 l 499 342 l 499 -245 l 593 -245 z "},"l":{"ha":-474,"x_min":0,"x_max":0,"o":""},"ĺ":{"ha":0,"x_min":0,"x_max":0,"o":""},"ƛ":{"ha":52,"x_min":0,"x_max":0,"o":"m 423 939 l 350 909 b 199 997 321 966 279 996 b 133 989 179 997 146 993 l 136 906 b 174 910 146 909 163 910 b 247 867 204 910 228 899 l 115 814 l 115 724 l 281 789 l 320 690 l 61 0 l 178 0 l 374 548 l 536 122 b 690 -11 579 9 617 -11 b 739 -3 709 -11 728 -7 l 732 83 b 708 81 726 81 715 81 b 637 156 677 81 659 98 l 381 830 l 423 846 z "},"ƚ":{"ha":-474,"x_min":0,"x_max":0,"o":"m 193 982 l 99 982 l 99 543 l -372 543 l -372 636 l 99 636 z "},"ɬ":{"ha":-252,"x_min":0,"x_max":0,"o":"m 202 408 l 283 410 "},"ľ":{"ha":0,"x_min":0,"x_max":0,"o":""},"ḽ":{"ha":0,"x_min":0,"x_max":0,"o":""},"ļ":{"ha":0,"x_min":0,"x_max":0,"o":""},"ȴ":{"ha":-353,"x_min":0,"x_max":0,"o":"m 102 982 l 102 -37 b 76 -66 93 -46 85 -56 l -42 -194 l 19 -254 l 114 -151 b 297 -274 138 -219 199 -274 b 484 -106 410 -274 484 -205 b 304 62 484 -7 407 62 b 194 34 268 62 231 53 l 194 982 z m 194 -99 l 194 -61 b 293 -22 224 -36 256 -22 b 391 -106 350 -22 391 -56 b 298 -194 391 -156 351 -194 b 194 -99 241 -194 194 -152 z "},"ŀ":{"ha":0,"x_min":0,"x_max":0,"o":""},"ḷ":{"ha":0,"x_min":0,"x_max":0,"o":""},"ḹ":{"ha":0,"x_min":0,"x_max":0,"o":""},"ǉ":{"ha":0,"x_min":0,"x_max":0,"o":""},"ḻ":{"ha":0,"x_min":0,"x_max":0,"o":""},"ɫ":{"ha":-409,"x_min":0,"x_max":0,"o":"m 227 982 l 133 982 l 133 567 b 88 574 119 571 105 574 b -54 425 10 574 -51 513 b -14 418 -39 425 -25 422 l -14 -71 l 80 -71 l 80 365 b 125 358 93 361 107 358 b 231 355 200 358 263 355 b NaN NaN 201 355 161 NaN b NaN NaN NaN NaN NaN NaN z "},"ɭ":{"ha":-448,"x_min":0,"x_max":0,"o":"m 193 -94 l 193 0 l 194 0 l 194 982 l 100 982 l 100 3 l 99 3 l 99 -94 b 52 -53 -20 -94 52 -156 b 90 -8 52 -33 12 -8 z "},"ł":{"ha":-482,"x_min":0,"x_max":0,"o":"m 296 605 l 189 563 l 189 982 l 95 982 l 95 525 l -12 481 l -12 411 l 95 454 l 95 0 l 189 0 l 189 491 l 296 533 z "},"ɮ":{"ha":44,"x_min":0,"x_max":0,"o":"m 119 982 l 119 1 l 212 1 l 212 650 l 587 650 l 587 643 l 332 330 l 332 251 l 408 251 b 643 24 547 251 643 167 b 418 -206 643 -114 553 -206 b 240 -137 343 -206 282 -180 l 175 -208 b 416 -293 233 -260 317 -293 b 738 24 606 -293 738 -165 b 445 327 738 206 618 311 l 445 332 l 716 666 l 716 736 l 212 736 l 212 982 z "},"m":{"ha":375,"x_min":0,"x_max":0,"o":""},"ḿ":{"ha":0,"x_min":0,"x_max":0,"o":""},"ṁ":{"ha":0,"x_min":0,"x_max":0,"o":""},"ṃ":{"ha":0,"x_min":0,"x_max":0,"o":""},"ɱ":{"ha":375,"x_min":0,"x_max":0,"o":"m 948 492 l 948 -87 b 842 -195 948 -167 905 -195 b 803 -190 827 -195 814 -193 l 803 -269 b 864 -275 819 -275 841 -275 b 1040 -87 966 -275 1040 -209 l 1040 0 l 1042 0 l 1042 494 b 818 746 1042 659 955 746 b 600 613 711 746 633 694 l 594 613 b 395 746 562 696 495 746 b 197 623 298 746 227 700 z "},"ɯ":{"ha":375,"x_min":0,"x_max":0,"o":"m 1042 736 l 1131 736 z "},"ɰ":{"ha":375,"x_min":0,"x_max":0,"o":"m 951 -277 l 1040 -277 l 1040 0 l 1042 0 l 1042 736 l 1040 736 z "},"n":{"ha":-3,"x_min":0,"x_max":0,"o":""},"ń":{"ha":0,"x_min":0,"x_max":0,"o":""},"ň":{"ha":0,"x_min":0,"x_max":0,"o":""},"ṋ":{"ha":0,"x_min":0,"x_max":0,"o":""},"ņ":{"ha":0,"x_min":0,"x_max":0,"o":""},"ȵ":{"ha":241,"x_min":0,"x_max":0,"o":"m 570 92 l 570 69 l 547 42 l 429 -87 l 488 -145 l 582 -42 b 766 -167 606 -111 667 -167 b 954 1 878 -167 954 -96 b 773 170 954 102 876 170 b 663 142 736 170 699 161 l 663 476 l 286 476 z m 378 393 l 378 433 b 477 472 408 458 440 472 b 574 387 534 472 574 437 b 481 298 574 336 536 298 b 378 393 426 298 378 340 z "},"ṅ":{"ha":0,"x_min":0,"x_max":0,"o":""},"ṇ":{"ha":0,"x_min":0,"x_max":0,"o":""},"ǌ":{"ha":0,"x_min":0,"x_max":0,"o":""},"ƞ":{"ha":-3,"x_min":0,"x_max":0,"o":""},"ɲ":{"ha":16,"x_min":0,"x_max":0,"o":"m 117 0 l 117 -87 b 12 -195 117 -167 75 -195 b -28 -190 -3 -195 -18 -193 l -28 -269 b 33 -275 -12 -275 11 -275 b 210 -87 136 -275 210 -209 l 210 0 l 212 0 l 212 457 z "},"ṉ":{"ha":0,"x_min":0,"x_max":0,"o":""},"ɳ":{"ha":-26,"x_min":0,"x_max":0,"o":"m 663 -94 l 663 476 l 197 476 l 197 475 l 100 475 b 156 412 -19 475 54 412 b NaN NaN 176 412 164 NaN b NaN NaN NaN NaN NaN NaN z "},"ñ":{"ha":0,"x_min":0,"x_max":0,"o":""},"ŋ":{"ha":-2,"x_min":0,"x_max":0,"o":"m 570 0 l 686 0 l 686 -90 l -50 -90 l -50 4 l 407 4 z "},"o":{"ha":12,"x_min":0,"x_max":0,"o":""},"ó":{"ha":0,"x_min":0,"x_max":0,"o":""},"ɵ":{"ha":0,"x_min":0,"x_max":0,"o":""},"ŏ":{"ha":0,"x_min":0,"x_max":0,"o":""},"ǒ":{"ha":0,"x_min":0,"x_max":0,"o":""},"ô":{"ha":0,"x_min":0,"x_max":0,"o":""},"ố":{"ha":0,"x_min":0,"x_max":0,"o":""},"ộ":{"ha":0,"x_min":0,"x_max":0,"o":""},"ồ":{"ha":0,"x_min":0,"x_max":0,"o":""},"ổ":{"ha":0,"x_min":0,"x_max":0,"o":""},"ỗ":{"ha":0,"x_min":0,"x_max":0,"o":""},"ȍ":{"ha":0,"x_min":0,"x_max":0,"o":""},"ö":{"ha":0,"x_min":0,"x_max":0,"o":""},"ọ":{"ha":0,"x_min":0,"x_max":0,"o":""},"ò":{"ha":0,"x_min":0,"x_max":0,"o":""},"ỏ":{"ha":0,"x_min":0,"x_max":0,"o":""},"ơ":{"ha":6,"x_min":0,"x_max":0,"o":""},"ớ":{"ha":0,"x_min":0,"x_max":0,"o":""},"ợ":{"ha":0,"x_min":0,"x_max":0,"o":""},"ờ":{"ha":0,"x_min":0,"x_max":0,"o":""},"ở":{"ha":0,"x_min":0,"x_max":0,"o":""},"ỡ":{"ha":0,"x_min":0,"x_max":0,"o":""},"ő":{"ha":0,"x_min":0,"x_max":0,"o":""},"ƣ":{"ha":24,"x_min":0,"x_max":0,"o":"m 346 72 b 138 347 220 72 138 178 l 138 366 b 343 661 138 528 197 661 b 452 628 388 661 423 648 l 452 103 b 346 72 422 84 389 72 z m 757 736 l 670 736 l 548 669 b 346 747 498 718 429 747 b 33 366 141 747 33 583 l 33 347 b 342 -14 33 149 144 -14 b 557 77 434 -14 506 22 l 557 548 l 652 605 l 652 -277 l 757 -277 z "},"ȏ":{"ha":12,"x_min":0,"x_max":0,"o":""},"ō":{"ha":0,"x_min":0,"x_max":0,"o":""},"ṓ":{"ha":0,"x_min":0,"x_max":0,"o":""},"ṑ":{"ha":0,"x_min":0,"x_max":0,"o":""},"ɷ":{"ha":264,"x_min":0,"x_max":0,"o":"m 515 747 b 49 332 188 745 49 557 b 307 -14 49 159 126 -12 b 515 148 410 -14 481 43 b 723 -14 549 43 620 -14 b 981 332 903 -14 981 159 b 515 747 981 557 842 745 z m 155 334 b 515 661 155 529 256 661 b 875 334 774 661 875 529 b 715 72 875 201 826 72 b 567 307 633 72 567 146 l 567 433 l 463 433 l 463 307 b 313 72 463 146 396 72 b 155 334 203 72 155 201 z "},"ǫ":{"ha":12,"x_min":0,"x_max":0,"o":""},"ǭ":{"ha":0,"x_min":0,"x_max":0,"o":""},"ɔ":{"ha":0,"x_min":0,"x_max":0,"o":""},"ø":{"ha":0,"x_min":0,"x_max":0,"o":""},"ǿ":{"ha":0,"x_min":0,"x_max":0,"o":""},"õ":{"ha":12,"x_min":0,"x_max":0,"o":""},"ṍ":{"ha":0,"x_min":0,"x_max":0,"o":""},"ṏ":{"ha":0,"x_min":0,"x_max":0,"o":""},"œ":{"ha":554,"x_min":0,"x_max":0,"o":"m 389 -15 b 669 157 514 -15 614 50 b 960 -15 724 50 826 -15 b 1246 167 1109 -15 1214 65 b 1040 -77 1246 43 1147 -24 b 760 96 985 31 885 96 "},"p":{"ha":25,"x_min":0,"x_max":0,"o":""},"ṕ":{"ha":0,"x_min":0,"x_max":0,"o":""},"ṗ":{"ha":0,"x_min":0,"x_max":0,"o":""},"ɸ":{"ha":24,"x_min":0,"x_max":0,"o":"m 88 374 l 88 358 b 342 -9 88 165 188 18 l 342 -260 l 446 -260 l 446 -8 b 701 358 603 18 701 165 l 701 374 b 446 742 701 568 603 715 l 446 982 l 342 982 l 342 742 b 88 374 188 715 88 568 z m 194 358 l 194 374 b 342 654 194 510 248 623 l 342 80 b 194 358 248 111 194 221 z m 446 80 l 446 652 b 595 374 541 623 595 509 l 595 358 b 446 80 595 222 541 110 z "},"ƥ":{"ha":28,"x_min":0,"x_max":0,"o":"m 98 736 l 100 736 l 100 -277 l 99 -277 b 201 -187 99 -213 133 -187 b 241 -190 213 -187 228 -189 l 241 -111 b 179 -107 229 -109 205 -107 b 8 -277 71 -107 8 -163 z m 103 -646 b -121 -945 103 -814 23 -945 b -342 -646 -262 -945 -342 -821 z "},"þ":{"ha":0,"x_min":0,"x_max":0,"o":""},"q":{"ha":0,"x_min":0,"x_max":0,"o":""},"ʠ":{"ha":100,"x_min":0,"x_max":0,"o":"m 601 736 l 601 600 l 591 600 l 182 600 l 182 693 l 1195 693 b 1297 783 1195 757 1229 783 b 1336 780 1309 783 1324 781 l 1336 859 b 1276 863 1324 861 1302 863 b 1104 693 1166 863 1104 807 z m 1104 324 b 882 24 1104 149 1023 24 b 659 324 738 24 659 156 b NaN NaN 659 491 486 NaN z "},"ɋ":{"ha":58,"x_min":0,"x_max":0,"o":"m 773 -275 b 834 -271 793 -275 817 -275 l 834 -191 b 793 -195 822 -193 807 -195 b 692 -94 731 -195 692 -171 l 692 736 l 601 736 l 601 600 l 591 600 l 365 600 b 540 418 365 480 438 418 "},"r":{"ha":-302,"x_min":0,"x_max":0,"o":""},"ŕ":{"ha":0,"x_min":0,"x_max":0,"o":""},"ř":{"ha":0,"x_min":0,"x_max":0,"o":""},"ŗ":{"ha":0,"x_min":0,"x_max":0,"o":""},"ȑ":{"ha":0,"x_min":0,"x_max":0,"o":""},"ṙ":{"ha":0,"x_min":0,"x_max":0,"o":""},"ṛ":{"ha":0,"x_min":0,"x_max":0,"o":""},"ṝ":{"ha":0,"x_min":0,"x_max":0,"o":""},"ɾ":{"ha":-402,"x_min":0,"x_max":0,"o":"m 193 0 l 193 560 b 302 666 193 643 239 666 b 342 662 313 666 328 663 l 342 743 b 279 751 324 749 298 751 b 99 566 179 751 99 692 l 99 0 z "},"ɿ":{"ha":-410,"x_min":0,"x_max":0,"o":"m 258 -275 l 258 570 b 76 751 258 690 178 751 b 15 743 58 751 33 747 l 15 662 b 54 665 28 663 43 665 b 164 564 118 665 164 640 l 164 -275 z "},"ȓ":{"ha":0,"x_min":0,"x_max":0,"o":""},"ṟ":{"ha":-302,"x_min":0,"x_max":0,"o":"m 252 -861 l -157 -861 l -157 -940 l 252 -940 z "},"ɹ":{"ha":-302,"x_min":0,"x_max":0,"o":"m 365 736 l 271 736 l 271 263 l 361 263 z "},"ɺ":{"ha":-318,"x_min":0,"x_max":0,"o":"m 60 94 l 60 -4 b 111 -12 71 -8 95 -12 b 283 90 190 -12 248 26 l 286 0 l 388 0 l 388 1013 l 282 1013 l 282 202 b 115 88 256 132 201 88 b 60 94 95 88 80 90 z "},"ɻ":{"ha":-288,"x_min":0,"x_max":0,"o":"m 449 -279 b 505 -274 468 -279 490 -278 l 505 -201 b 471 -203 495 -203 480 -203 b 363 -99 403 -203 363 -165 l 363 0 l 365 0 l 365 736 l 271 736 l 271 263 l 270 263 l 270 163 b 445 -16 270 49 345 -16 z "},"s":{"ha":-92,"x_min":0,"x_max":0,"o":""},"ś":{"ha":0,"x_min":0,"x_max":0,"o":""},"ṥ":{"ha":0,"x_min":0,"x_max":0,"o":""},"š":{"ha":0,"x_min":0,"x_max":0,"o":""},"ṧ":{"ha":0,"x_min":0,"x_max":0,"o":""},"ş":{"ha":0,"x_min":0,"x_max":0,"o":"l -92 18 l -212 100 l -282 237 l -292 222 l -361 244 b -127 457 -213 256 -127 341 b -313 652 -127 556 -188 621 "},"ŝ":{"ha":0,"x_min":0,"x_max":0,"o":""},"ș":{"ha":0,"x_min":0,"x_max":0,"o":""},"ṡ":{"ha":0,"x_min":0,"x_max":0,"o":""},"ṣ":{"ha":0,"x_min":0,"x_max":0,"o":""},"ṩ":{"ha":0,"x_min":0,"x_max":0,"o":""},"ß":{"ha":24,"x_min":0,"x_max":0,"o":"m 117 732 l 117 0 l 209 0 l 209 730 b 392 909 209 838 283 909 b 570 734 500 909 570 836 b 385 544 570 632 498 544 l 338 544 l 338 457 l 403 457 b 624 266 538 457 624 378 b 433 87 624 160 549 87 l 334 87 l 334 0 l 431 0 b 718 267 604 0 718 110 b 499 510 718 403 632 491 l 499 517 b 663 746 598 551 663 633 b 391 996 663 901 548 996 b 117 732 228 996 117 895 z "},"ẛ":{"ha":-311,"x_min":0,"x_max":0,"o":"m 153 842 l 153 0 l 245 0 l 245 823 "},"ẜ":{"ha":-341,"x_min":0,"x_max":0,"o":"m 39 528 l 123 560 l 123 0 l 216 0 l 216 597 l 338 644 l 338 736 l 216 689 l 216 823 l 216 633 l 132 600 z "},"ʂ":{"ha":-92,"x_min":0,"x_max":0,"o":"m 65 176 l 64 -23 b 239 -205 64 -142 136 -205 b 298 -198 258 -205 282 -202 l 298 -118 b 259 -121 288 -121 270 -121 b 144 -23 197 -121 144 -100 l 144 39 z "},"ſ":{"ha":-348,"x_min":0,"x_max":0,"o":"m 205 0 l 205 807 b 330 941 205 891 252 941 b 384 935 350 941 368 940 l 397 1015 b 313 1027 370 1023 340 1027 b 99 807 184 1027 99 948 l 99 0 z "},"t":{"ha":-303,"x_min":0,"x_max":0,"o":""},"ŧ":{"ha":-299,"x_min":0,"x_max":0,"o":"m 38 419 l 38 533 l -208 533 l -208 755 l -41 755 l -41 910 l 38 910 l 38 755 l 214 755 l 214 662 l 47 662 l 47 548 z "},"ť":{"ha":0,"x_min":0,"x_max":0,"o":""},"ʨ":{"ha":314,"x_min":0,"x_max":0,"o":"m 396 736 l 240 736 l 240 913 l 148 913 l 148 441 b 338 244 148 313 232 244 b 522 320 407 245 468 276 b 735 240 576 269 649 240 b 994 446 880 240 994 324 b 814 612 994 540 928 612 b 534 454 700 612 615 542 b 499 623 511 501 499 558 b 734 918 499 799 595 918 b 924 772 838 918 906 853 l 1017 772 b 732 1002 997 909 883 1002 b 406 620 538 1002 406 842 b 467 387 406 530 427 450 b 339 328 425 351 382 328 b 240 441 286 328 240 363 l 240 913 l 396 913 z m 586 382 l 597 395 b 810 529 667 477 727 529 b 907 446 873 529 907 496 b 736 323 907 370 827 323 b 586 382 677 323 625 344 z "},"ţ":{"ha":0,"x_min":0,"x_max":0,"o":"b -150 -248 0 -303 -92 -248 b -104 NaN -81 -248 -104 NaN l -121 NaN l -117 NaN b -52 NaN -88 NaN -66 NaN l -52 NaN l 102 NaN "},"ṱ":{"ha":0,"x_min":0,"x_max":0,"o":""},"ț":{"ha":0,"x_min":0,"x_max":0,"o":""},"ȶ":{"ha":-149,"x_min":0,"x_max":0,"o":"m 179 913 l 179 480 b 38 321 138 440 93 388 l 98 262 b 190 369 132 304 163 339 b 374 240 212 297 273 240 b 564 412 490 240 564 313 b 381 576 564 505 498 576 b 271 549 341 576 307 568 l 271 913 l 427 913 l 427 991 l 271 991 l 271 1168 z m 271 415 l 271 449 b 370 494 311 480 341 494 b 471 408 439 494 471 454 b 376 320 471 354 427 320 b 271 415 316 320 271 362 z "},"ẗ":{"ha":0,"x_min":0,"x_max":0,"o":""},"ṫ":{"ha":0,"x_min":0,"x_max":0,"o":""},"ṭ":{"ha":0,"x_min":0,"x_max":0,"o":""},"ʧ":{"ha":-121,"x_min":0,"x_max":0,"o":"m 122 883 l 122 711 l 0 711 l 0 631 l 122 631 l 122 186 b 286 -14 122 62 167 -14 b 363 -5 315 -14 342 -10 l 363 -56 b 239 -187 363 -138 316 -187 b 171 -182 216 -187 190 -186 l 167 -267 b 247 -277 191 -273 221 -277 b 469 -56 384 -277 469 -195 l 469 806 b 594 937 469 888 518 937 b 661 932 616 937 642 936 l 667 1017 b 585 1027 640 1023 612 1027 b 363 806 450 1027 363 945 l 363 711 l 228 711 l 228 883 z m 228 186 l 228 631 l 363 631 l 363 81 b 311 76 347 79 327 76 b 228 186 251 76 228 106 z "},"ƭ":{"ha":-360,"x_min":0,"x_max":0,"o":"m 250 720 l 250 845 b 347 951 250 924 285 951 b 388 945 358 951 374 949 l 388 1020 b 326 1027 369 1024 345 1027 b 144 845 224 1027 144 966 l 144 720 l 23 720 l 23 640 l 144 640 l 144 186 b 307 -14 144 47 214 -14 b 391 -1 345 -14 373 -7 l 391 84 b 335 76 377 81 355 76 b 250 186 286 76 250 106 l 250 640 l 387 640 l 387 720 z "},"ṯ":{"ha":0,"x_min":0,"x_max":0,"o":""},"ƽ":{"ha":-109,"x_min":0,"x_max":0,"o":"m 208 320 b 355 396 233 363 281 397 b 513 236 457 396 513 332 b 346 76 513 141 457 76 b 187 209 251 76 186 129 l 85 198 b 346 -11 85 61 220 -11 b 617 237 533 -11 617 95 b 373 481 617 392 524 486 b 227 434 319 480 258 460 l 248 623 l 585 623 l 585 713 l 39 713 l 39 623 l 149 623 l 115 328 z "},"ƅ":{"ha":216,"x_min":0,"x_max":0,"o":"m 292 0 l -34 0 l -34 -87 l 199 -87 "},"ƨ":{"ha":-92,"x_min":0,"x_max":0,"o":"m 73 553 l 165 553 b 327 666 182 623 236 666 b 494 541 426 667 494 613 b 362 423 494 484 452 445 l 250 396 b 64 201 125 365 64 300 b 339 -15 64 75 165 -15 b 612 187 496 -15 593 57 l 515 187 b 340 66 500 107 441 66 b 157 195 229 66 157 117 b 285 315 157 254 198 294 l 397 342 b 587 537 521 370 587 439 b 327 747 587 659 481 747 b 73 553 182 746 90 669 z "},"ƫ":{"ha":0,"x_min":0,"x_max":0,"o":"b -180 -203 0 -292 -117 -203 b -92 NaN -87 -203 -92 NaN l -92 NaN b -198 NaN -92 NaN -136 NaN b -237 NaN -213 NaN -228 NaN l -237 NaN b -176 NaN -222 NaN -198 NaN b -1 NaN -75 NaN -1 NaN l -1 NaN l -60 NaN l -73 NaN b -180 NaN -129 NaN -180 NaN l -180 NaN l -26 NaN "},"ʈ":{"ha":-295,"x_min":0,"x_max":0,"o":"m 396 736 l 240 736 l 240 913 l 148 913 l 148 148 b 339 -37 148 26 244 -37 b 418 -23 377 -37 401 -30 l 399 60 b 349 53 387 56 372 53 b 240 170 292 53 240 79 l 240 913 l 396 913 z "},"ʦ":{"ha":124,"x_min":0,"x_max":0,"o":"m 151 895 l 151 736 l 27 736 l 27 656 l 151 656 l 151 199 b 309 0 151 60 220 0 l 593 0 b 863 201 755 0 863 73 b 608 410 863 311 785 369 b 442 534 491 435 442 464 b 590 662 442 610 496 662 b 747 505 696 662 747 595 l 853 505 b 593 747 852 650 754 747 b 505 736 561 747 532 743 l 256 736 l 256 895 z m 757 195 b 593 90 757 119 699 90 l 339 90 b 256 199 292 90 256 118 l 256 656 l 378 656 b 338 533 352 623 338 581 b 593 321 338 416 425 358 b 757 195 727 293 757 248 z "},"ʇ":{"ha":-303,"x_min":0,"x_max":0,"o":"m 66 0 l 221 0 l 221 -176 l 315 -176 l 315 0 l 425 0 l 425 79 l 315 79 l 315 563 b 122 747 315 685 218 747 b 53 743 91 747 68 745 l 53 656 b 114 659 68 656 95 659 b 221 540 170 659 221 633 l 221 79 l 66 79 z "},"u":{"ha":-7,"x_min":0,"x_max":0,"o":""},"ú":{"ha":0,"x_min":0,"x_max":0,"o":""},"ʉ":{"ha":22,"x_min":0,"x_max":0,"o":"m 800 464 l 680 464 l 680 736 l 587 736 l 587 464 l 213 464 l 213 736 l 119 736 l 119 464 l -12 464 l -12 391 l 119 391 l 119 260 l -3 260 l -3 353 l 388 353 l 388 473 z m 175 368 l 175 491 l 549 491 z "},"ŭ":{"ha":0,"x_min":0,"x_max":0,"o":""},"ǔ":{"ha":0,"x_min":0,"x_max":0,"o":""},"û":{"ha":0,"x_min":0,"x_max":0,"o":""},"ṷ":{"ha":0,"x_min":0,"x_max":0,"o":""},"ȕ":{"ha":0,"x_min":0,"x_max":0,"o":""},"ü":{"ha":0,"x_min":0,"x_max":0,"o":""},"ǘ":{"ha":0,"x_min":0,"x_max":0,"o":""},"ṳ":{"ha":-7,"x_min":0,"x_max":0,"o":"m 270 0 z "},"ǚ":{"ha":0,"x_min":0,"x_max":0,"o":""},"ǜ":{"ha":0,"x_min":0,"x_max":0,"o":""},"ǖ":{"ha":0,"x_min":0,"x_max":0,"o":""},"ụ":{"ha":0,"x_min":0,"x_max":0,"o":""},"ù":{"ha":0,"x_min":0,"x_max":0,"o":""},"ủ":{"ha":0,"x_min":0,"x_max":0,"o":""},"ư":{"ha":21,"x_min":0,"x_max":0,"o":""},"ứ":{"ha":0,"x_min":0,"x_max":0,"o":""},"ự":{"ha":0,"x_min":0,"x_max":0,"o":""},"ừ":{"ha":0,"x_min":0,"x_max":0,"o":""},"ử":{"ha":0,"x_min":0,"x_max":0,"o":""},"ữ":{"ha":0,"x_min":0,"x_max":0,"o":""},"ű":{"ha":0,"x_min":0,"x_max":0,"o":""},"ȗ":{"ha":0,"x_min":0,"x_max":0,"o":""},"ū":{"ha":0,"x_min":0,"x_max":0,"o":""},"ṻ":{"ha":0,"x_min":0,"x_max":0,"o":""},"ǹ":{"ha":0,"x_min":0,"x_max":0,"o":""},"ȟ":{"ha":0,"x_min":0,"x_max":0,"o":""},"ȡ":{"ha":184,"x_min":0,"x_max":0,"o":"m 597 127 l 597 -41 l 575 -65 l 456 -195 l 515 -255 l 610 -155 b 793 -274 635 -222 695 -274 b 981 -107 906 -274 981 -205 b 800 61 981 -8 903 61 b 692 34 764 61 728 52 l 692 982 l 598 982 l 598 600 l 591 600 l 654 600 l 654 571 l 594 571 l 594 656 l 458 656 l 458 666 l 453 666 z m 231 606 b -26 340 56 606 -26 481 z m 286 186 l 286 206 b 397 252 321 240 357 256 b 483 165 448 248 483 213 b 389 77 483 117 444 77 b 286 186 334 77 286 118 z "},"ȣ":{"ha":48,"x_min":0,"x_max":0,"o":"m 393 490 l 420 490 b 669 283 574 490 669 420 b 418 72 669 144 571 72 l 395 72 b 145 282 241 72 145 144 b 393 490 145 420 239 490 z m 427 575 l 387 575 b 145 762 250 575 145 624 b 274 944 145 863 190 916 l 274 1024 b 39 762 140 1015 39 922 b 190 530 39 644 98 570 b 39 282 96 485 39 401 b 395 -14 39 85 187 -14 l 418 -14 b 774 283 627 -14 774 85 b 624 530 774 402 718 485 b 774 762 715 570 774 644 b 533 1027 774 924 671 1017 l 533 945 b 669 762 621 918 669 864 b 427 575 669 624 566 575 z "},"ȧ":{"ha":0,"x_min":0,"x_max":0,"o":""},"ȩ":{"ha":0,"x_min":0,"x_max":0,"o":""},"ȫ":{"ha":0,"x_min":0,"x_max":0,"o":""},"ȭ":{"ha":0,"x_min":0,"x_max":0,"o":""},"ȯ":{"ha":0,"x_min":0,"x_max":0,"o":""},"ȱ":{"ha":12,"x_min":0,"x_max":0,"o":""},"ȳ":{"ha":0,"x_min":0,"x_max":0,"o":""},"ȸ":{"ha":412,"x_min":0,"x_max":0,"o":"m 1126 359 l 1126 370 b 845 747 1126 600 1017 747 b 642 643 757 747 689 710 l 642 982 l 536 982 l 536 643 b 332 747 488 710 420 747 b 52 370 160 747 52 600 l 52 359 b 335 -14 52 138 161 -14 b 538 96 423 -14 491 25 l 545 0 z m 439 11 l 439 107 l 529 107 l 529 96 b 335 -189 529 -69 468 -189 b 151 -64 248 -189 189 -138 l 151 275 b 334 395 187 345 248 395 b 529 107 468 395 529 274 z m -334 96 l -334 107 b -138 395 -334 274 -273 395 b 45 274 -52 395 9 345 l 45 -62 b -140 -189 7 -137 -52 -189 b -334 96 -274 -189 -334 -69 z "},"ȹ":{"ha":412,"x_min":0,"x_max":0,"o":"m 536 -274 l 536 -168 l 899 -168 l 899 -157 b 618 220 899 72 791 220 b 412 111 529 220 460 181 l 406 209 l 320 209 l 312 111 b 106 220 264 181 195 220 b -175 -157 -66 220 -175 72 l -175 -168 b 109 -541 -175 -389 -65 -541 b 309 -435 195 -541 262 -504 z m -69 -168 l -69 -157 b 126 130 -69 9 -8 130 b 309 9 212 130 273 80 l 309 -327 b 125 -453 272 -401 212 -453 b -69 -168 -9 -453 -69 -334 z m 793 -157 l 793 -168 b 600 -453 793 -334 732 -453 b 415 -328 513 -453 453 -402 l 415 11 b 598 130 452 81 513 130 b 793 -157 732 130 793 9 z "},"ȼ":{"ha":-25,"x_min":0,"x_max":0,"o":"m 675 982 l 600 982 l 496 732 b 396 747 465 742 431 747 b 69 365 201 747 69 587 b 210 43 69 225 121 109 l 77 -277 l 155 -277 l 273 9 b 397 -15 310 -7 352 -15 b 681 216 552 -15 661 83 b 589 236 647 216 616 222 l 810 768 b 871 665 841 741 862 704 l 963 665 b 844 850 952 745 908 810 z m 445 515 b 681 811 445 692 541 811 b 747 802 705 811 726 808 l 529 278 b 445 515 476 330 445 414 z "},"ȿ":{"ha":0,"x_min":0,"x_max":0,"o":"b -178 47 -96 7 -140 22 b NaN NaN -208 170 -424 NaN l NaN NaN b NaN NaN NaN NaN NaN NaN b NaN NaN NaN NaN NaN NaN l NaN NaN b NaN NaN NaN NaN NaN NaN b NaN NaN NaN NaN NaN NaN b NaN NaN NaN NaN NaN NaN b NaN NaN NaN NaN NaN NaN b NaN NaN NaN NaN NaN NaN "},"ɀ":{"ha":-66,"x_min":0,"x_max":0,"o":"m 225 85 l 225 61 l 643 61 l 222 -511 l 222 -590 l 355 -590 b 753 -865 575 -590 585 -865 b 871 -815 804 -865 844 -838 l 838 -750 b 760 -780 815 -768 791 -780 b 366 -505 644 -780 616 -505 z "},"ɂ":{"ha":-78,"x_min":0,"x_max":0,"o":"m 83 464 l 189 464 b 349 661 189 589 247 661 b 500 468 454 661 500 582 b 350 285 500 357 456 285 l 301 285 l 301 0 l 407 0 l 407 221 b 606 472 547 239 605 337 b 350 747 605 650 509 747 b 83 464 191 747 84 647 z "},"ɇ":{"ha":3,"x_min":0,"x_max":0,"o":"m 675 982 l 600 982 l 495 731 b 393 747 463 742 428 747 b 239 725 252 747 304 634 l 105 404 l 182 404 l 302 691 b 435 665 341 674 386 665 b 721 847 584 665 688 745 l 622 847 b 435 748 596 801 536 748 b 333 768 397 748 363 755 l 439 1021 l 736 1021 l 736 1064 b 587 1381 736 1223 673 1326 z m 189 1021 l 361 1021 l 273 808 b 189 1021 221 855 191 928 z m 191 1101 b 422 1343 198 1234 289 1343 b 492 1333 447 1343 469 1340 l 394 1101 z m 471 1101 l 554 1300 b 641 1101 608 1256 641 1185 z "},"ɉ":{"ha":0,"x_min":0,"x_max":0,"o":""},"ɍ":{"ha":-302,"x_min":0,"x_max":0,"o":"m 99 0 l 193 0 l 193 317 l 277 317 l 277 -30 z "},"ɏ":{"ha":-48,"x_min":0,"x_max":0,"o":"m 667 528 l 601 528 l 677 736 l 578 736 l 505 528 l 214 528 l 141 736 l 41 736 l 117 528 l 49 528 l 49 454 l 144 454 b -149 623 312 454 -149 555 b NaN 718 -149 677 -41 718 l NaN 1286 l NaN 1286 z m NaN 1286 l NaN 1286 l NaN 951 l NaN 951 z "},"ʙ":{"ha":0,"x_min":0,"x_max":0,"o":""},"ʜ":{"ha":0,"x_min":0,"x_max":0,"o":"l -1 0 l -1 92 l 736 92 l 736 0 l 410 0 l 410 -380 "},"ʫ":{"ha":149,"x_min":0,"x_max":0,"o":"m 854 85 l 420 85 l 842 662 l 842 736 l 190 736 l 190 982 l 98 982 l 98 0 l 190 0 l 190 651 l 727 651 l 304 79 l 304 0 l 854 0 z "},"ʬ":{"ha":-238,"x_min":0,"x_max":0,"o":"m 81 962 l -3 962 l 107 575 l 179 575 l 264 857 l 347 575 l 419 575 l 530 962 l 448 962 l 384 682 l 298 962 l 229 962 l 146 684 z m 81 385 l -3 385 l 107 0 l 179 0 l 264 281 l 347 0 l 419 0 l 530 385 l 448 385 l 384 107 l 298 385 l 229 385 l 146 109 z "},"ẝ":{"ha":-333,"x_min":0,"x_max":0,"o":"m 229 0 l 229 751 l 380 751 l 380 833 l 232 833 b 355 939 241 899 287 939 b 415 932 374 939 397 936 l 420 1019 b 345 1027 397 1024 370 1027 b 125 833 218 1027 135 956 l 15 833 l 15 751 l 123 751 l 123 0 z "},"ẟ":{"ha":-102,"x_min":0,"x_max":0,"o":"m 58 841 b 203 656 58 757 110 694 l 203 654 b -22 342 75 623 -22 500 l -22 331 b 290 -14 -22 133 96 -14 b 601 331 483 -14 601 133 l 601 342 b 327 701 601 514 517 631 b 165 841 197 750 165 795 b 304 939 165 901 214 939 b 480 901 369 939 437 918 l 480 991 b 301 1027 423 1015 369 1027 b 58 841 149 1027 58 955 z m 84 332 l 84 343 b 294 606 84 486 153 598 b 495 343 422 568 495 460 l 495 332 b 290 72 495 186 425 72 b 84 332 155 72 84 186 z "},"ỻ":{"ha":-125,"x_min":0,"x_max":0,"o":"m 612 857 l 465 857 l 465 982 l 372 982 l 372 857 l 250 857 l 250 982 l 157 982 l 157 857 l 28 857 l 28 773 l 157 773 l 157 0 l 250 0 l 250 773 l 372 773 l 372 0 l 465 0 l 465 773 l 612 773 z "},"ỽ":{"ha":-106,"x_min":0,"x_max":0,"o":"m 350 637 l 320 551 b 518 285 430 524 518 433 b 335 73 518 156 448 73 b 142 369 229 73 142 179 l 142 410 b 435 948 142 677 250 846 l 397 1025 b 37 412 152 897 37 689 l 37 374 b 336 -14 37 170 136 -14 b 623 293 519 -14 623 110 b 350 637 623 463 510 598 z "},"ỿ":{"ha":58,"x_min":0,"x_max":0,"o":"m 267 736 l 149 736 l 372 113 b 274 136 342 127 309 136 b 62 -76 157 136 62 39 b 274 -289 62 -194 157 -289 b 479 -136 377 -288 448 -228 l 769 736 l 652 736 l 461 137 l 442 201 z m 275 -193 b 161 -76 212 -193 161 -148 b 275 42 161 -3 212 42 b 388 -76 338 42 388 -3 b 275 -193 388 -148 338 -193 z "},"ↄ":{"ha":0,"x_min":0,"x_max":0,"o":""},"ų":{"ha":-7,"x_min":0,"x_max":0,"o":"m 567 285 l 448 285 l 448 209 l 396 209 l 396 176 l 339 176 l 339 117 l 1076 117 l 1076 24 z "},"ʊ":{"ha":47,"x_min":0,"x_max":0,"o":"m 407 72 b 174 282 224 72 174 183 b 271 598 174 422 271 490 b 60 747 271 654 241 747 l 60 661 b 167 586 107 661 167 648 b 68 266 165 484 69 430 b 407 -14 68 130 138 -14 b 745 266 675 -14 745 130 b 648 586 745 430 648 484 b 754 661 647 648 707 661 l 754 747 b 543 598 571 747 543 654 b 639 282 543 490 639 422 b 407 72 639 183 589 72 z "},"ů":{"ha":0,"x_min":0,"x_max":0,"o":""},"ũ":{"ha":0,"x_min":0,"x_max":0,"o":""},"ṹ":{"ha":0,"x_min":0,"x_max":0,"o":""},"ṵ":{"ha":0,"x_min":0,"x_max":0,"o":""},"v":{"ha":-48,"x_min":0,"x_max":0,"o":""},"ṿ":{"ha":0,"x_min":0,"x_max":0,"o":""},"ʋ":{"ha":-79,"x_min":0,"x_max":0,"o":"m 343 -14 b 604 286 500 -14 604 75 l 604 575 b 479 747 604 663 589 747 b 340 718 433 747 384 734 l 353 635 b 439 651 385 646 412 651 b 498 576 479 651 498 631 l 498 286 b 343 75 498 123 437 75 b 189 286 252 75 189 123 l 189 736 l 84 736 l 84 286 b 343 -14 84 75 189 -14 z "},"ṽ":{"ha":0,"x_min":0,"x_max":0,"o":""},"ʌ":{"ha":-48,"x_min":0,"x_max":0,"o":"m 41 0 l 140 0 l 355 616 l 362 616 l 576 0 l 677 0 l 408 736 l 309 736 z "},"w":{"ha":302,"x_min":0,"x_max":0,"o":""},"ẃ":{"ha":0,"x_min":0,"x_max":0,"o":""},"ŵ":{"ha":0,"x_min":0,"x_max":0,"o":""},"ẅ":{"ha":0,"x_min":0,"x_max":0,"o":""},"ẇ":{"ha":0,"x_min":0,"x_max":0,"o":""},"ẉ":{"ha":0,"x_min":0,"x_max":0,"o":""},"ẁ":{"ha":0,"x_min":0,"x_max":0,"o":""},"ẘ":{"ha":0,"x_min":0,"x_max":0,"o":""},"ʍ":{"ha":302,"x_min":0,"x_max":0,"o":"m 804 736 l 709 736 l 538 141 l 529 141 l 357 736 l 263 736 l 41 0 l 138 0 l 309 597 l 315 597 l 484 0 l 582 0 l 751 598 l 758 598 l 929 0 l 1027 0 z "},"ƿ":{"ha":36,"x_min":0,"x_max":0,"o":"m 102 -274 l 208 -274 l 208 -106 b 693 362 519 -13 693 105 l 693 393 b 414 747 693 605 593 747 b 205 644 322 747 254 711 l 198 736 l 102 736 z m 208 -19 l 208 547 b 385 658 245 612 301 658 b 587 393 521 658 587 544 l 587 361 b 208 -19 587 155 445 49 z "},"x":{"ha":-73,"x_min":0,"x_max":0,"o":""},"ẍ":{"ha":0,"x_min":0,"x_max":0,"o":""},"ẋ":{"ha":0,"x_min":0,"x_max":0,"o":""},"y":{"ha":-48,"x_min":0,"x_max":0,"o":""},"ý":{"ha":0,"x_min":0,"x_max":0,"o":""},"ŷ":{"ha":0,"x_min":0,"x_max":0,"o":""},"ÿ":{"ha":0,"x_min":0,"x_max":0,"o":""},"ẏ":{"ha":0,"x_min":0,"x_max":0,"o":""},"ỵ":{"ha":0,"x_min":0,"x_max":0,"o":""},"ỳ":{"ha":0,"x_min":0,"x_max":0,"o":""},"ƴ":{"ha":29,"x_min":0,"x_max":0,"o":"m 163 -277 b 366 -114 258 -277 327 -222 l 655 675 b 776 822 690 779 718 822 b 849 802 802 822 827 812 l 872 869 b 764 905 844 891 806 905 b 566 705 658 905 605 817 l 362 119 l 355 119 l 141 736 l 41 736 l 312 -7 l 286 -79 b 103 -180 245 -189 189 -206 l 79 -262 b 163 -277 96 -269 127 -277 z "},"ỷ":{"ha":0,"x_min":0,"x_max":0,"o":""},"ẙ":{"ha":0,"x_min":0,"x_max":0,"o":""},"ỹ":{"ha":0,"x_min":0,"x_max":0,"o":""},"ʎ":{"ha":-48,"x_min":0,"x_max":0,"o":"m 560 1013 b 351 850 460 1013 392 959 l 41 0 l 140 0 l 355 617 l 362 617 l 576 0 l 677 0 l 406 743 l 431 815 b 566 929 471 922 518 929 l 610 928 l 612 1010 b 560 1013 600 1012 579 1013 z "},"z":{"ha":-70,"x_min":0,"x_max":0,"o":""},"ź":{"ha":0,"x_min":0,"x_max":0,"o":""},"ƶ":{"ha":-70,"x_min":0,"x_max":0,"o":"m 76 0 l 633 0 l 633 85 l 203 85 l 203 92 l 378 332 l 552 332 l 552 404 l 431 404 l 618 662 l 618 736 l 95 736 l 95 651 l 499 651 l 499 644 l 321 404 l 144 404 l 144 332 l 269 332 l 76 72 z "},"ž":{"ha":0,"x_min":0,"x_max":0,"o":""},"ẑ":{"ha":0,"x_min":0,"x_max":0,"o":""},"ʑ":{"ha":25,"x_min":0,"x_max":0,"o":"m 340 0 l 521 0 b 773 202 700 0 773 115 b 604 357 773 290 697 357 b 294 85 494 357 418 260 l 294 -8 l 713 -8 l 292 -581 l 292 -659 l 446 -659 l 397 -730 l 469 -777 z m 734 -574 l 610 -574 b 808 -391 694 -452 743 -391 b 894 -464 853 -391 894 -418 b 734 -574 894 -519 837 -574 z "},"ż":{"ha":0,"x_min":0,"x_max":0,"o":""},"ẓ":{"ha":0,"x_min":0,"x_max":0,"o":""},"ȥ":{"ha":-71,"x_min":0,"x_max":0,"o":"m 570 -118 l 570 -145 l 652 -145 l 652 -92 b 473 85 652 11 589 85 l 197 85 l 616 662 l 616 736 l 80 736 l 80 651 l 498 651 l 77 79 l 77 0 l 473 0 b 570 -118 549 0 570 -50 z "},"ẕ":{"ha":0,"x_min":0,"x_max":0,"o":""},"ʐ":{"ha":-3,"x_min":0,"x_max":0,"o":"m 76 0 l 541 0 l 541 -103 b 716 -283 541 -221 613 -283 b 777 -278 735 -283 760 -282 l 777 -198 b 738 -201 765 -201 747 -201 b 633 -103 674 -201 633 -180 l 633 85 l 203 85 l 203 92 z "},"ａ":{"ha":0,"x_min":0,"x_max":0,"o":""},"ｂ":{"ha":536,"x_min":0,"x_max":0,"o":"m 365 0 "},"ｃ":{"ha":536,"x_min":0,"x_max":0,"o":""},"ｄ":{"ha":536,"x_min":0,"x_max":0,"o":""},"ｅ":{"ha":536,"x_min":0,"x_max":0,"o":"m 670 -15 b 956 167 819 -15 924 65 b 1294 -212 956 -57 1086 -212 "},"ｆ":{"ha":536,"x_min":0,"x_max":0,"o":"m 833 736 l 670 736 l 670 823 l 670 718 l 556 718 l 556 639 l 670 639 l 670 -19 l 762 -19 l 762 639 l 925 639 z "},"ｇ":{"ha":0,"x_min":0,"x_max":0,"o":""},"ｈ":{"ha":536,"x_min":0,"x_max":0,"o":"m 460 457 l 552 457 l 552 933 l 914 933 l 914 840 l -68 840 l -68 933 z "},"ｉ":{"ha":536,"x_min":0,"x_max":0,"o":"m 606 0 "},"ｊ":{"ha":0,"x_min":0,"x_max":0,"o":""},"ｋ":{"ha":536,"x_min":0,"x_max":0,"o":"m 406 0 z "},"ｌ":{"ha":536,"x_min":0,"x_max":0,"o":""},"ｍ":{"ha":536,"x_min":0,"x_max":0,"o":"m 180 0 z "},"ｎ":{"ha":536,"x_min":0,"x_max":0,"o":"m 463 457 l 556 457 z "},"ｏ":{"ha":536,"x_min":0,"x_max":0,"o":""},"ｐ":{"ha":536,"x_min":0,"x_max":0,"o":"m 355 -277 l 266 -277 z m 358 -646 b 134 -945 358 -814 278 -945 b -87 -646 -7 -945 -87 -821 z "},"ｑ":{"ha":0,"x_min":0,"x_max":0,"o":""},"ｒ":{"ha":536,"x_min":0,"x_max":0,"o":"m 519 0 "},"ɼ":{"ha":-276,"x_min":0,"x_max":0,"o":"m 99 -277 l 193 -277 l 193 0 l 194 0 l 194 473 l -543 473 l -543 472 z "},"ɽ":{"ha":-276,"x_min":0,"x_max":0,"o":"m 274 -275 b 334 -271 294 -275 317 -275 l 334 -191 b 294 -195 323 -193 308 -195 b 193 -94 232 -195 193 -171 l 193 0 l 194 0 l 194 473 l -540 473 l -540 472 l -636 472 b -461 290 -636 353 -564 290 z "},"ｓ":{"ha":536,"x_min":0,"x_max":0,"o":""},"ｔ":{"ha":0,"x_min":0,"x_max":0,"o":""},"ｕ":{"ha":536,"x_min":0,"x_max":0,"o":"m 840 285 l 1576 285 l 1576 193 z "},"ｖ":{"ha":0,"x_min":0,"x_max":0,"o":""},"ｗ":{"ha":536,"x_min":0,"x_max":0,"o":""},"ｘ":{"ha":0,"x_min":0,"x_max":0,"o":""},"ｙ":{"ha":0,"x_min":0,"x_max":0,"o":""},"ｚ":{"ha":536,"x_min":0,"x_max":0,"o":"m 380 0 z "},"ₔ":{"ha":-197,"x_min":0,"x_max":0,"o":"m 279 259 b 75 159 178 259 109 214 l 136 106 b 274 179 170 146 210 179 b 433 24 363 179 424 121 l 60 24 l 60 -28 b 290 -288 60 -178 141 -288 b 529 -16 414 -288 529 -187 l 529 1 b 279 259 529 155 427 259 z m 156 -60 l 156 -56 l 431 -56 b 290 -205 420 -151 370 -205 b 156 -60 202 -205 156 -145 z "},"ₐ":{"ha":0,"x_min":0,"x_max":0,"o":""},"ₑ":{"ha":0,"x_min":0,"x_max":0,"o":""},"ᵢ":{"ha":0,"x_min":0,"x_max":0,"o":""},"ⱼ":{"ha":0,"x_min":0,"x_max":0,"o":""},"ₒ":{"ha":0,"x_min":0,"x_max":0,"o":""},"ᵣ":{"ha":0,"x_min":0,"x_max":0,"o":""},"ᵤ":{"ha":0,"x_min":0,"x_max":0,"o":""},"ᵥ":{"ha":0,"x_min":0,"x_max":0,"o":""},"ₓ":{"ha":0,"x_min":0,"x_max":0,"o":""},"ǃ":{"ha":-418,"x_min":0,"x_max":0,"o":"m 225 982 l 121 982 l 127 281 l 218 281 "},"ʔ":{"ha":-74,"x_min":0,"x_max":0,"o":"m 319 358 z "},"ǀ":{"ha":-460,"x_min":0,"x_max":0,"o":"m 195 986 l 110 986 l 110 0 l 195 0 z "},"ǁ":{"ha":-319,"x_min":0,"x_max":0,"o":"m 155 986 l 69 986 l 69 0 l 155 0 z m 334 986 l 248 986 l 248 0 l 334 0 z "},"ǂ":{"ha":-444,"x_min":0,"x_max":0,"o":"m 202 986 l 117 986 l 117 697 l -45 697 l -45 625 l 117 625 l 117 365 l -43 365 l -43 293 l 117 293 l 117 0 l 202 0 l 202 293 l 365 293 l 365 365 l 202 365 l 202 625 l 363 625 l 363 697 l 202 697 z "},"ƻ":{"ha":0,"x_min":0,"x_max":0,"o":"l 52 96 b 151 206 92 138 124 174 l 330 206 l 330 278 l 207 278 b 336 403 255 349 272 404 b 146 NaN 272 377 219 319 l -30 NaN l -30 NaN l 85 NaN l 52 NaN l -281 NaN "},"ꟿ":{"ha":779,"x_min":0,"x_max":0,"o":"m 259 962 l 149 962 l 57 0 l 167 0 l 243 785 l 674 0 l 675 3 l 675 0 l 783 0 l 857 787 l 1287 0 l 1290 4 l 1290 0 l 1397 0 l 1488 962 l 1382 962 l 1308 175 l 873 962 l 766 962 l 692 174 z "},"ʶ":{"ha":-195,"x_min":0,"x_max":0,"o":"m 278 430 b 481 602 404 430 480 507 b 387 755 481 669 446 726 l 521 956 l 410 956 l 288 773 l 148 773 l 148 956 l 50 956 l 50 430 z m 148 513 l 148 692 l 281 692 b 385 604 351 692 385 655 b 260 513 385 551 343 513 z "},"ʵ":{"ha":-313,"x_min":0,"x_max":0,"o":"m 57 530 l 57 433 b 99 427 65 429 80 427 b 214 503 147 427 187 456 l 214 358 b 317 217 214 269 240 217 b 399 227 346 217 370 220 l 399 317 b 354 311 389 313 370 311 b 311 363 330 311 311 321 l 311 956 l 214 956 l 214 593 b 114 518 197 547 165 518 b 57 530 94 518 75 522 z "},"ʱ":{"ha":-204,"x_min":0,"x_max":0,"o":"m 175 1044 b 214 1097 175 1086 191 1097 b 259 1092 231 1097 248 1095 l 259 1180 b 176 1191 231 1187 205 1191 b 80 1050 100 1191 80 1139 l 80 430 l 175 430 l 175 804 b 285 887 193 852 230 887 b 385 757 345 887 385 846 l 385 430 l 481 430 l 481 774 b 316 967 481 905 415 967 b 175 884 257 967 207 937 z "},"ʴ":{"ha":-447,"x_min":0,"x_max":0,"o":"m 33 522 l 33 426 b 77 420 42 422 58 420 b 201 510 131 420 174 453 l 214 430 l 289 430 l 289 956 l 193 956 l 193 591 b 91 511 177 541 144 511 b 33 522 71 511 52 515 z "},"ʰ":{"ha":-250,"x_min":0,"x_max":0,"o":"m 140 793 b 138 796 140 868 191 796 b 50 NaN 104 796 50 773 l 47 NaN l 47 NaN l -34 NaN l -34 NaN l 49 NaN z "},"ⁱ":{"ha":0,"x_min":0,"x_max":0,"o":""},"ʲ":{"ha":0,"x_min":0,"x_max":0,"o":""},"ˡ":{"ha":-569,"x_min":0,"x_max":0,"o":""},"ⁿ":{"ha":-253,"x_min":0,"x_max":0,"o":"m 140 793 b 134 799 140 868 190 799 b 46 NaN 100 799 46 776 l 43 NaN l 43 NaN l -37 NaN l -37 NaN l 46 NaN z "},"ʳ":{"ha":0,"x_min":0,"x_max":0,"o":""},"ˢ":{"ha":-313,"x_min":0,"x_max":0,"o":""},"ʷ":{"ha":0,"x_min":0,"x_max":0,"o":""},"ˣ":{"ha":0,"x_min":0,"x_max":0,"o":""},"ʸ":{"ha":0,"x_min":0,"x_max":0,"o":""},"ª":{"ha":0,"x_min":0,"x_max":0,"o":""},"º":{"ha":0,"x_min":0,"x_max":0,"o":""},"А":{"ha":0,"x_min":0,"x_max":0,"o":""},"Б":{"ha":0,"x_min":0,"x_max":0,"o":""},"В":{"ha":87,"x_min":0,"x_max":0,"o":""},"Г":{"ha":0,"x_min":0,"x_max":0,"o":""},"Ѓ":{"ha":0,"x_min":0,"x_max":0,"o":"l -13 0 l -13 96 l 882 96 l 882 578 "},"Ґ":{"ha":-14,"x_min":0,"x_max":0,"o":"m 117 0 l 213 0 l 213 895 l 693 895 l 693 1196 l 598 1196 l 598 982 l 117 982 z "},"Ӷ":{"ha":0,"x_min":0,"x_max":0,"o":"l -13 0 l -13 95 l -104 95 l -104 903 l 378 903 "},"Ғ":{"ha":0,"x_min":0,"x_max":0,"o":"l -13 0 l -13 469 l 341 469 l 341 951 "},"Ҕ":{"ha":0,"x_min":0,"x_max":0,"o":"l 44 0 l 44 350 l 526 350 "},"Д":{"ha":214,"x_min":0,"x_max":0,"o":"m 26 -239 l 118 -239 l 118 0 l 834 0 l 834 -236 l 926 -236 l 926 87 l 811 87 l 811 982 l 244 982 l 225 557 b 88 87 212 281 156 155 l 26 87 z m 203 87 b 317 557 269 186 307 335 l 332 895 l 719 895 l 719 87 z "},"Е":{"ha":14,"x_min":0,"x_max":0,"o":""},"Ѐ":{"ha":0,"x_min":0,"x_max":0,"o":""},"Ё":{"ha":0,"x_min":0,"x_max":0,"o":""},"Ж":{"ha":471,"x_min":0,"x_max":0,"o":""},"З":{"ha":0,"x_min":0,"x_max":0,"o":""},"И":{"ha":235,"x_min":0,"x_max":0,"o":""},"Й":{"ha":0,"x_min":0,"x_max":0,"o":""},"Ѝ":{"ha":0,"x_min":0,"x_max":0,"o":""},"Ҋ":{"ha":0,"x_min":0,"x_max":0,"o":"l 235 0 l 235 117 l 302 117 l 302 24 l -271 -787 l -279 -787 l -279 24 "},"К":{"ha":63,"x_min":0,"x_max":0,"o":"m 688 0 l 803 0 "},"Ќ":{"ha":0,"x_min":0,"x_max":0,"o":""},"Л":{"ha":0,"x_min":0,"x_max":0,"o":"l 172 0 l 172 96 l 1154 96 l 1154 -486 l 1136 -974 b 966 -1378 1126 -1267 1088 -1378 l 941 -1379 "},"М":{"ha":405,"x_min":0,"x_max":0,"o":""},"Н":{"ha":211,"x_min":0,"x_max":0,"o":""},"О":{"ha":235,"x_min":0,"x_max":0,"o":""},"П":{"ha":0,"x_min":0,"x_max":0,"o":""},"Р":{"ha":0,"x_min":0,"x_max":0,"o":""},"С":{"ha":192,"x_min":0,"x_max":0,"o":""},"Т":{"ha":68,"x_min":0,"x_max":0,"o":""},"У":{"ha":36,"x_min":0,"x_max":0,"o":""},"Ў":{"ha":0,"x_min":0,"x_max":0,"o":""},"Ф":{"ha":257,"x_min":0,"x_max":0,"o":"m 582 861 l 560 861 l 560 1000 l 464 1000 l 464 861 l 442 861 b 73 476 227 861 73 705 b 442 90 73 245 227 90 l 464 90 l 464 -41 l 560 -41 l 560 90 l 582 90 b 949 476 796 90 949 247 b 582 861 949 707 796 861 z m 442 776 l 464 776 l 464 176 l 442 176 b 170 475 266 176 170 298 b 442 776 170 652 266 776 z m 560 176 l 560 776 l 581 776 b 853 476 757 776 853 654 b 582 176 854 298 757 176 z "},"Х":{"ha":59,"x_min":0,"x_max":0,"o":""},"Ч":{"ha":166,"x_min":0,"x_max":0,"o":""},"Ц":{"ha":205,"x_min":0,"x_max":0,"o":"m 918 91 l 830 91 l 830 982 l 736 982 l 736 88 l 209 88 l 209 982 l 117 982 l 117 0 l 810 0 l 810 -232 l 905 -232 z "},"Ш":{"ha":484,"x_min":0,"x_max":0,"o":"m 117 982 l 117 0 l 1133 0 l 1133 982 z "},"Щ":{"ha":503,"x_min":0,"x_max":0,"o":"m 1215 85 l 1133 85 l 1133 982 l 1036 982 l 1036 0 l 2030 0 l 2030 -232 l 2123 -232 z "},"Џ":{"ha":181,"x_min":0,"x_max":0,"o":"m 117 0 l 425 0 l 425 -237 l 521 -237 l 521 0 l 830 0 l 830 982 l 732 982 l 732 88 l 213 88 l 213 982 l 117 982 z "},"Ь":{"ha":0,"x_min":0,"x_max":0,"o":""},"Ы":{"ha":0,"x_min":0,"x_max":0,"o":""},"Ъ":{"ha":309,"x_min":0,"x_max":0,"o":"m 58 897 l 331 897 l 331 0 l -38 0 "},"Љ":{"ha":664,"x_min":0,"x_max":0,"o":"m 9 0 l 39 0 b 300 472 237 0 286 142 l 317 895 l 686 895 l 686 0 l 127 0 l 110 -488 b -61 -892 98 -808 49 -892 l -87 -892 "},"Њ":{"ha":721,"x_min":0,"x_max":0,"o":"m 117 0 l 213 0 l 213 469 l 743 469 l 743 0 l 647 0 l 647 -427 l 117 -427 l 117 0 l 20 0 "},"Ѕ":{"ha":64,"x_min":0,"x_max":0,"o":""},"Є":{"ha":101,"x_min":0,"x_max":0,"o":"m 442 -14 b 799 304 643 -14 783 109 l 699 304 b 444 75 682 160 575 75 b 170 430 275 75 170 224 l 170 442 l 579 442 l 579 530 l 170 530 l 170 536 b 452 906 170 751 279 906 b 699 677 581 906 682 821 l 799 677 b 452 996 783 873 647 996 b 73 536 224 996 73 804 l 73 430 b 442 -14 73 171 220 -14 z "},"Э":{"ha":106,"x_min":0,"x_max":0,"o":""},"І":{"ha":-436,"x_min":0,"x_max":0,"o":""},"Ї":{"ha":0,"x_min":0,"x_max":0,"o":""},"Ј":{"ha":0,"x_min":0,"x_max":0,"o":""},"Ћ":{"ha":420,"x_min":0,"x_max":0,"o":"m 803 982 l 58 982 l 58 895 l 370 895 l 370 0 l 467 0 l 467 487 b 750 532 555 515 652 532 b 971 326 890 532 971 476 l 971 0 l 1067 0 l 1067 320 l 1404 320 z "},"Ю":{"ha":564,"x_min":0,"x_max":0,"o":"m 213 982 l 648 982 l 648 1175 b 1073 726 668 899 839 726 b 1203 674 1381 726 1203 922 b 739 239 1203 433 1029 250 l 548 239 z m 1497 208 z "},"Я":{"ha":108,"x_min":0,"x_max":0,"o":"m 757 0 l 757 982 l 437 982 b 117 686 225 982 117 859 b 302 414 117 555 179 454 l 76 0 l 187 0 l 401 395 l 435 393 l 661 393 l 661 0 z m 212 686 b 441 895 212 812 285 895 l 661 895 l 661 481 l 439 481 b 212 686 285 481 212 560 z "},"Ђ":{"ha":290,"x_min":0,"x_max":0,"o":"m 776 982 l 58 982 l 58 895 l 369 895 l 369 0 l 467 0 l 467 471 b 659 503 529 491 597 503 b 897 288 806 503 895 422 b 674 80 897 160 811 80 l 677 -7 b 993 289 872 -7 993 109 b 659 589 993 475 864 589 b 467 556 602 589 534 577 l 467 895 l 776 895 z "},"Ѡ":{"ha":376,"x_min":0,"x_max":0,"o":"m 117 248 b 363 -14 117 72 218 -14 b 571 92 449 -14 526 16 b 772 -14 613 16 686 -14 b 1025 248 916 -14 1025 72 l 1025 982 l 929 982 l 929 248 b 772 75 929 129 859 75 b 620 248 682 75 620 133 l 620 982 l 522 982 l 522 248 b 362 75 522 133 457 75 b 213 248 281 75 213 129 l 213 982 l 117 982 z "},"Ѣ":{"ha":0,"x_min":0,"x_max":0,"o":""},"Ѥ":{"ha":473,"x_min":0,"x_max":0,"o":"m 844 545 l 454 545 b 784 905 473 779 614 905 b 1078 674 933 905 1050 808 l 1175 675 b 784 996 1141 860 991 996 b 361 545 551 996 380 822 l 213 545 l 213 982 l 673 982 l 673 1128 b 1097 655 684 839 858 655 b 1488 975 1305 655 1454 792 l 1390 977 b 1097 746 1363 842 1246 746 b 766 1128 922 746 777 879 l 1157 1128 z "},"Ѧ":{"ha":22,"x_min":0,"x_max":0,"o":"m 671 0 l 784 0 l 445 982 l 353 982 l 8 0 l 119 0 l 221 297 l 339 297 l 339 0 l 445 0 l 445 297 l 574 297 z m 251 388 l 399 823 l 543 388 z "},"Ѩ":{"ha":389,"x_min":0,"x_max":0,"o":"m 164 982 l 461 982 l 461 1210 l 357 913 l 469 913 l 571 1210 l 689 1210 l 689 913 l 793 913 l 793 1210 l 922 1210 l 1020 913 l 1133 913 l 795 1895 l 701 1895 l 494 1301 l 233 1301 z m 601 1301 l 749 1733 l 891 1301 z "},"Ѫ":{"ha":264,"x_min":0,"x_max":0,"o":"m 42 241 l -8 241 b -321 -53 -208 241 -321 155 z m -60 597 l 370 597 l 155 241 z "},"Ѭ":{"ha":683,"x_min":0,"x_max":0,"o":"m 88 0 l 184 0 l 184 446 l 445 446 b 382 241 404 399 382 332 l -179 241 l -179 688 l -275 688 z m 281 597 l 711 597 l 495 241 z "},"Ѯ":{"ha":-70,"x_min":0,"x_max":0,"o":"m 307 982 l 100 982 l 100 895 l 307 895 b 505 727 438 895 505 833 b 282 548 505 623 435 548 l 197 548 l 197 461 l 285 461 b 517 271 435 461 517 393 b 313 73 515 153 441 73 l 292 73 b 75 -88 159 73 75 19 b 240 -296 75 -194 157 -259 l 285 -227 b 175 -96 237 -203 175 -165 b 289 -14 175 -46 210 -14 l 313 -14 b 623 269 496 -14 623 96 b 442 506 622 389 557 470 b 610 735 548 545 610 627 b 307 982 610 887 487 982 z m 256 1260 l 256 1187 l 250 1187 l 250 1194 l 175 1194 l 56 1074 z "},"Ѱ":{"ha":0,"x_min":0,"x_max":0,"o":""},"Ѳ":{"ha":0,"x_min":0,"x_max":0,"o":""},"Ѵ":{"ha":139,"x_min":0,"x_max":0,"o":""},"Ѷ":{"ha":0,"x_min":0,"x_max":0,"o":""},"Ѹ":{"ha":0,"x_min":0,"x_max":0,"o":""},"Җ":{"ha":-275,"x_min":0,"x_max":0,"o":"l 471 0 l 471 47 l 386 47 "},"Ҙ":{"ha":79,"x_min":0,"x_max":0,"o":"m 95 247 l 100 102 l 220 0 l 391 -12 l 376 -83 l 399 86 b 673 NaN 414 208 526 206 b 465 NaN 674 NaN 594 NaN l 465 NaN b 637 NaN 571 NaN 639 NaN b 346 NaN 639 NaN 525 NaN b 35 NaN 175 NaN 39 NaN l 129 NaN b 345 NaN 132 NaN 229 NaN b 545 NaN 465 NaN 544 NaN b 323 NaN 544 NaN 452 NaN l 262 NaN l 262 NaN l 323 NaN b 579 NaN 481 NaN 578 NaN b 342 NaN 578 NaN 480 NaN b 110 NaN 216 NaN 115 NaN z "},"Қ":{"ha":108,"x_min":0,"x_max":0,"o":"m 688 0 l 730 0 l 730 -228 l 822 -228 l 822 98 l 730 98 l 730 94 "},"Ҝ":{"ha":89,"x_min":0,"x_max":0,"o":"m 311 701 l 311 536 l 213 536 l 213 982 l 117 982 l 117 0 l 213 0 l 213 444 l 311 444 l 311 286 l 396 286 l 396 444 l 458 444 l 720 0 l 829 0 l 540 495 l 799 982 l 686 982 l 453 536 l 396 536 l 396 701 z "},"Ҡ":{"ha":182,"x_min":0,"x_max":0,"o":"m 340 982 l -3 982 l -3 897 l 244 897 l 244 0 l 340 0 l 340 461 l 454 461 l 815 0 l 930 0 l 536 0 l 536 503 z "},"Ң":{"ha":249,"x_min":0,"x_max":0,"o":"m 117 0 l 213 0 l 213 449 l 762 449 l 762 0 l 849 0 l 849 -81 l 1744 -81 l 1744 -179 z "},"Ҥ":{"ha":535,"x_min":0,"x_max":0,"o":"m 1244 982 l 762 982 l 762 534 l 213 534 l 213 982 l 662 982 l 662 1531 l 213 1531 l 213 1629 l 1108 1629 l 1108 2013 z "},"Ҧ":{"ha":635,"x_min":0,"x_max":0,"o":"m 783 982 l 69 982 l 69 0 l 165 0 l 165 895 l 686 895 l 686 0 z "},"Ҩ":{"ha":292,"x_min":0,"x_max":0,"o":"m 955 -20 l 955 72 b 800 91 899 72 846 79 b 947 444 892 173 947 297 l 947 628 b 682 997 947 848 842 997 b 418 631 521 997 418 845 l 418 454 b 594 90 418 300 482 172 b 505 79 566 82 536 79 b 199 441 321 79 199 227 l 199 582 b 395 905 199 770 282 905 l 395 998 b 103 579 218 998 103 822 l 103 441 b 505 -14 103 175 260 -14 b 701 27 578 -14 644 1 b 955 -20 774 -3 860 -20 z m 514 453 l 514 632 b 682 905 514 795 585 905 b 849 631 780 905 849 799 l 849 444 b 696 133 849 306 792 194 b 514 453 580 197 514 309 z "},"Ҫ":{"ha":0,"x_min":0,"x_max":0,"o":""},"Ҭ":{"ha":68,"x_min":0,"x_max":0,"o":"m 58 895 "},"Ү":{"ha":92,"x_min":0,"x_max":0,"o":""},"Ұ":{"ha":92,"x_min":0,"x_max":0,"o":"m 26 982 l 374 429 l 225 429 l 225 357 l 380 357 l 380 0 l 477 0 l 477 357 l 633 357 l 633 429 l 483 429 l 831 982 l 720 982 "},"Ҳ":{"ha":0,"x_min":0,"x_max":0,"o":"l 59 0 l 59 52 l -26 52 "},"Ҵ":{"ha":412,"x_min":0,"x_max":0,"o":"m 682 982 l 58 982 l 58 897 l 324 897 l 324 0 l 1017 0 l 1017 -232 l 1112 -232 l 1126 91 l 1038 91 l 1038 982 l 944 982 l 944 88 l 416 88 l 416 897 l 682 897 z "},"Ҷ":{"ha":0,"x_min":0,"x_max":0,"o":""},"Ҹ":{"ha":166,"x_min":0,"x_max":0,"o":"m 494 659 l 408 659 l 408 452 b 214 656 286 458 214 516 l 214 982 l 118 982 l 118 656 b 408 363 118 459 224 372 b 633 407 490 368 559 383 l 633 0 l 730 0 l 730 982 l 633 982 l 633 495 b 408 453 562 473 486 458 z "},"Һ":{"ha":166,"x_min":0,"x_max":0,"o":"m 814 0 l 814 407 l 1301 407 b 1584 452 1390 435 1486 452 b 1805 245 1724 452 1805 396 l 1805 -80 z "},"Ҽ":{"ha":0,"x_min":0,"x_max":0,"o":"b -420 443 0 294 -262 443 b -80 557 -175 443 -80 534 b NaN NaN -80 597 -18 NaN l NaN NaN "},"Ҿ":{"ha":0,"x_min":0,"x_max":0,"o":"b -393 418 0 294 -239 418 b -208 NaN -184 418 -208 NaN l -208 NaN l -115 NaN l -115 NaN b 102 NaN -32 NaN 46 NaN l 76 NaN "},"Ӏ":{"ha":-436,"x_min":0,"x_max":0,"o":""},"Ӂ":{"ha":0,"x_min":0,"x_max":0,"o":""},"Ӄ":{"ha":120,"x_min":0,"x_max":0,"o":"m 213 464 l 407 464 b 704 170 594 464 704 357 b 495 -100 704 3 625 -100 l 498 -186 b 800 170 685 -186 799 -50 b 450 548 800 395 672 532 l 812 982 l 692 982 l 340 551 l 213 551 l 213 982 z "},"Ӆ":{"ha":0,"x_min":0,"x_max":0,"o":"l 172 0 l 172 65 l 82 65 l 82 983 l -500 983 l -517 495 b -687 91 -527 202 -565 91 l -713 90 "},"Ӈ":{"ha":211,"x_min":0,"x_max":0,"o":"m 762 449 l 762 -85 b 656 -194 762 -165 720 -194 b 620 -190 643 -194 629 -193 l 620 -271 b 678 -277 635 -275 658 -277 b 859 -87 784 -277 859 -206 l 859 0 l 860 0 l 860 982 l 762 982 l 762 0 l 859 0 l 859 449 z "},"Ӊ":{"ha":249,"x_min":0,"x_max":0,"o":"m 117 0 l 213 0 l 213 449 l 762 449 l 762 0 l 830 0 l 830 -98 z "},"Ӌ":{"ha":0,"x_min":0,"x_max":0,"o":""},"Ӎ":{"ha":0,"x_min":0,"x_max":0,"o":"l 405 0 l 405 117 l 467 117 l 467 3 l 117 -841 l 108 -841 l -243 3 "},"Ӑ":{"ha":0,"x_min":0,"x_max":0,"o":""},"Ӓ":{"ha":0,"x_min":0,"x_max":0,"o":""},"Ӕ":{"ha":0,"x_min":0,"x_max":0,"o":""},"Ӗ":{"ha":0,"x_min":0,"x_max":0,"o":""},"Ә":{"ha":0,"x_min":0,"x_max":0,"o":""},"Ӛ":{"ha":0,"x_min":0,"x_max":0,"o":""},"Ӝ":{"ha":0,"x_min":0,"x_max":0,"o":""},"Ӟ":{"ha":0,"x_min":0,"x_max":0,"o":""},"Ӡ":{"ha":0,"x_min":0,"x_max":0,"o":""},"Ӣ":{"ha":0,"x_min":0,"x_max":0,"o":""},"Ӥ":{"ha":235,"x_min":0,"x_max":0,"o":"m 164 126 z m 415 126 z "},"Ӧ":{"ha":0,"x_min":0,"x_max":0,"o":""},"Ө":{"ha":0,"x_min":0,"x_max":0,"o":""},"Ӫ":{"ha":0,"x_min":0,"x_max":0,"o":""},"Ӭ":{"ha":0,"x_min":0,"x_max":0,"o":""},"Ӯ":{"ha":0,"x_min":0,"x_max":0,"o":""},"Ӱ":{"ha":0,"x_min":0,"x_max":0,"o":""},"Ӳ":{"ha":0,"x_min":0,"x_max":0,"o":""},"Ӵ":{"ha":0,"x_min":0,"x_max":0,"o":""},"Ӹ":{"ha":287,"x_min":0,"x_max":0,"o":"m 483 555 l 210 555 l 210 982 l 114 982 l 114 0 l 483 0 b 795 283 682 0 795 114 b 483 555 795 449 681 555 z m 4 -426 "},"Ӻ":{"ha":0,"x_min":0,"x_max":0,"o":"l -13 0 l -13 -76 l -13 -168 l 371 -168 l 371 -11 l 443 -11 l 443 -168 l 797 -168 l 797 313 "},"Ӽ":{"ha":0,"x_min":0,"x_max":0,"o":"l 0 59 l 49 59 l 49 220 l -33 220 "},"Ӿ":{"ha":59,"x_min":0,"x_max":0,"o":"m 142 982 l 27 982 l 324 528 l 208 528 l 208 456 l 324 456 l 27 0 l -264 456 l -155 456 l -155 528 l -263 528 "},"Ҁ":{"ha":48,"x_min":0,"x_max":0,"o":"m 475 75 l 412 75 b 156 391 259 75 156 198 l 156 591 b 418 906 156 789 256 906 b 658 677 567 906 658 811 l 766 677 b 419 996 766 864 628 996 b 47 591 195 996 47 840 l 47 391 b 366 -11 47 164 177 10 l 366 -258 l 475 -258 z "},"Ҍ":{"ha":0,"x_min":0,"x_max":0,"o":""},"Ҏ":{"ha":60,"x_min":0,"x_max":0,"o":"m 532 625 l 461 581 l 532 473 b 434 458 503 464 471 458 l 212 458 l 212 895 l 433 895 b 661 677 587 895 661 804 b 602 518 661 612 642 557 z m 115 0 l 212 0 l 212 372 l 438 372 b 582 397 493 372 541 380 l 650 292 l 720 338 l 654 439 b 755 677 722 494 755 579 b 437 982 755 850 648 982 l 115 982 z "},"а":{"ha":0,"x_min":0,"x_max":0,"o":""},"б":{"ha":2,"x_min":0,"x_max":0,"o":"m 681 955 l 635 1013 b 397 982 586 972 507 986 b 62 461 171 975 62 803 l 62 384 b 385 -15 62 123 190 -15 b 705 357 578 -15 705 129 b 406 713 705 586 575 713 b 153 562 297 713 202 661 l 144 562 b 401 897 157 774 232 888 b 681 955 522 902 620 895 z m 385 68 b 155 353 241 68 155 176 b 387 629 157 515 243 629 b 613 357 524 629 613 529 b 385 68 613 182 525 68 z "},"в":{"ha":0,"x_min":0,"x_max":0,"o":""},"г":{"ha":-170,"x_min":0,"x_max":0,"o":""},"ѓ":{"ha":0,"x_min":0,"x_max":0,"o":""},"ґ":{"ha":-168,"x_min":0,"x_max":0,"o":"m 543 911 l 452 911 l 452 736 l 99 736 l 99 0 l 193 0 l 193 651 l 543 651 z "},"ӷ":{"ha":-170,"x_min":0,"x_max":0,"o":"m 541 736 l 99 736 l 99 0 l 190 0 l 190 -244 l 282 -244 l 282 81 l 193 81 l 193 651 l 541 651 z "},"ғ":{"ha":-170,"x_min":0,"x_max":0,"o":"m 541 736 l 99 736 l 99 406 l -235 406 l -235 499 l 99 499 l 99 745 l 448 745 z "},"ҕ":{"ha":-74,"x_min":0,"x_max":0,"o":"m 541 736 l 99 736 l 99 0 l 193 0 l 193 335 l 266 335 b 524 121 429 335 524 251 b 339 -95 524 14 450 -76 l 363 -175 b 617 119 513 -156 616 -33 b 266 422 617 301 483 422 l 193 422 l 193 651 l 541 651 z "},"д":{"ha":37,"x_min":0,"x_max":0,"o":"m 14 -210 l 106 -210 l 106 0 l 674 0 l 674 -210 l 766 -210 l 766 85 l 656 85 l 656 736 l 212 736 l 186 433 b 77 85 170 241 140 155 l 14 85 z m 182 85 b 277 433 239 163 262 278 l 297 651 l 564 651 l 564 85 z "},"е":{"ha":0,"x_min":0,"x_max":0,"o":""},"ѐ":{"ha":0,"x_min":0,"x_max":0,"o":""},"ё":{"ha":0,"x_min":0,"x_max":0,"o":""},"ж":{"ha":315,"x_min":0,"x_max":0,"o":""},"з":{"ha":-124,"x_min":0,"x_max":0,"o":""},"и":{"ha":16,"x_min":0,"x_max":0,"o":""},"й":{"ha":0,"x_min":0,"x_max":0,"o":""},"ҋ":{"ha":0,"x_min":0,"x_max":0,"o":"l 0 64 l 64 64 l -28 64 l -28 737 l -137 737 "},"ѝ":{"ha":0,"x_min":0,"x_max":0,"o":""},"к":{"ha":-85,"x_min":0,"x_max":0,"o":""},"ќ":{"ha":0,"x_min":0,"x_max":0,"o":""},"л":{"ha":0,"x_min":0,"x_max":0,"o":"l 5 0 l 5 91 l 741 91 l 741 -382 l 726 -724 b 596 -1034 715 -967 698 -1034 l 573 -1034 "},"м":{"ha":0,"x_min":0,"x_max":0,"o":"l 0 212 l 92 212 l 92 949 l -24 949 "},"н":{"ha":0,"x_min":0,"x_max":0,"o":"l -1 0 l -1 92 l 736 92 l 736 0 l 410 0 l 410 -380 "},"о":{"ha":12,"x_min":0,"x_max":0,"o":""},"п":{"ha":-2,"x_min":0,"x_max":0,"o":"m 100 0 l 193 0 l 193 651 l 571 651 l 571 0 l 663 0 l 663 736 l 100 736 z "},"р":{"ha":25,"x_min":0,"x_max":0,"o":""},"с":{"ha":-36,"x_min":0,"x_max":0,"o":""},"т":{"ha":-75,"x_min":0,"x_max":0,"o":"m 54 651 l 301 651 l 301 0 l 393 0 l 393 651 l 636 651 l 636 736 l 54 736 z "},"у":{"ha":-48,"x_min":0,"x_max":0,"o":""},"ў":{"ha":0,"x_min":0,"x_max":0,"o":""},"ф":{"ha":147,"x_min":0,"x_max":0,"o":"m 410 -251 l 503 -251 l 503 -15 b 850 365 705 -15 850 141 b 503 746 850 589 705 746 l 503 982 l 410 982 l 410 746 b 62 365 208 746 62 589 b 410 -15 62 141 208 -15 z m 410 68 b 155 365 248 68 155 205 b 410 663 155 525 248 663 z m 503 68 l 503 663 b 758 365 666 663 758 525 b 503 68 758 205 665 68 z "},"х":{"ha":-73,"x_min":0,"x_max":0,"o":""},"ч":{"ha":-17,"x_min":0,"x_max":0,"o":""},"ц":{"ha":0,"x_min":0,"x_max":0,"o":"l 33 0 l 33 553 l -50 553 "},"ш":{"ha":303,"x_min":0,"x_max":0,"o":"m 99 736 l 99 0 l 968 0 l 968 736 z "},"щ":{"ha":351,"x_min":0,"x_max":0,"o":"m 1063 85 l 968 85 l 968 736 l 875 736 l 875 0 l 1735 0 l 1735 -212 l 1827 -212 z "},"џ":{"ha":0,"x_min":0,"x_max":0,"o":"l -2 0 l -2 237 l -238 237 l -238 330 l -2 330 l -2 563 "},"ь":{"ha":-51,"x_min":0,"x_max":0,"o":"m 391 456 l 193 456 l 193 736 l 99 736 l 99 0 l 391 0 b 652 231 557 0 652 94 b 391 456 652 369 557 456 z m 193 85 "},"ы":{"ha":203,"x_min":0,"x_max":0,"o":"m -582 -651 "},"ъ":{"ha":79,"x_min":0,"x_max":0,"o":"m 323 736 l 18 736 l 18 651 l 229 651 l 229 0 l 31 0 z m 31 -370 "},"љ":{"ha":450,"x_min":0,"x_max":0,"o":"m 47 0 l 80 0 b 292 363 245 0 278 123 l 307 651 l 600 651 l 600 0 l 401 0 l 401 281 l -75 281 l -91 -61 b -220 -370 -100 -304 -118 -370 l -244 -370 z m 401 -370 l 401 -85 l 600 -85 b 769 -229 700 -85 769 -138 b 600 -370 769 -319 700 -370 z "},"њ":{"ha":421,"x_min":0,"x_max":0,"o":"m 99 0 b 548 24 193 0 548 380 b NaN NaN 548 98 381 NaN l NaN NaN l NaN NaN l NaN NaN l NaN NaN l NaN NaN l NaN NaN l NaN NaN z m NaN NaN l NaN NaN l NaN NaN b NaN NaN NaN NaN NaN NaN b NaN NaN NaN NaN NaN NaN z "},"ѕ":{"ha":-92,"x_min":0,"x_max":0,"o":""},"є":{"ha":-87,"x_min":0,"x_max":0,"o":"m 366 400 l 103 400 b 327 662 113 560 199 662 b 518 511 433 662 500 593 l 610 513 b 326 746 591 650 477 746 b 8 366 134 746 8 589 b 327 -15 8 140 132 -15 b 610 213 483 -15 591 84 l 518 214 b 327 69 498 126 425 69 b 104 316 202 69 119 165 l 366 316 z "},"э":{"ha":-62,"x_min":0,"x_max":0,"o":""},"і":{"ha":-473,"x_min":0,"x_max":0,"o":""},"ї":{"ha":0,"x_min":0,"x_max":0,"o":""},"ј":{"ha":0,"x_min":0,"x_max":0,"o":""},"ћ":{"ha":0,"x_min":0,"x_max":0,"o":""},"ю":{"ha":303,"x_min":0,"x_max":0,"o":"m 133 736 l 450 736 l 450 947 b 773 614 467 747 594 614 b 1100 994 967 614 1100 769 b 773 1377 1100 1221 967 1377 b 449 1034 592 1377 463 1238 l 240 1034 z m 773 697 b 540 994 623 697 540 833 b 773 1293 540 1156 623 1293 b 1008 994 926 1293 1008 1156 b 773 697 1008 833 926 697 z "},"я":{"ha":-36,"x_min":0,"x_max":0,"o":"m 541 0 l 629 0 l 629 736 l 342 736 b 92 525 182 736 92 661 b 235 327 92 422 142 353 l 47 0 l 148 0 l 328 313 l 332 313 l 541 313 z m 184 525 b 342 652 184 608 239 652 l 541 652 l 541 399 l 332 399 b 184 525 236 399 184 442 z "},"ђ":{"ha":2,"x_min":0,"x_max":0,"o":"m 575 0 l 575 -87 b 469 -195 575 -167 533 -195 b 431 -190 456 -195 441 -193 l 431 -269 l 431 -275 l 446 -275 l 446 -252 l 1009 -252 b 758 18 1009 -76 907 18 b 540 -109 646 18 575 -31 l 540 -115 l 747 -115 l 747 -33 l 654 -33 l 654 -115 l -174 -115 l -174 -585 z "},"ѡ":{"ha":267,"x_min":0,"x_max":0,"o":"m 99 227 b 323 -14 99 65 194 -14 b 515 91 403 -14 475 16 b 700 -14 553 16 623 -14 b 932 227 833 -14 932 64 l 932 736 l 838 736 l 838 227 b 700 72 838 119 773 72 b 562 227 623 72 562 123 l 562 736 l 469 736 l 469 227 b 323 72 469 123 403 72 b 193 227 254 72 193 119 l 193 736 l 99 736 z "},"ѣ":{"ha":-20,"x_min":0,"x_max":0,"o":"m 464 817 l 222 817 l 222 1114 l 130 1114 l 130 817 l -4 817 l -4 731 l 130 731 l 130 0 l -69 0 l -69 275 l 172 275 "},"ѥ":{"ha":288,"x_min":0,"x_max":0,"o":"m 730 397 l 423 397 b 656 663 433 556 526 663 b 848 517 761 663 829 597 l 940 517 b 655 747 920 655 804 747 b 331 397 470 747 342 602 l 179 397 l 179 736 l 492 736 l 492 890 b 817 562 511 695 635 562 b 1101 791 971 562 1080 658 l 1008 792 b 817 644 987 701 913 644 b 586 890 689 644 602 743 l 890 890 z "},"ѧ":{"ha":-101,"x_min":0,"x_max":0,"o":"m 323 541 l 331 575 l 339 541 l 445 286 l 218 286 z m 563 0 l 671 0 l 376 709 l 286 709 l -7 0 l 102 0 l 184 201 l 285 201 l 285 0 l 387 0 l 387 201 l 480 201 z "},"ѩ":{"ha":199,"x_min":0,"x_max":0,"o":"m 803 0 l 910 0 l 614 736 l 525 736 l 346 286 l 168 286 l 168 736 l 369 736 l 369 880 l 289 680 l 395 680 l 473 880 l 581 880 l 581 680 l 671 680 l 671 880 l 781 880 z m 506 966 l 616 1248 l 627 1289 l 636 1248 l 747 966 z "},"ѫ":{"ha":172,"x_min":0,"x_max":0,"o":"m 180 0 l 180 94 b 363 301 180 251 237 301 l 418 301 l 418 300 l 418 0 l 524 0 l 524 296 l 528 301 l 575 301 b 757 94 700 301 757 251 l 966 -8 l 1176 -358 l 1173 -358 b 884 -651 987 -358 884 -439 l 884 -745 z m 1134 -94 l 1430 -94 l 1282 -355 z "},"ѭ":{"ha":517,"x_min":0,"x_max":0,"o":"m 183 736 l 484 736 l 484 1002 b 426 795 446 956 426 888 b 609 1002 426 952 483 1002 l 663 1002 l 663 701 l 769 701 l 769 997 l 773 1002 l 821 1002 b 1004 795 945 1002 1004 952 l 1213 692 l 1424 342 l 924 342 z m 1382 606 l 1678 606 l 1530 343 z "},"ѯ":{"ha":-174,"x_min":0,"x_max":0,"o":"m 231 736 l 27 736 l 27 651 l 231 651 b 401 545 343 651 401 614 b 212 420 401 468 330 420 l 122 420 l 122 336 l 213 336 b 167 387 277 472 232 387 b NaN NaN 119 387 3 NaN l NaN NaN b NaN NaN NaN NaN NaN NaN b NaN NaN NaN NaN NaN NaN l NaN NaN b NaN NaN NaN NaN NaN NaN b NaN NaN NaN NaN NaN NaN l NaN NaN b NaN NaN NaN NaN NaN NaN b NaN NaN NaN NaN NaN NaN b NaN NaN NaN NaN NaN NaN b NaN NaN NaN NaN NaN NaN z m NaN NaN l NaN NaN l NaN NaN l NaN NaN l NaN NaN l NaN NaN z "},"ѱ":{"ha":0,"x_min":0,"x_max":0,"o":""},"ѳ":{"ha":0,"x_min":0,"x_max":0,"o":""},"ѵ":{"ha":21,"x_min":0,"x_max":0,"o":""},"ѷ":{"ha":0,"x_min":0,"x_max":0,"o":""},"ѹ":{"ha":0,"x_min":0,"x_max":0,"o":""},"җ":{"ha":-252,"x_min":0,"x_max":0,"o":"l 315 0 l 315 47 l 223 47 l 223 39 "},"ҙ":{"ha":-124,"x_min":0,"x_max":0,"o":"m 149 189 l 52 189 l 55 78 l 147 1 l 281 -12 l 266 -83 l 286 NaN b 521 NaN 426 NaN 521 NaN b 385 NaN 521 NaN 465 NaN z "},"қ":{"ha":-40,"x_min":0,"x_max":0,"o":"m 99 0 l 193 0 l 193 321 l 283 321 l 547 0 l 593 0 l 593 -236 l 685 -236 l 685 90 l 593 90 l 593 90 l 365 90 l 365 365 l 693 365 l 693 271 z "},"ҝ":{"ha":-17,"x_min":0,"x_max":0,"o":"m 99 0 l 193 0 l 193 321 l 277 321 l 277 186 l 361 186 l 361 321 l 414 321 l 627 0 l 735 0 l 479 382 l 728 736 l 621 736 l 391 408 l 361 408 l 361 547 l 277 547 l 277 408 l 193 408 l 193 736 l 99 736 z "},"ҡ":{"ha":136,"x_min":0,"x_max":0,"o":"m 414 736 l 54 736 l 54 651 l 320 651 l 320 0 z "},"ң":{"ha":0,"x_min":0,"x_max":0,"o":"l 41 0 l 41 88 l -47 88 l -47 738 l -139 738 l -139 412 l -519 412 "},"ҥ":{"ha":201,"x_min":0,"x_max":0,"o":"m 936 736 l 572 736 l 572 411 l 193 411 l 193 736 l 285 736 l 285 1388 l 556 1388 z "},"ҧ":{"ha":444,"x_min":0,"x_max":0,"o":"m 99 0 l 191 0 l 191 651 l 570 651 l 570 0 l 662 0 l 662 330 l 785 330 b 1055 118 945 330 1055 252 b 865 -91 1055 12 990 -68 l 894 -172 b 1147 117 1069 -149 1147 4 b 785 416 1147 307 1006 416 l 662 416 l 662 736 l 99 736 z "},"ҩ":{"ha":21,"x_min":0,"x_max":0,"o":"m 739 -5 l 739 79 b 613 94 693 79 651 83 b 700 354 669 157 700 248 l 700 449 b 498 746 700 627 625 746 b 294 460 369 746 294 635 l 294 368 b 434 81 294 246 344 147 b 366 72 412 75 390 72 b 142 365 235 72 142 194 l 142 426 b 267 659 142 560 199 658 l 267 745 b 50 426 138 745 50 610 l 50 365 b 366 -14 50 142 175 -14 b 534 28 429 -14 486 1 b 739 -5 593 6 662 -5 z m 385 365 l 385 461 b 496 659 385 583 427 661 b 608 450 566 659 608 581 l 608 355 b 519 130 608 258 575 179 b 385 365 434 178 385 259 z "},"ҫ":{"ha":0,"x_min":0,"x_max":0,"o":""},"ҭ":{"ha":-75,"x_min":0,"x_max":0,"o":"m 54 651 l 301 651 l 301 0 l 393 0 l 393 -244 l 486 -244 l 486 81 l 393 81 l 393 651 l 636 651 l 636 736 l 54 736 z "},"ү":{"ha":0,"x_min":0,"x_max":0,"o":""},"ұ":{"ha":-71,"x_min":0,"x_max":0,"o":"m 41 736 l 283 72 l 144 72 l 144 0 l 302 0 l 302 -277 l 395 -277 l 395 0 l 552 0 l 552 72 l 415 72 "},"ҳ":{"ha":0,"x_min":0,"x_max":0,"o":"l -73 0 l -73 160 l 664 160 l 664 206 l 577 206 l 395 488 l 633 856 l 526 856 l 338 545 "},"ҵ":{"ha":166,"x_min":0,"x_max":0,"o":"m 515 736 l 49 736 l 49 651 l 232 651 l 232 0 l 774 0 l 774 -212 l 867 -212 l 880 85 l 795 85 l 795 736 l 703 736 l 703 85 l 324 85 l 324 651 l 515 651 z "},"ҷ":{"ha":0,"x_min":0,"x_max":0,"o":"l 0 26 l 91 26 l 91 -216 l 183 -216 l 183 109 l 92 109 "},"ҹ":{"ha":-17,"x_min":0,"x_max":0,"o":"m 414 517 l 328 517 l 328 328 b 193 499 244 340 193 394 l 193 739 l 99 739 l 99 499 b 328 243 99 339 186 255 l 328 161 l 414 161 l 414 241 b 556 270 464 245 509 255 l 556 0 l 648 0 l 648 736 l 556 736 l 556 357 b 414 328 510 342 464 331 z "},"һ":{"ha":2,"x_min":0,"x_max":0,"o":""},"ҽ":{"ha":0,"x_min":0,"x_max":0,"o":"b NaN NaN 189 NaN NaN NaN b NaN NaN NaN NaN NaN NaN b NaN NaN NaN NaN NaN NaN b NaN NaN NaN NaN NaN NaN b NaN NaN NaN NaN NaN NaN "},"ҿ":{"ha":0,"x_min":0,"x_max":0,"o":"b -136 278 189 7 -1 111 b NaN NaN -162 263 -234 NaN l NaN NaN b NaN NaN NaN NaN NaN NaN b NaN NaN NaN NaN NaN NaN b NaN NaN NaN NaN NaN NaN "},"ӏ":{"ha":-436,"x_min":0,"x_max":0,"o":""},"ӂ":{"ha":0,"x_min":0,"x_max":0,"o":""},"ӄ":{"ha":-13,"x_min":0,"x_max":0,"o":"m 99 0 l 193 0 l 193 321 l 331 321 b 601 121 499 321 601 244 b 415 -83 601 20 526 -65 l 439 -160 b 692 121 587 -141 690 -24 b 385 404 692 279 576 387 l 669 736 l 549 736 l 269 408 l 193 408 l 193 736 l 99 736 z "},"ӆ":{"ha":0,"x_min":0,"x_max":0,"o":"l 55 0 l 55 62 l -37 62 l -37 735 l -511 735 l -526 393 b -656 84 -536 151 -554 84 l -679 84 "},"ӈ":{"ha":-1,"x_min":0,"x_max":0,"o":"m 665 -73 l 665 736 l 572 736 l 572 411 l 193 411 l 193 736 l 191 736 l 191 663 b 91 538 191 583 146 538 b 34 545 77 538 46 540 l 27 461 b 92 453 49 454 68 453 b 285 663 213 453 285 526 z "},"ӊ":{"ha":0,"x_min":0,"x_max":0,"o":"l 48 0 l 48 64 l -6 -170 l 75 -170 l 168 126 l 77 126 l 77 800 l -16 800 l -16 475 l -395 475 "},"ӌ":{"ha":-17,"x_min":0,"x_max":0,"o":"m -94 81 l -186 81 l -186 -244 l -94 -244 z "},"ӎ":{"ha":0,"x_min":0,"x_max":0,"o":"l 0 261 l 62 261 l -28 261 l -28 934 l -145 934 "},"ӑ":{"ha":0,"x_min":0,"x_max":0,"o":""},"ӓ":{"ha":0,"x_min":0,"x_max":0,"o":""},"ӕ":{"ha":0,"x_min":0,"x_max":0,"o":""},"ӗ":{"ha":0,"x_min":0,"x_max":0,"o":""},"ә":{"ha":0,"x_min":0,"x_max":0,"o":""},"ӛ":{"ha":0,"x_min":0,"x_max":0,"o":""},"ӝ":{"ha":0,"x_min":0,"x_max":0,"o":""},"ӟ":{"ha":0,"x_min":0,"x_max":0,"o":""},"ӡ":{"ha":0,"x_min":0,"x_max":0,"o":""},"ӣ":{"ha":0,"x_min":0,"x_max":0,"o":""},"ӥ":{"ha":0,"x_min":0,"x_max":0,"o":""},"ӧ":{"ha":0,"x_min":0,"x_max":0,"o":""},"ө":{"ha":0,"x_min":0,"x_max":0,"o":""},"ӫ":{"ha":0,"x_min":0,"x_max":0,"o":""},"ӭ":{"ha":0,"x_min":0,"x_max":0,"o":""},"ӯ":{"ha":0,"x_min":0,"x_max":0,"o":""},"ӱ":{"ha":0,"x_min":0,"x_max":0,"o":""},"ӳ":{"ha":0,"x_min":0,"x_max":0,"o":""},"ӵ":{"ha":0,"x_min":0,"x_max":0,"o":""},"ӹ":{"ha":203,"x_min":0,"x_max":0,"o":"m -415 -777 "},"ӻ":{"ha":-170,"x_min":0,"x_max":0,"o":"m 541 736 l 541 294 l 212 294 l 212 -41 l 213 -41 l 213 370 l 457 370 l 457 719 z "},"ӽ":{"ha":-68,"x_min":0,"x_max":0,"o":"m 53 0 l 160 0 l 346 300 l 472 103 b 538 -50 514 35 534 -8 b 441 -197 552 -144 496 -197 b 382 -189 429 -197 396 -194 l 376 -274 b 442 -283 397 -282 418 -283 b 631 -84 562 -283 629 -193 b 545 145 632 -9 604 54 l 403 369 l 639 736 l 532 736 l 346 426 l 160 736 l 53 736 l 286 369 z "},"ӿ":{"ha":-73,"x_min":0,"x_max":0,"o":"m 160 736 l 53 736 l 264 404 l 142 404 l 142 332 l 263 332 l 53 332 l 53 0 l 160 0 l -53 332 l 71 332 l 71 404 l -54 404 l 160 736 l 53 736 l -134 426 z "},"ҁ":{"ha":-73,"x_min":0,"x_max":0,"o":"m 415 72 l 358 72 b 164 342 227 73 164 202 l 164 372 b 361 661 164 532 229 661 b 537 473 463 661 537 585 l 637 473 b 363 747 637 635 522 747 b 58 372 171 747 58 586 l 58 342 b 309 -9 58 164 151 16 l 309 -256 l 415 -256 z "},"ҍ":{"ha":-20,"x_min":0,"x_max":0,"o":"m 464 954 l 222 954 l 222 1114 l 130 1114 l 130 954 l -4 954 l -4 868 l 130 868 l 130 0 l -69 0 l -69 412 l 172 412 "},"ҏ":{"ha":35,"x_min":0,"x_max":0,"o":"m 505 235 l 444 176 l 517 98 b 411 68 487 78 452 68 b 190 368 270 68 190 193 b 411 663 190 541 269 663 b 254 551 328 663 308 589 z m -226 119 l -132 119 l -132 528 l -125 528 b 100 380 -96 465 -35 380 b 256 427 158 380 211 397 l 333 341 l 394 399 l 318 484 b 404 762 372 549 404 646 b 98 1143 404 991 280 1143 b -125 995 -37 1143 -96 1057 l -136 995 l -136 1132 l -226 1132 z "},"ԯ":{"ha":0,"x_min":0,"x_max":0,"o":"l 47 0 l 47 88 l -182 88 l -182 180 l 143 180 l 143 91 l 783 91 l 783 -382 l 768 -724 b 638 -1034 758 -967 740 -1034 l 615 -1034 "},"Α":{"ha":0,"x_min":0,"x_max":0,"o":""},"Β":{"ha":87,"x_min":0,"x_max":0,"o":""},"Γ":{"ha":0,"x_min":0,"x_max":0,"o":""},"Δ":{"ha":104,"x_min":0,"x_max":0,"o":"m 26 0 l 844 0 l 483 982 l 387 982 z m 159 87 l 431 849 l 438 849 l 711 87 z "},"∆":{"ha":104,"x_min":0,"x_max":0,"o":"m 26 0 l 844 0 l 483 982 l 387 982 z m 159 87 l 431 849 l 438 849 l 711 87 z "},"Ε":{"ha":14,"x_min":0,"x_max":0,"o":""},"Ζ":{"ha":50,"x_min":0,"x_max":0,"o":""},"Η":{"ha":211,"x_min":0,"x_max":0,"o":""},"Θ":{"ha":235,"x_min":0,"x_max":0,"o":"m 720 534 l 279 534 l 279 448 l 720 448 z "},"Ι":{"ha":-436,"x_min":0,"x_max":0,"o":""},"Κ":{"ha":81,"x_min":0,"x_max":0,"o":""},"Λ":{"ha":104,"x_min":0,"x_max":0,"o":"m 127 0 l 431 857 l 438 857 l 742 0 l 844 0 z "},"Μ":{"ha":405,"x_min":0,"x_max":0,"o":""},"Ν":{"ha":235,"x_min":0,"x_max":0,"o":""},"Ξ":{"ha":-102,"x_min":0,"x_max":0,"o":"m 27 0 l 636 0 l 636 87 l 27 87 z m 79 457 l 579 457 l 579 543 l 79 543 z m 24 895 l 632 895 l 632 982 l 24 982 z "},"Ο":{"ha":235,"x_min":0,"x_max":0,"o":""},"Π":{"ha":0,"x_min":0,"x_max":0,"o":""},"Ρ":{"ha":0,"x_min":0,"x_max":0,"o":""},"Σ":{"ha":60,"x_min":0,"x_max":0,"o":"m 753 91 l 214 91 l 528 469 l 528 483 l 212 878 l 723 878 l 723 967 l 73 967 l 73 887 l 411 475 l 73 79 l 73 0 l 753 0 z "},"Τ":{"ha":68,"x_min":0,"x_max":0,"o":""},"Υ":{"ha":92,"x_min":0,"x_max":0,"o":""},"Φ":{"ha":189,"x_min":0,"x_max":0,"o":"m 526 982 l 431 982 l 431 849 b 54 490 218 848 54 701 b 431 132 54 280 213 134 l 431 0 l 526 0 l 526 132 b 901 491 743 134 901 280 b 526 849 901 702 741 846 z m 148 490 b 431 761 148 648 260 759 l 431 221 b 148 490 260 223 148 332 z m 526 221 l 526 761 b 807 491 695 759 807 650 b 526 221 807 334 697 224 z "},"Χ":{"ha":59,"x_min":0,"x_max":0,"o":""},"Ψ":{"ha":0,"x_min":0,"x_max":0,"o":""},"Ω":{"ha":234,"x_min":0,"x_max":0,"o":""},"Ω":{"ha":234,"x_min":0,"x_max":0,"o":""},"Ά":{"ha":0,"x_min":0,"x_max":0,"o":""},"Έ":{"ha":112,"x_min":0,"x_max":0,"o":"m 214 0 "},"Ή":{"ha":355,"x_min":0,"x_max":0,"o":"m 260 0 "},"Ί":{"ha":0,"x_min":0,"x_max":0,"o":""},"Ό":{"ha":0,"x_min":0,"x_max":0,"o":""},"Ύ":{"ha":261,"x_min":0,"x_max":0,"o":"m 210 982 "},"Ώ":{"ha":224,"x_min":0,"x_max":0,"o":"m 64 0 "},"Ϊ":{"ha":0,"x_min":0,"x_max":0,"o":""},"Ϋ":{"ha":0,"x_min":0,"x_max":0,"o":""},"Ͱ":{"ha":47,"x_min":0,"x_max":0,"o":"m 712 541 l 209 541 l 209 982 l 100 982 l 100 0 l 209 0 l 209 453 l 712 453 z "},"Ͳ":{"ha":89,"x_min":0,"x_max":0,"o":"m 787 594 l 787 982 l 68 982 l 68 594 l 157 594 l 157 895 l 377 895 l 377 0 l 473 0 l 473 895 l 699 895 l 699 594 z "},"Ͷ":{"ha":219,"x_min":0,"x_max":0,"o":"m 109 982 l 109 0 l 201 0 l 772 810 l 780 810 l 780 0 l 876 0 l 876 982 l 784 982 l 212 171 l 203 171 l 203 982 z "},"Ϙ":{"ha":231,"x_min":0,"x_max":0,"o":"m 925 491 b 498 996 925 799 747 996 b 72 491 250 996 72 799 b 450 -11 72 203 227 12 l 450 -274 l 547 -274 l 547 -11 b 925 491 770 13 925 203 z m 831 491 b 498 77 831 229 688 77 b 167 491 308 77 167 229 b 498 905 167 754 309 905 b 831 491 688 905 831 753 z "},"Ϛ":{"ha":170,"x_min":0,"x_max":0,"o":"m 621 -168 l 621 -258 b 804 -96 736 -245 804 -184 b 646 61 804 -22 754 23 l 429 137 b 214 438 290 184 214 277 l 214 543 b 490 905 214 773 313 906 b 724 675 623 905 701 831 l 833 675 b 488 996 811 879 685 996 b 104 543 254 996 104 821 l 104 437 b 407 42 104 232 210 107 l 616 -28 b 696 -102 675 -50 696 -69 b 621 -168 696 -140 669 -163 z "},"Ϝ":{"ha":44,"x_min":0,"x_max":0,"o":"m 629 290 l 629 534 l 210 534 l 210 895 l 688 895 l 688 982 l 114 982 l 114 0 l 210 0 l 210 449 l 541 449 l 541 290 z "},"Ϟ":{"ha":22,"x_min":0,"x_max":0,"o":"m 117 216 l 572 602 l 533 274 b 526 164 529 235 526 195 b 718 -14 528 66 591 -14 b 760 -9 730 -14 745 -12 l 769 75 b 741 72 761 72 751 72 b 629 174 666 72 632 110 b 636 256 629 187 631 218 l 703 829 l 684 837 l 228 446 l 262 738 b 264 810 266 764 266 788 b 80 996 259 926 199 996 b 33 993 62 996 47 994 l 22 906 b 53 909 31 907 39 909 b 161 812 126 909 156 878 b 157 743 163 792 161 770 l 102 222 z "},"Ϡ":{"ha":163,"x_min":0,"x_max":0,"o":"m 7 610 l 117 610 b 442 906 155 799 270 906 b 734 738 571 906 670 844 l 236 448 l 278 373 l 770 659 b 815 400 798 585 813 498 l 366 141 l 410 65 l 815 301 b 438 -189 813 2 682 -189 l 438 -288 b 922 309 742 -288 922 -54 l 922 377 b 445 997 922 743 751 997 b 7 610 183 997 39 817 z "},"Ϗ":{"ha":29,"x_min":0,"x_max":0,"o":"m 151 982 l 42 982 l 42 0 l 151 0 l 151 321 l 275 452 l 620 3 l 427 -168 l 484 -236 l 754 0 l 346 529 l 749 982 l 616 982 l 259 583 l 151 461 z "},"ϒ":{"ha":90,"x_min":0,"x_max":0,"o":""},"ϓ":{"ha":189,"x_min":0,"x_max":0,"o":"m 480 0 l 576 0 l 576 414 l 777 848 b 844 901 796 888 815 901 b 876 895 856 901 868 898 l 895 982 b 825 996 869 993 850 996 b 684 876 750 996 720 956 l 528 529 l 372 876 b 231 996 331 968 290 996 b 159 981 205 996 184 993 l 178 895 b 212 901 186 898 201 901 b 279 848 240 901 259 888 l 480 414 "},"ϔ":{"ha":0,"x_min":0,"x_max":0,"o":""},"ϴ":{"ha":0,"x_min":0,"x_max":0,"o":""},"Ϸ":{"ha":0,"x_min":0,"x_max":0,"o":""},"Ϲ":{"ha":192,"x_min":0,"x_max":0,"o":""},"Ϻ":{"ha":405,"x_min":0,"x_max":0,"o":""},"Ͻ":{"ha":43,"x_min":0,"x_max":0,"o":"m 151 304 l 41 304 b 385 -14 64 102 193 -14 b 768 437 621 -14 768 159 l 768 547 b 392 996 768 819 627 996 b 41 680 202 996 66 882 l 151 680 b 385 905 178 841 259 905 b 659 547 571 905 659 770 l 659 435 b 384 76 659 208 560 76 b 151 304 252 76 175 149 z "},"Ͼ":{"ha":0,"x_min":0,"x_max":0,"o":""},"Ͽ":{"ha":0,"x_min":0,"x_max":0,"o":""},"Ἀ":{"ha":0,"x_min":0,"x_max":0,"o":""},"Ἁ":{"ha":0,"x_min":0,"x_max":0,"o":""},"Ἂ":{"ha":0,"x_min":0,"x_max":0,"o":""},"Ἃ":{"ha":0,"x_min":0,"x_max":0,"o":""},"Ἄ":{"ha":0,"x_min":0,"x_max":0,"o":""},"Ἅ":{"ha":0,"x_min":0,"x_max":0,"o":""},"Ἆ":{"ha":0,"x_min":0,"x_max":0,"o":""},"Ἇ":{"ha":0,"x_min":0,"x_max":0,"o":""},"Ὰ":{"ha":0,"x_min":0,"x_max":0,"o":""},"Ά":{"ha":0,"x_min":0,"x_max":0,"o":""},"Ᾰ":{"ha":0,"x_min":0,"x_max":0,"o":""},"Ᾱ":{"ha":0,"x_min":0,"x_max":0,"o":""},"ᾼ":{"ha":0,"x_min":0,"x_max":0,"o":""},"ᾈ":{"ha":0,"x_min":0,"x_max":0,"o":""},"ᾉ":{"ha":0,"x_min":0,"x_max":0,"o":""},"ᾊ":{"ha":0,"x_min":0,"x_max":0,"o":""},"ᾋ":{"ha":0,"x_min":0,"x_max":0,"o":""},"ᾌ":{"ha":0,"x_min":0,"x_max":0,"o":""},"ᾍ":{"ha":0,"x_min":0,"x_max":0,"o":""},"ᾎ":{"ha":0,"x_min":0,"x_max":0,"o":""},"ᾏ":{"ha":0,"x_min":0,"x_max":0,"o":""},"Ἐ":{"ha":178,"x_min":0,"x_max":0,"o":"m 281 0 z "},"Ἑ":{"ha":166,"x_min":0,"x_max":0,"o":"m 269 0 z "},"Ἒ":{"ha":444,"x_min":0,"x_max":0,"o":"m 547 0 z "},"Ἓ":{"ha":391,"x_min":0,"x_max":0,"o":"m 494 0 "},"Ἔ":{"ha":376,"x_min":0,"x_max":0,"o":"m 479 0 "},"Ἕ":{"ha":401,"x_min":0,"x_max":0,"o":"m 503 0 "},"Ὲ":{"ha":238,"x_min":0,"x_max":0,"o":"m 340 0 "},"Έ":{"ha":196,"x_min":0,"x_max":0,"o":"m 298 0 "},"Ἠ":{"ha":417,"x_min":0,"x_max":0,"o":"m 324 0 z "},"Ἡ":{"ha":410,"x_min":0,"x_max":0,"o":""},"Ἢ":{"ha":688,"x_min":0,"x_max":0,"o":""},"Ἣ":{"ha":0,"x_min":0,"x_max":0,"o":""},"Ἤ":{"ha":0,"x_min":0,"x_max":0,"o":""},"Ἥ":{"ha":0,"x_min":0,"x_max":0,"o":""},"Ἦ":{"ha":0,"x_min":0,"x_max":0,"o":""},"Ἧ":{"ha":0,"x_min":0,"x_max":0,"o":""},"Ὴ":{"ha":482,"x_min":0,"x_max":0,"o":"m 389 0 "},"Ή":{"ha":440,"x_min":0,"x_max":0,"o":"m 347 0 "},"ῌ":{"ha":211,"x_min":0,"x_max":0,"o":""},"ᾘ":{"ha":366,"x_min":0,"x_max":0,"o":""},"ᾙ":{"ha":410,"x_min":0,"x_max":0,"o":""},"ᾚ":{"ha":688,"x_min":0,"x_max":0,"o":""},"ᾛ":{"ha":0,"x_min":0,"x_max":0,"o":""},"ᾜ":{"ha":0,"x_min":0,"x_max":0,"o":""},"ᾝ":{"ha":0,"x_min":0,"x_max":0,"o":""},"ᾞ":{"ha":0,"x_min":0,"x_max":0,"o":""},"ᾟ":{"ha":0,"x_min":0,"x_max":0,"o":""},"Ἰ":{"ha":-252,"x_min":0,"x_max":0,"o":""},"Ἱ":{"ha":-260,"x_min":0,"x_max":0,"o":""},"Ἲ":{"ha":20,"x_min":0,"x_max":0,"o":""},"Ἳ":{"ha":0,"x_min":0,"x_max":0,"o":""},"Ἴ":{"ha":0,"x_min":0,"x_max":0,"o":""},"Ἵ":{"ha":0,"x_min":0,"x_max":0,"o":""},"Ἶ":{"ha":0,"x_min":0,"x_max":0,"o":""},"Ἷ":{"ha":0,"x_min":0,"x_max":0,"o":""},"Ὶ":{"ha":0,"x_min":0,"x_max":0,"o":""},"Ί":{"ha":0,"x_min":0,"x_max":0,"o":""},"Ῐ":{"ha":0,"x_min":0,"x_max":0,"o":""},"Ῑ":{"ha":0,"x_min":0,"x_max":0,"o":""},"Ὀ":{"ha":313,"x_min":0,"x_max":0,"o":""},"Ὁ":{"ha":359,"x_min":0,"x_max":0,"o":""},"Ὂ":{"ha":584,"x_min":0,"x_max":0,"o":""},"Ὃ":{"ha":0,"x_min":0,"x_max":0,"o":""},"Ὄ":{"ha":0,"x_min":0,"x_max":0,"o":""},"Ὅ":{"ha":0,"x_min":0,"x_max":0,"o":""},"Ὸ":{"ha":0,"x_min":0,"x_max":0,"o":""},"Ό":{"ha":0,"x_min":0,"x_max":0,"o":""},"Ῥ":{"ha":0,"x_min":0,"x_max":0,"o":""},"Ὑ":{"ha":277,"x_min":0,"x_max":0,"o":"m 225 982 z "},"Ὓ":{"ha":454,"x_min":0,"x_max":0,"o":"m 387 982 "},"Ὕ":{"ha":532,"x_min":0,"x_max":0,"o":"m 465 982 "},"Ὗ":{"ha":456,"x_min":0,"x_max":0,"o":"m 406 982 "},"Ὺ":{"ha":309,"x_min":0,"x_max":0,"o":"m 258 982 "},"Ύ":{"ha":298,"x_min":0,"x_max":0,"o":"m 247 982 "},"Ῠ":{"ha":0,"x_min":0,"x_max":0,"o":""},"Ῡ":{"ha":0,"x_min":0,"x_max":0,"o":""},"Ὠ":{"ha":283,"x_min":0,"x_max":0,"o":""},"Ὡ":{"ha":323,"x_min":0,"x_max":0,"o":""},"Ὢ":{"ha":546,"x_min":0,"x_max":0,"o":""},"Ὣ":{"ha":0,"x_min":0,"x_max":0,"o":""},"Ὤ":{"ha":0,"x_min":0,"x_max":0,"o":""},"Ὥ":{"ha":0,"x_min":0,"x_max":0,"o":""},"Ὦ":{"ha":0,"x_min":0,"x_max":0,"o":""},"Ὧ":{"ha":0,"x_min":0,"x_max":0,"o":""},"Ὼ":{"ha":340,"x_min":0,"x_max":0,"o":"m 179 0 "},"Ώ":{"ha":309,"x_min":0,"x_max":0,"o":"m 148 0 "},"ῼ":{"ha":234,"x_min":0,"x_max":0,"o":""},"ᾨ":{"ha":283,"x_min":0,"x_max":0,"o":""},"ᾩ":{"ha":323,"x_min":0,"x_max":0,"o":""},"ᾪ":{"ha":546,"x_min":0,"x_max":0,"o":""},"ᾫ":{"ha":0,"x_min":0,"x_max":0,"o":""},"ᾬ":{"ha":0,"x_min":0,"x_max":0,"o":""},"ᾭ":{"ha":0,"x_min":0,"x_max":0,"o":""},"ᾮ":{"ha":0,"x_min":0,"x_max":0,"o":""},"ᾯ":{"ha":0,"x_min":0,"x_max":0,"o":""},"Ϳ":{"ha":0,"x_min":0,"x_max":0,"o":""},"α":{"ha":0,"x_min":0,"x_max":0,"o":""},"β":{"ha":10,"x_min":0,"x_max":0,"o":"m 384 996 b 99 731 218 996 99 884 l 99 -277 l 193 -277 l 193 87 l 198 90 b 404 -15 248 14 324 -15 b 703 282 579 -15 703 114 b 553 537 703 389 653 490 b 661 743 625 585 661 664 b 384 996 661 875 555 996 z m 193 235 l 193 730 b 382 909 193 837 274 909 b 570 742 490 909 570 840 b 382 570 570 650 498 570 l 326 570 l 326 484 l 419 484 b 612 283 534 484 610 392 b 395 72 612 168 528 72 b 193 235 279 72 203 144 z "},"γ":{"ha":0,"x_min":0,"x_max":0,"o":""},"δ":{"ha":-101,"x_min":0,"x_max":0,"o":"m 102 841 b 247 656 102 757 153 694 l 247 654 b 22 342 118 623 22 500 l 22 331 b 334 -14 22 133 140 -14 b 644 331 526 -14 644 133 l 644 342 b 370 701 644 514 560 631 b 209 841 240 750 209 795 b 347 939 209 901 258 939 b 524 901 412 939 480 918 l 524 991 b 345 1027 467 1015 412 1027 b 102 841 193 1027 102 955 z m 127 332 l 127 343 b 338 606 127 486 197 598 b 538 343 465 568 538 460 l 538 332 b 334 72 538 186 468 72 b 127 332 198 72 127 186 z "},"ε":{"ha":0,"x_min":0,"x_max":0,"o":""},"ζ":{"ha":-90,"x_min":0,"x_max":0,"o":"m 606 982 l 57 982 l 57 895 l 490 895 l 293 662 b 104 260 170 517 104 412 b 302 14 104 141 175 53 l 361 -5 b 471 -83 431 -27 471 -53 b 408 -202 471 -113 449 -157 l 465 -251 b 572 -69 533 -191 572 -125 b 403 76 572 -8 511 41 l 323 102 b 201 263 244 127 201 183 b 373 614 201 399 260 471 l 606 910 z "},"η":{"ha":-3,"x_min":0,"x_max":0,"o":""},"θ":{"ha":-102,"x_min":0,"x_max":0,"o":"m 628 429 l 628 533 b 331 970 628 831 515 970 b 35 533 148 970 35 831 l 35 429 b 332 -14 35 129 151 -14 b 628 429 515 -14 628 129 z m 534 549 l 534 521 l 127 521 l 127 549 b 331 887 127 769 208 887 b 534 549 457 887 534 769 z m 127 414 l 127 434 l 534 434 l 534 414 b 332 71 534 193 457 71 b 127 414 209 71 127 194 z "},"ɩ":{"ha":-447,"x_min":0,"x_max":0,"o":""},"ι":{"ha":-447,"x_min":0,"x_max":0,"o":""},"κ":{"ha":0,"x_min":0,"x_max":0,"o":""},"λ":{"ha":-9,"x_min":0,"x_max":0,"o":"m 670 -9 b 720 -3 686 -9 703 -7 l 699 79 b 670 76 692 77 678 76 b 604 152 635 76 621 106 l 351 838 b 151 996 312 947 250 996 b 72 983 117 996 88 989 l 98 902 b 271 802 191 925 233 903 l 302 722 l 38 0 l 137 0 l 345 594 l 353 594 l 519 123 b 670 -9 552 30 601 -9 z "},"μ":{"ha":32,"x_min":0,"x_max":0,"o":""},"ν":{"ha":-25,"x_min":0,"x_max":0,"o":"m 311 0 l 406 0 b 675 736 582 233 671 486 l 583 736 b 370 99 576 524 529 345 l 363 99 l 138 736 l 39 736 z "},"ξ":{"ha":-71,"x_min":0,"x_max":0,"o":"m 581 883 l 597 967 b 425 996 553 985 488 996 b 115 768 243 996 115 902 b 285 564 115 672 179 600 b 77 285 151 524 77 429 b 353 1 77 137 161 45 l 397 -9 b 514 -90 483 -30 514 -49 b 448 -209 514 -115 502 -149 l 509 -256 b 616 -66 575 -195 614 -125 b 439 68 616 0 567 38 l 366 85 b 183 296 243 117 183 190 b 453 519 184 445 283 519 l 547 519 l 547 606 l 454 606 b 221 758 309 606 221 662 b 427 909 221 852 301 909 b 581 883 477 909 522 902 z "},"ο":{"ha":12,"x_min":0,"x_max":0,"o":""},"π":{"ha":21,"x_min":0,"x_max":0,"o":"m 724 736 l 26 736 l 26 651 l 133 651 l 133 0 l 225 0 l 225 651 l 530 651 l 530 165 b 674 -9 530 38 586 -9 b 762 4 713 -9 742 -3 l 762 90 b 704 80 747 84 724 80 b 621 170 659 80 621 95 l 621 651 l 724 651 z "},"ρ":{"ha":0,"x_min":0,"x_max":0,"o":""},"ς":{"ha":-75,"x_min":0,"x_max":0,"o":"m 366 747 b 58 369 178 747 58 598 l 58 347 b 376 5 57 161 157 56 b 495 -77 471 -16 495 -33 b 431 -198 496 -111 481 -142 l 488 -247 b 595 -52 549 -193 595 -121 b 406 88 595 14 556 50 b 152 347 229 133 152 217 l 152 369 b 366 661 152 545 233 661 b 537 480 468 661 537 593 l 637 480 b 366 747 637 643 529 747 z "},"σ":{"ha":48,"x_min":0,"x_max":0,"o":"m 65 361 l 65 349 b 380 -14 65 141 186 -14 b 692 332 574 -14 692 145 l 692 343 b 552 628 692 471 642 572 l 749 628 l 749 715 l 378 715 b 65 361 184 715 65 562 z m 171 349 l 171 361 b 380 628 171 509 240 628 b 586 362 519 628 586 509 l 586 351 b 380 72 586 195 517 72 b 171 349 241 72 171 195 z "},"τ":{"ha":-184,"x_min":0,"x_max":0,"o":"m 581 736 l 0 736 l 0 651 l 239 651 l 239 161 b 374 -14 239 38 286 -14 b 487 20 411 -14 448 -7 l 463 95 b 400 75 446 84 423 75 b 331 161 366 75 331 81 l 331 651 l 581 651 z "},"υ":{"ha":3,"x_min":0,"x_max":0,"o":""},"φ":{"ha":159,"x_min":0,"x_max":0,"o":"m 411 604 l 411 75 b 145 384 231 93 145 228 b 269 673 146 509 191 605 l 213 742 b 52 382 110 670 52 536 b 411 -12 52 174 161 5 l 411 -277 l 502 -277 l 502 -12 b 873 372 761 5 873 173 b 560 747 873 589 728 747 b 411 604 464 747 411 701 z m 502 75 l 502 604 b 560 663 502 639 519 663 b 781 372 688 663 779 534 b 502 75 781 223 690 92 z "},"χ":{"ha":40,"x_min":0,"x_max":0,"o":"m 106 -277 l 205 -277 l 426 144 l 575 -151 b 772 -277 628 -256 666 -277 l 800 -277 l 800 -190 l 772 -190 b 651 -111 703 -190 689 -184 l 477 235 l 747 736 l 650 736 l 427 323 l 278 610 b 81 742 221 720 187 742 l 53 742 l 53 656 l 81 656 b 202 571 152 656 160 651 l 377 235 z "},"ψ":{"ha":0,"x_min":0,"x_max":0,"o":""},"ω":{"ha":262,"x_min":0,"x_max":0,"o":""},"ί":{"ha":0,"x_min":0,"x_max":0,"o":""},"ϊ":{"ha":0,"x_min":0,"x_max":0,"o":""},"ΐ":{"ha":0,"x_min":0,"x_max":0,"o":""},"ύ":{"ha":0,"x_min":0,"x_max":0,"o":""},"ϋ":{"ha":0,"x_min":0,"x_max":0,"o":""},"ΰ":{"ha":0,"x_min":0,"x_max":0,"o":""},"ό":{"ha":0,"x_min":0,"x_max":0,"o":""},"ώ":{"ha":0,"x_min":0,"x_max":0,"o":""},"ά":{"ha":0,"x_min":0,"x_max":0,"o":""},"έ":{"ha":0,"x_min":0,"x_max":0,"o":""},"ή":{"ha":0,"x_min":0,"x_max":0,"o":""},"ͱ":{"ha":-79,"x_min":0,"x_max":0,"o":"m 285 0 l 285 312 l 631 312 l 631 397 l 285 397 l 285 576 b 111 747 285 688 206 747 b 52 741 92 747 68 743 l 52 667 b 90 670 62 669 79 670 b 179 574 145 670 179 644 l 179 0 z "},"ͳ":{"ha":-97,"x_min":0,"x_max":0,"o":"m 597 982 l 72 982 l 72 696 l 157 696 l 157 897 l 286 897 l 286 0 l 382 0 l 382 897 l 510 897 l 510 696 l 597 696 z "},"ͷ":{"ha":43,"x_min":0,"x_max":0,"o":"m 319 198 l 540 583 l 540 165 b 659 -14 540 38 585 -14 b 728 5 682 -14 705 -11 l 715 83 b 694 79 709 81 703 79 b 646 168 665 79 646 96 l 646 736 l 540 736 l 540 643 l 410 540 l 187 156 l 187 736 l 83 736 l 83 0 l 187 0 l 187 96 z "},"ͻ":{"ha":0,"x_min":0,"x_max":0,"o":""},"ͼ":{"ha":-73,"x_min":0,"x_max":0,"o":"m 279 366 b 345 304 279 332 302 304 b 410 366 385 304 410 332 b 345 429 410 400 385 429 b 279 366 302 429 279 400 z m 362 -14 b 644 231 511 -14 633 95 l 544 231 b 362 72 533 137 457 72 b 155 351 209 72 155 206 l 155 381 b 363 661 155 532 213 661 b 544 486 467 661 533 587 l 644 486 b 363 746 632 637 526 746 b 49 381 157 746 49 586 l 49 351 b 362 -14 49 151 155 -14 z "},"ͽ":{"ha":-73,"x_min":0,"x_max":0,"o":"m 149 220 l 49 220 b 330 -14 61 95 167 -14 b 644 351 537 -14 644 146 l 644 380 b 331 746 644 582 538 746 b 49 476 182 746 60 637 l 149 476 b 331 661 160 595 236 661 b 538 380 484 661 538 526 l 538 351 b 330 72 538 201 480 72 b 149 220 227 72 160 145 z m 349 297 b 414 359 391 297 414 324 b 349 422 414 393 391 422 b 283 359 308 422 283 393 b 349 297 283 324 308 297 z "},"ϙ":{"ha":40,"x_min":0,"x_max":0,"o":"m 381 68 b 614 -231 533 68 614 -69 b 381 -528 614 -392 533 -528 z m 54 -231 b 319 -605 54 -431 160 -575 l 319 -869 l 425 -869 l 425 -608 b 708 -231 593 -586 708 -438 b 381 152 708 -4 574 152 z "},"ϛ":{"ha":-79,"x_min":0,"x_max":0,"o":"m 445 -161 l 445 -251 b 640 -85 574 -250 640 -186 b 492 68 640 0 590 41 l 340 111 b 153 349 221 145 153 205 l 153 389 b 361 661 153 533 210 661 b 537 473 465 662 533 586 l 637 473 b 359 746 633 637 525 746 b 47 389 155 746 47 587 l 47 349 b 297 27 47 145 146 68 l 433 -5 b 536 -91 500 -20 536 -45 b 445 -161 536 -136 500 -161 z "},"ϝ":{"ha":-73,"x_min":0,"x_max":0,"o":"m 610 736 l 85 736 l 85 -274 l 190 -274 l 190 293 l 467 293 l 467 175 l 552 175 l 552 378 l 190 378 l 190 652 l 610 652 z "},"ϟ":{"ha":-102,"x_min":0,"x_max":0,"o":"m 616 530 l 165 530 l 323 982 l 225 982 l 49 477 l 49 444 l 499 444 l 342 0 l 441 0 l 616 499 z "},"ϡ":{"ha":173,"x_min":0,"x_max":0,"o":"m 160 1025 l 65 972 b 537 643 275 875 428 769 l 73 372 l 114 296 l 590 574 b 704 349 638 505 675 430 l 218 64 l 260 -11 l 730 262 b 784 -283 769 109 784 -71 l 882 -232 b 160 1025 882 416 711 777 z "},"ϗ":{"ha":147,"x_min":0,"x_max":0,"o":"m 245 0 l 605 503 b 661 237 612 393 631 317 b 751 -50 707 102 751 45 b 632 -174 751 -140 707 -174 b 589 -170 618 -174 601 -172 l 589 -252 b 656 -263 606 -258 636 -263 b 854 -50 779 -263 854 -186 b 757 281 854 75 804 145 b 690 623 722 370 698 471 l 772 736 l 661 736 l 307 243 l 307 555 b 127 747 307 678 237 747 b 58 736 106 747 77 742 l 58 652 b 102 658 72 656 88 658 b 202 552 167 658 202 633 l 202 96 l 133 0 z "},"ϐ":{"ha":39,"x_min":0,"x_max":0,"o":"m 427 618 b 186 496 324 618 237 570 b 212 716 186 577 195 652 b 419 674 290 684 358 674 b 642 852 574 674 642 760 b 437 1027 642 962 555 1027 b 95 477 208 1027 95 802 l 95 425 b 404 -14 95 141 208 -14 b 712 313 594 -14 712 117 b 427 618 712 507 594 618 z m 410 532 b 606 313 540 532 606 452 b 404 72 606 170 537 72 b 205 324 269 72 205 175 b 410 532 205 453 300 532 z m 239 799 b 426 940 277 886 338 940 b 536 848 503 941 536 899 b 408 760 536 802 496 760 b 239 799 359 760 303 772 z "},"ϑ":{"ha":50,"x_min":0,"x_max":0,"o":"m 739 416 l 734 500 b 643 486 708 494 675 488 l 643 762 b 429 996 643 910 559 996 b 210 769 298 996 210 913 l 210 760 b 538 401 210 569 341 430 l 538 274 b 365 75 538 145 471 75 b 182 274 252 75 182 152 l 182 522 l 79 522 l 79 274 b 365 -14 79 102 193 -14 b 643 274 530 -14 643 94 l 643 397 b 739 416 677 399 711 406 z m 316 757 l 316 768 b 426 905 316 865 359 905 b 538 761 498 905 538 860 l 538 491 b 316 757 399 518 316 623 z "},"ϕ":{"ha":123,"x_min":0,"x_max":0,"o":"m 399 -277 l 490 -277 l 490 -9 b 831 369 701 10 831 156 b 490 745 831 576 700 723 l 490 997 l 399 997 l 399 745 b 58 369 190 723 57 576 b 399 -9 57 157 189 11 z m 151 369 b 399 663 151 516 239 642 l 399 69 b 151 369 239 92 151 221 z m 490 69 l 490 663 b 739 369 650 642 739 515 b 490 69 739 220 650 92 z "},"ϖ":{"ha":265,"x_min":0,"x_max":0,"o":"m 983 736 l 47 736 l 47 651 l 104 651 b -16 540 68 651 -16 632 b 176 420 -16 439 84 420 b 224 NaN 140 420 224 NaN l 281 NaN z m -557 NaN b -495 NaN -557 NaN -543 NaN l 121 NaN b 183 NaN 169 NaN 183 NaN b 15 NaN 183 NaN 118 NaN b -134 NaN -75 NaN -134 NaN l -134 NaN l -240 NaN l -240 NaN b -389 NaN -240 NaN -298 NaN b -557 NaN -492 NaN -557 NaN z "},"ϰ":{"ha":140,"x_min":0,"x_max":0,"o":"m 138 0 l 251 0 l 593 477 l 593 179 b 772 -14 593 56 663 -14 b 841 -3 793 -14 823 -9 l 841 81 b 798 76 827 77 810 76 b 699 182 734 76 699 102 l 699 625 l 779 736 l 666 736 l 312 243 l 312 556 b 134 747 312 680 243 747 b 64 738 113 747 83 743 l 64 654 b 109 659 77 656 95 659 b 208 553 172 659 208 633 l 208 96 z "},"ϱ":{"ha":44,"x_min":0,"x_max":0,"o":"m 582 -312 l 670 -313 b 439 -104 670 -157 570 -136 b 191 155 311 -74 217 -17 b 425 39 246 85 324 39 b 716 369 606 39 716 180 l 716 380 b 406 747 716 597 600 747 b 95 378 212 747 95 597 l 95 368 l 95 365 l 96 304 b 418 -194 102 -22 227 -155 b 582 -312 526 -218 582 -241 z m 406 125 b 199 369 269 125 199 236 l 199 380 b 406 661 199 543 269 661 b 612 380 544 661 612 543 l 612 368 b 406 125 612 235 543 125 z "},"ϲ":{"ha":-36,"x_min":0,"x_max":0,"o":""},"ϳ":{"ha":0,"x_min":0,"x_max":0,"o":""},"ϵ":{"ha":-201,"x_min":0,"x_max":0,"o":"m 347 85 b 134 326 197 85 140 185 l 406 326 l 406 411 l 134 411 b 347 651 140 551 198 651 l 529 651 l 529 736 l 347 736 b 27 384 133 736 27 594 l 27 355 b 347 0 27 144 132 0 l 529 0 l 529 85 z "},"ϸ":{"ha":0,"x_min":0,"x_max":0,"o":""},"ϻ":{"ha":161,"x_min":0,"x_max":0,"o":"m 465 141 l 212 736 l 77 736 l 77 -274 l 183 -274 l 183 571 l 430 0 l 502 0 l 746 560 l 746 0 l 852 0 l 852 736 l 722 736 z "},"ϼ":{"ha":-24,"x_min":0,"x_max":0,"o":"m 90 374 l 90 -90 l -71 -90 l -71 -161 l 90 -161 l 90 -274 l 183 -274 l 183 -161 l 338 -161 l 338 -90 l 182 -90 l 182 92 b 387 -14 227 24 292 -14 b 681 335 572 -14 681 130 l 681 350 b 381 747 681 590 572 747 b 90 374 206 747 90 618 "},"ἀ":{"ha":0,"x_min":0,"x_max":0,"o":""},"ἁ":{"ha":0,"x_min":0,"x_max":0,"o":""},"ἂ":{"ha":0,"x_min":0,"x_max":0,"o":""},"ἃ":{"ha":0,"x_min":0,"x_max":0,"o":""},"ἄ":{"ha":0,"x_min":0,"x_max":0,"o":""},"ἅ":{"ha":0,"x_min":0,"x_max":0,"o":""},"ἆ":{"ha":0,"x_min":0,"x_max":0,"o":""},"ἇ":{"ha":0,"x_min":0,"x_max":0,"o":""},"ὰ":{"ha":0,"x_min":0,"x_max":0,"o":""},"ά":{"ha":0,"x_min":0,"x_max":0,"o":""},"ᾶ":{"ha":0,"x_min":0,"x_max":0,"o":""},"ᾰ":{"ha":0,"x_min":0,"x_max":0,"o":""},"ᾱ":{"ha":0,"x_min":0,"x_max":0,"o":""},"ᾳ":{"ha":0,"x_min":0,"x_max":0,"o":""},"ᾲ":{"ha":0,"x_min":0,"x_max":0,"o":""},"ᾴ":{"ha":0,"x_min":0,"x_max":0,"o":""},"ᾀ":{"ha":0,"x_min":0,"x_max":0,"o":""},"ᾁ":{"ha":0,"x_min":0,"x_max":0,"o":""},"ᾂ":{"ha":0,"x_min":0,"x_max":0,"o":""},"ᾃ":{"ha":0,"x_min":0,"x_max":0,"o":""},"ᾄ":{"ha":0,"x_min":0,"x_max":0,"o":""},"ᾅ":{"ha":0,"x_min":0,"x_max":0,"o":""},"ᾆ":{"ha":0,"x_min":0,"x_max":0,"o":""},"ᾇ":{"ha":0,"x_min":0,"x_max":0,"o":""},"ᾷ":{"ha":0,"x_min":0,"x_max":0,"o":""},"ἐ":{"ha":0,"x_min":0,"x_max":0,"o":""},"ἑ":{"ha":0,"x_min":0,"x_max":0,"o":""},"ἒ":{"ha":0,"x_min":0,"x_max":0,"o":""},"ἓ":{"ha":0,"x_min":0,"x_max":0,"o":""},"ἔ":{"ha":-59,"x_min":0,"x_max":0,"o":"m -320 -825 b 643 -557 -320 -433 525 -557 b 728 -275 557 -557 728 -387 b NaN -167 728 -184 867 -167 l NaN -167 b NaN -312 NaN -260 NaN -312 b NaN -182 NaN -312 NaN -259 b NaN -43 NaN -102 NaN -43 l NaN -43 l NaN 37 l NaN 37 b NaN 153 NaN 37 NaN 81 b NaN 281 NaN 229 NaN 281 b NaN 153 NaN 281 NaN 233 l NaN 153 b NaN 363 NaN 286 NaN 363 b NaN 438 NaN 363 NaN 467 b NaN 263 NaN 407 NaN 334 z "},"ἕ":{"ha":0,"x_min":0,"x_max":0,"o":""},"ὲ":{"ha":0,"x_min":0,"x_max":0,"o":""},"έ":{"ha":0,"x_min":0,"x_max":0,"o":""},"ἠ":{"ha":-3,"x_min":0,"x_max":0,"o":""},"ἡ":{"ha":-3,"x_min":0,"x_max":0,"o":""},"ἢ":{"ha":-3,"x_min":0,"x_max":0,"o":""},"ἣ":{"ha":0,"x_min":0,"x_max":0,"o":""},"ἤ":{"ha":0,"x_min":0,"x_max":0,"o":""},"ἥ":{"ha":0,"x_min":0,"x_max":0,"o":""},"ἦ":{"ha":-3,"x_min":0,"x_max":0,"o":"m 377 1171 l 327 1184 b 270 1122 326 1149 302 1122 b 126 1180 216 1122 187 1180 b 20 1063 62 1180 22 1126 l 69 1051 b 126 1114 72 1086 94 1114 b 271 1057 182 1114 202 1057 b 377 1171 334 1057 376 1109 z m 245 986 l 245 1027 l 165 1027 l 165 986 b 123 857 165 940 156 902 l 171 830 b 245 986 224 875 245 935 z "},"ἧ":{"ha":0,"x_min":0,"x_max":0,"o":""},"ὴ":{"ha":0,"x_min":0,"x_max":0,"o":""},"ή":{"ha":0,"x_min":0,"x_max":0,"o":""},"ῆ":{"ha":0,"x_min":0,"x_max":0,"o":""},"ῃ":{"ha":-3,"x_min":0,"x_max":0,"o":""},"ῂ":{"ha":0,"x_min":0,"x_max":0,"o":""},"ῄ":{"ha":0,"x_min":0,"x_max":0,"o":""},"ᾐ":{"ha":-3,"x_min":0,"x_max":0,"o":""},"ᾑ":{"ha":-3,"x_min":0,"x_max":0,"o":""},"ᾒ":{"ha":-3,"x_min":0,"x_max":0,"o":""},"ᾓ":{"ha":0,"x_min":0,"x_max":0,"o":""},"ᾔ":{"ha":0,"x_min":0,"x_max":0,"o":""},"ᾕ":{"ha":0,"x_min":0,"x_max":0,"o":""},"ᾖ":{"ha":0,"x_min":0,"x_max":0,"o":""},"ᾗ":{"ha":0,"x_min":0,"x_max":0,"o":""},"ῇ":{"ha":0,"x_min":0,"x_max":0,"o":""},"ἰ":{"ha":-447,"x_min":0,"x_max":0,"o":""},"ἱ":{"ha":-447,"x_min":0,"x_max":0,"o":""},"ἲ":{"ha":-447,"x_min":0,"x_max":0,"o":""},"ἳ":{"ha":0,"x_min":0,"x_max":0,"o":""},"ἴ":{"ha":0,"x_min":0,"x_max":0,"o":""},"ἵ":{"ha":0,"x_min":0,"x_max":0,"o":""},"ἶ":{"ha":0,"x_min":0,"x_max":0,"o":""},"ἷ":{"ha":0,"x_min":0,"x_max":0,"o":""},"ὶ":{"ha":0,"x_min":0,"x_max":0,"o":""},"ί":{"ha":0,"x_min":0,"x_max":0,"o":""},"ῖ":{"ha":0,"x_min":0,"x_max":0,"o":""},"ῐ":{"ha":0,"x_min":0,"x_max":0,"o":""},"ῑ":{"ha":0,"x_min":0,"x_max":0,"o":""},"ῒ":{"ha":0,"x_min":0,"x_max":0,"o":""},"ΐ":{"ha":0,"x_min":0,"x_max":0,"o":""},"ῗ":{"ha":0,"x_min":0,"x_max":0,"o":""},"ὀ":{"ha":12,"x_min":0,"x_max":0,"o":""},"ὁ":{"ha":12,"x_min":0,"x_max":0,"o":""},"ὂ":{"ha":12,"x_min":0,"x_max":0,"o":""},"ὃ":{"ha":0,"x_min":0,"x_max":0,"o":""},"ὄ":{"ha":0,"x_min":0,"x_max":0,"o":""},"ὅ":{"ha":0,"x_min":0,"x_max":0,"o":""},"ὸ":{"ha":0,"x_min":0,"x_max":0,"o":""},"ό":{"ha":0,"x_min":0,"x_max":0,"o":""},"ῤ":{"ha":0,"x_min":0,"x_max":0,"o":""},"ῥ":{"ha":0,"x_min":0,"x_max":0,"o":""},"ὐ":{"ha":3,"x_min":0,"x_max":0,"o":""},"ὑ":{"ha":3,"x_min":0,"x_max":0,"o":""},"ὒ":{"ha":3,"x_min":0,"x_max":0,"o":""},"ὓ":{"ha":0,"x_min":0,"x_max":0,"o":""},"ὔ":{"ha":0,"x_min":0,"x_max":0,"o":""},"ὕ":{"ha":0,"x_min":0,"x_max":0,"o":""},"ὖ":{"ha":0,"x_min":0,"x_max":0,"o":""},"ὗ":{"ha":0,"x_min":0,"x_max":0,"o":""},"ὺ":{"ha":0,"x_min":0,"x_max":0,"o":""},"ύ":{"ha":0,"x_min":0,"x_max":0,"o":""},"ῦ":{"ha":0,"x_min":0,"x_max":0,"o":""},"ῠ":{"ha":0,"x_min":0,"x_max":0,"o":""},"ῡ":{"ha":0,"x_min":0,"x_max":0,"o":""},"ῢ":{"ha":3,"x_min":0,"x_max":0,"o":"m 148 269 l 218 269 l 133 412 l 35 412 z m 39 174 b 27 189 5 174 27 146 z m 301 187 b 289 201 266 187 289 160 z "},"ΰ":{"ha":0,"x_min":0,"x_max":0,"o":""},"ῧ":{"ha":0,"x_min":0,"x_max":0,"o":""},"ὠ":{"ha":262,"x_min":0,"x_max":0,"o":""},"ὡ":{"ha":262,"x_min":0,"x_max":0,"o":""},"ὢ":{"ha":262,"x_min":0,"x_max":0,"o":""},"ὣ":{"ha":0,"x_min":0,"x_max":0,"o":""},"ὤ":{"ha":0,"x_min":0,"x_max":0,"o":""},"ὥ":{"ha":0,"x_min":0,"x_max":0,"o":""},"ὦ":{"ha":0,"x_min":0,"x_max":0,"o":""},"ὧ":{"ha":0,"x_min":0,"x_max":0,"o":""},"ὼ":{"ha":0,"x_min":0,"x_max":0,"o":""},"ώ":{"ha":0,"x_min":0,"x_max":0,"o":""},"ῶ":{"ha":0,"x_min":0,"x_max":0,"o":""},"ῳ":{"ha":262,"x_min":0,"x_max":0,"o":""},"ῲ":{"ha":0,"x_min":0,"x_max":0,"o":""},"ῴ":{"ha":0,"x_min":0,"x_max":0,"o":""},"ᾠ":{"ha":262,"x_min":0,"x_max":0,"o":""},"ᾡ":{"ha":262,"x_min":0,"x_max":0,"o":""},"ᾢ":{"ha":262,"x_min":0,"x_max":0,"o":""},"ᾣ":{"ha":0,"x_min":0,"x_max":0,"o":""},"ᾤ":{"ha":0,"x_min":0,"x_max":0,"o":""},"ᾥ":{"ha":0,"x_min":0,"x_max":0,"o":""},"ᾦ":{"ha":0,"x_min":0,"x_max":0,"o":""},"ᾧ":{"ha":0,"x_min":0,"x_max":0,"o":""},"ῷ":{"ha":0,"x_min":0,"x_max":0,"o":""},"ι":{"ha":-439,"x_min":0,"x_max":0,"o":""},"ͺ":{"ha":-439,"x_min":0,"x_max":0,"o":""},"ㄱ":{"ha":0,"x_min":0,"x_max":0,"o":"m 974 795 l 228 795 l 228 722 l 887 722 l 887 178 l 974 178 z "},"ﾡ":{"ha":0,"x_min":0,"x_max":0,"o":"m 974 795 l 228 795 l 228 722 l 887 722 l 887 178 l 974 178 z "},"ㄲ":{"ha":0,"x_min":0,"x_max":0,"o":"m 590 795 l 183 795 l 183 722 l 507 722 l 507 178 l 590 178 l 1072 178 l 1072 798 l 525 798 l 525 883 z "},"ﾢ":{"ha":0,"x_min":0,"x_max":0,"o":"m 590 795 l 183 795 l 183 722 l 507 722 l 507 178 l 590 178 l 1072 178 l 1072 798 l 525 798 l 525 883 z "},"ㄳ":{"ha":0,"x_min":0,"x_max":0,"o":"m 541 793 l 172 793 l 172 722 l 457 722 l 457 178 l 541 178 z m 884 579 l 884 808 l 800 808 l 800 579 b 579 233 800 445 728 297 l 628 170 b 842 415 736 218 807 309 b 1055 170 876 309 946 218 l 1104 233 b 884 579 955 297 884 445 z "},"ﾣ":{"ha":0,"x_min":0,"x_max":0,"o":"m 541 793 l 172 793 l 172 722 l 457 722 l 457 178 l 541 178 z m 884 579 l 884 808 l 800 808 l 800 579 b 579 233 800 445 728 297 l 628 170 b 842 415 736 218 807 309 b 1055 170 876 309 946 218 l 1104 233 b 884 579 955 297 884 445 z "},"ㄴ":{"ha":0,"x_min":0,"x_max":0,"o":"m 998 256 l 323 256 l 323 795 l 237 795 l 237 184 l 998 184 z "},"ﾤ":{"ha":0,"x_min":0,"x_max":0,"o":"m 998 256 l 323 256 l 323 795 l 237 795 l 237 184 l 998 184 z "},"ㄵ":{"ha":0,"x_min":0,"x_max":0,"o":"m 297 800 l 212 800 l 212 170 l 264 170 b 563 203 361 168 457 171 l 595 161 b 800 415 700 213 766 307 b 1006 160 833 307 901 212 l 1058 227 b 841 591 909 294 841 450 l 841 720 l 1024 720 l 1024 791 l 578 791 l 578 720 l 760 720 l 760 591 b 560 235 758 455 696 305 l 551 277 b 297 240 467 247 378 241 z "},"ﾥ":{"ha":0,"x_min":0,"x_max":0,"o":"m 297 800 l 212 800 l 212 170 l 264 170 b 563 203 361 168 457 171 l 595 161 b 800 415 700 213 766 307 b 1006 160 833 307 901 212 l 1058 227 b 841 591 909 294 841 450 l 841 720 l 1024 720 l 1024 791 l 578 791 l 578 720 l 760 720 l 760 591 b 560 235 758 455 696 305 l 551 277 b 297 240 467 247 378 241 z "},"ㄶ":{"ha":0,"x_min":0,"x_max":0,"o":"m 296 774 l 210 774 l 210 174 l 264 174 b 566 210 361 174 458 175 l 551 282 b 296 244 467 252 377 245 z m 1020 689 l 837 689 l 837 815 l 754 815 l 754 689 l 563 689 l 563 617 l 1020 617 z m 792 567 b 595 358 680 567 595 481 b 792 152 595 236 680 152 b 987 358 902 152 987 236 b 792 567 987 481 902 567 z m 792 498 b 916 358 864 496 914 439 b 792 220 914 279 864 220 b 670 358 720 220 670 279 b 792 498 670 439 720 496 z "},"ﾦ":{"ha":0,"x_min":0,"x_max":0,"o":"m 296 774 l 210 774 l 210 174 l 264 174 b 566 210 361 174 458 175 l 551 282 b 296 244 467 252 377 245 z m 1020 689 l 837 689 l 837 815 l 754 815 l 754 689 l 563 689 l 563 617 l 1020 617 z m 792 567 b 595 358 680 567 595 481 b 792 152 595 236 680 152 b 987 358 902 152 987 236 b 792 567 987 481 902 567 z m 792 498 b 916 358 864 496 914 439 b 792 220 914 279 864 220 b 670 358 720 220 670 279 b 792 498 670 439 720 496 z "},"ㄷ":{"ha":0,"x_min":0,"x_max":0,"o":"m 970 802 l 240 802 l 240 180 l 983 180 l 983 252 l 326 252 l 326 730 l 970 730 z "},"ﾧ":{"ha":0,"x_min":0,"x_max":0,"o":"m 970 802 l 240 802 l 240 180 l 983 180 l 983 252 l 326 252 l 326 730 l 970 730 z "},"ㄸ":{"ha":0,"x_min":0,"x_max":0,"o":"m 582 802 l 206 802 l 206 186 l 264 186 b 593 220 365 186 468 190 l 582 292 b 290 260 475 266 379 261 l 290 730 l 582 730 z m 1005 802 l 631 802 l 631 184 l 1010 184 l 1010 256 l 715 256 l 715 730 l 1005 730 z "},"ﾨ":{"ha":0,"x_min":0,"x_max":0,"o":"m 582 802 l 206 802 l 206 186 l 264 186 b 593 220 365 186 468 190 l 582 292 b 290 260 475 266 379 261 l 290 730 l 582 730 z m 1005 802 l 631 802 l 631 184 l 1010 184 l 1010 256 l 715 256 l 715 730 l 1005 730 z "},"ㄹ":{"ha":0,"x_min":0,"x_max":0,"o":"m 978 815 l 225 815 l 225 745 l 895 745 l 895 528 l 229 528 l 229 167 l 1000 167 l 1000 239 l 311 239 l 311 457 l 978 457 z "},"ﾩ":{"ha":0,"x_min":0,"x_max":0,"o":"m 978 815 l 225 815 l 225 745 l 895 745 l 895 528 l 229 528 l 229 167 l 1000 167 l 1000 239 l 311 239 l 311 457 l 978 457 z "},"ㄺ":{"ha":0,"x_min":0,"x_max":0,"o":"m 587 807 l 195 807 l 195 735 l 503 735 l 503 532 l 198 532 l 198 176 l 266 176 b 662 209 388 176 509 180 l 651 281 b 282 247 513 252 394 248 l 282 460 l 587 460 z m 1023 807 l 631 807 l 631 735 l 939 735 l 939 180 l 1023 180 z "},"ﾪ":{"ha":0,"x_min":0,"x_max":0,"o":"m 587 807 l 195 807 l 195 735 l 503 735 l 503 532 l 198 532 l 198 176 l 266 176 b 662 209 388 176 509 180 l 651 281 b 282 247 513 252 394 248 l 282 460 l 587 460 z m 1023 807 l 631 807 l 631 735 l 939 735 l 939 180 l 1023 180 z "},"ㄻ":{"ha":0,"x_min":0,"x_max":0,"o":"l 61 0 b 414 27 164 0 271 3 l 404 98 b 84 72 278 77 177 73 l 84 283 l 382 283 m 838 629 l 439 629 l 439 1 l 838 1 z m 517 557 l 761 557 l 761 72 l 517 72 z "},"ﾫ":{"ha":0,"x_min":0,"x_max":0,"o":"l 61 0 b 414 27 164 0 271 3 l 404 98 b 84 72 278 77 177 73 l 84 283 l 382 283 m 838 629 l 439 629 l 439 1 l 838 1 z m 517 557 l 761 557 l 761 72 l 517 72 z "},"ㄼ":{"ha":0,"x_min":0,"x_max":0,"o":"l 62 0 b 423 31 172 0 282 3 l 412 102 b 84 71 289 77 182 71 l 84 283 l 382 283 m 522 631 l 442 631 l 442 0 l 841 0 l 841 631 l 760 631 l 760 399 l 522 399 z m 522 72 l 522 327 l 760 327 l 760 72 z "},"ﾬ":{"ha":0,"x_min":0,"x_max":0,"o":"l 62 0 b 423 31 172 0 282 3 l 412 102 b 84 71 289 77 182 71 l 84 283 l 382 283 m 522 631 l 442 631 l 442 0 l 841 0 l 841 631 l 760 631 l 760 399 l 522 399 z m 522 72 l 522 327 l 760 327 l 760 72 z "},"ㄽ":{"ha":0,"x_min":0,"x_max":0,"o":"m 578 806 l 193 806 l 193 734 l 494 734 l 494 532 l 197 532 l 197 176 l 258 176 b 610 213 371 176 480 182 l 640 172 b 852 416 747 221 817 313 b 1062 172 885 313 954 221 l 1111 236 b 891 579 963 300 891 448 l 891 810 l 810 810 l 810 579 b 609 244 810 452 743 311 l 602 285 b 281 248 488 254 382 249 l 281 460 l 578 460 z "},"ﾭ":{"ha":0,"x_min":0,"x_max":0,"o":"m 578 806 l 193 806 l 193 734 l 494 734 l 494 532 l 197 532 l 197 176 l 258 176 b 610 213 371 176 480 182 l 640 172 b 852 416 747 221 817 313 b 1062 172 885 313 954 221 l 1111 236 b 891 579 963 300 891 448 l 891 810 l 810 810 l 810 579 b 609 244 810 452 743 311 l 602 285 b 281 248 488 254 382 249 l 281 460 l 578 460 z "},"ㄾ":{"ha":0,"x_min":0,"x_max":0,"o":"m 579 806 l 195 806 l 195 734 l 495 734 l 495 532 l 198 532 l 198 179 l 259 179 b 614 216 373 179 484 183 l 604 288 b 282 250 489 257 384 252 l 282 460 l 579 460 z m 1047 806 l 652 806 l 652 178 l 1054 178 l 1054 250 l 738 250 l 738 461 l 1031 461 l 1031 533 l 738 533 l 738 734 l 1047 734 z "},"ﾮ":{"ha":0,"x_min":0,"x_max":0,"o":"m 579 806 l 195 806 l 195 734 l 495 734 l 495 532 l 198 532 l 198 179 l 259 179 b 614 216 373 179 484 183 l 604 288 b 282 250 489 257 384 252 l 282 460 l 579 460 z m 1047 806 l 652 806 l 652 178 l 1054 178 l 1054 250 l 738 250 l 738 461 l 1031 461 l 1031 533 l 738 533 l 738 734 l 1047 734 z "},"ㄿ":{"ha":0,"x_min":0,"x_max":0,"o":"m 564 806 l 195 806 l 195 734 l 480 734 l 480 532 l 197 532 l 197 176 l 258 176 b 608 212 369 176 479 182 l 597 285 b 281 248 485 254 380 249 l 281 460 l 564 460 z m 1048 804 l 625 804 l 625 732 l 700 732 l 700 248 l 620 248 l 620 176 l 1057 176 l 1057 248 l 977 248 l 977 732 l 1048 732 z m 777 248 l 777 732 l 898 732 l 898 248 z "},"ﾯ":{"ha":0,"x_min":0,"x_max":0,"o":"m 564 806 l 195 806 l 195 734 l 480 734 l 480 532 l 197 532 l 197 176 l 258 176 b 608 212 369 176 479 182 l 597 285 b 281 248 485 254 380 249 l 281 460 l 564 460 z m 1048 804 l 625 804 l 625 732 l 700 732 l 700 248 l 620 248 l 620 176 l 1057 176 l 1057 248 l 977 248 l 977 732 l 1048 732 z m 777 248 l 777 732 l 898 732 l 898 248 z "},"ㅀ":{"ha":0,"x_min":0,"x_max":0,"o":"m 547 806 l 197 806 l 197 735 l 463 735 l 463 533 l 199 533 l 199 176 l 259 176 b 597 209 363 176 471 180 l 586 281 b 285 248 477 254 378 249 l 285 463 l 547 463 z m 1042 696 l 860 696 l 860 833 l 777 833 l 777 696 l 590 696 l 590 623 l 1042 623 z m 817 572 b 620 370 705 572 618 491 b 817 168 618 250 705 168 b 1012 370 926 168 1010 250 b 817 572 1010 491 926 572 z m 817 503 b 937 370 887 503 937 448 b 817 237 937 292 887 236 b 693 370 742 236 693 292 b 817 503 693 448 742 503 z "},"ﾰ":{"ha":0,"x_min":0,"x_max":0,"o":"m 547 806 l 197 806 l 197 735 l 463 735 l 463 533 l 199 533 l 199 176 l 259 176 b 597 209 363 176 471 180 l 586 281 b 285 248 477 254 378 249 l 285 463 l 547 463 z m 1042 696 l 860 696 l 860 833 l 777 833 l 777 696 l 590 696 l 590 623 l 1042 623 z m 817 572 b 620 370 705 572 618 491 b 817 168 618 250 705 168 b 1012 370 926 168 1010 250 b 817 572 1010 491 926 572 z m 817 503 b 937 370 887 503 937 448 b 817 237 937 292 887 236 b 693 370 742 236 693 292 b 817 503 693 448 742 503 z "},"ㅁ":{"ha":0,"x_min":0,"x_max":0,"o":"m 983 803 l 233 803 l 233 179 l 983 179 z m 319 730 l 897 730 l 897 251 l 319 251 z "},"ﾱ":{"ha":0,"x_min":0,"x_max":0,"o":"m 983 803 l 233 803 l 233 179 l 983 179 z m 319 730 l 897 730 l 897 251 l 319 251 z "},"ㅂ":{"ha":0,"x_min":0,"x_max":0,"o":"m 320 815 l 235 815 l 235 176 l 978 176 l 978 815 l 891 815 l 891 583 l 320 583 z m 320 251 l 320 507 l 891 507 l 891 251 z "},"ﾲ":{"ha":0,"x_min":0,"x_max":0,"o":"m 320 815 l 235 815 l 235 176 l 978 176 l 978 815 l 891 815 l 891 583 l 320 583 z m 320 251 l 320 507 l 891 507 l 891 251 z "},"ㅃ":{"ha":290,"x_min":0,"x_max":0,"o":"m 214 556 z "},"ﾳ":{"ha":290,"x_min":0,"x_max":0,"o":"m 214 556 z "},"ㅄ":{"ha":-606,"x_min":0,"x_max":0,"o":"m 897 579 l 897 808 l 814 808 l 814 579 b 593 233 812 445 741 297 l 640 170 b 856 415 749 218 820 309 b 1070 170 890 309 960 218 l 1118 233 b 897 579 968 297 895 445 z "},"ﾴ":{"ha":-606,"x_min":0,"x_max":0,"o":"m 897 579 l 897 808 l 814 808 l 814 579 b 593 233 812 445 741 297 l 640 170 b 856 415 749 218 820 309 b 1070 170 890 309 960 218 l 1118 233 b 897 579 968 297 895 445 z "},"ㅅ":{"ha":0,"x_min":0,"x_max":0,"o":"m 651 627 l 651 826 l 567 826 l 567 627 b 187 236 566 418 387 283 l 229 165 b 609 461 395 210 545 307 b 989 165 673 307 825 210 l 1031 236 b 651 627 830 283 651 418 z "},"ﾵ":{"ha":0,"x_min":0,"x_max":0,"o":"m 651 627 l 651 826 l 567 826 l 567 627 b 187 236 566 418 387 283 l 229 165 b 609 461 395 210 545 307 b 989 165 673 307 825 210 l 1031 236 b 651 627 830 283 651 418 z "},"ㅆ":{"ha":0,"x_min":0,"x_max":0,"o":"m 433 608 l 433 796 l 347 796 l 347 613 b 132 259 346 500 279 332 l 183 195 b 391 458 290 251 357 353 b 609 176 424 347 495 235 b 829 453 723 232 793 341 b 1038 197 861 347 929 250 l 1088 262 b 872 613 937 330 872 484 l 872 796 l 785 796 l 785 608 b 610 270 785 498 728 352 b 433 608 489 355 431 505 z "},"ﾶ":{"ha":0,"x_min":0,"x_max":0,"o":"m 433 608 l 433 796 l 347 796 l 347 613 b 132 259 346 500 279 332 l 183 195 b 391 458 290 251 357 353 b 609 176 424 347 495 235 b 829 453 723 232 793 341 b 1038 197 861 347 929 250 l 1088 262 b 872 613 937 330 872 484 l 872 796 l 785 796 l 785 608 b 610 270 785 498 728 352 b 433 608 489 355 431 505 z "},"ㅇ":{"ha":0,"x_min":0,"x_max":0,"o":"m 601 822 b 227 495 389 821 225 686 b 601 170 225 305 389 170 b 975 495 811 170 975 305 b 601 822 975 686 811 821 z m 601 746 b 890 495 764 746 890 637 b 601 243 890 353 764 241 b 311 495 438 241 311 353 b 601 746 311 637 438 746 z "},"ﾷ":{"ha":0,"x_min":0,"x_max":0,"o":"m 601 822 b 227 495 389 821 225 686 b 601 170 225 305 389 170 b 975 495 811 170 975 305 b 601 822 975 686 811 821 z m 601 746 b 890 495 764 746 890 637 b 601 243 890 353 764 241 b 311 495 438 241 311 353 b 601 746 311 637 438 746 z "},"ㅈ":{"ha":0,"x_min":0,"x_max":0,"o":"m 655 643 l 655 742 l 982 742 l 982 814 l 245 814 l 245 742 l 570 742 l 570 643 b 213 241 570 437 407 296 l 256 172 b 613 479 416 222 554 323 b 970 172 671 323 810 222 l 1013 241 b 655 643 819 296 655 437 z "},"ﾸ":{"ha":0,"x_min":0,"x_max":0,"o":"m 655 643 l 655 742 l 982 742 l 982 814 l 245 814 l 245 742 l 570 742 l 570 643 b 213 241 570 437 407 296 l 256 172 b 613 479 416 222 554 323 b 970 172 671 323 810 222 l 1013 241 b 655 643 819 296 655 437 z "},"ㅉ":{"ha":0,"x_min":0,"x_max":0,"o":"m 429 643 l 429 751 l 585 751 l 585 825 l 174 825 l 174 751 l 343 751 l 343 643 b 123 258 343 496 277 328 l 178 190 b 381 435 278 241 344 332 b 609 174 414 313 486 223 b 837 433 730 223 802 311 b 1034 190 871 330 934 241 l 1088 258 b 876 643 936 331 875 498 l 876 751 l 1043 751 l 1043 825 l 633 825 l 633 751 l 789 751 l 789 643 b 609 267 789 469 736 333 b 429 643 482 333 427 469 z "},"ﾹ":{"ha":0,"x_min":0,"x_max":0,"o":"m 429 643 l 429 751 l 585 751 l 585 825 l 174 825 l 174 751 l 343 751 l 343 643 b 123 258 343 496 277 328 l 178 190 b 381 435 278 241 344 332 b 609 174 414 313 486 223 b 837 433 730 223 802 311 b 1034 190 871 330 934 241 l 1088 258 b 876 643 936 331 875 498 l 876 751 l 1043 751 l 1043 825 l 633 825 l 633 751 l 789 751 l 789 643 b 609 267 789 469 736 333 b 429 643 482 333 427 469 z "},"ㅊ":{"ha":0,"x_min":0,"x_max":0,"o":"m 652 585 l 652 628 l 974 628 l 974 701 l 648 701 l 648 872 l 562 872 l 562 701 l 235 701 l 235 628 l 555 628 l 555 585 b 206 208 555 393 397 258 l 250 141 b 604 437 408 187 548 286 b 960 141 660 286 800 187 l 1004 208 b 652 585 810 258 652 393 z "},"ﾺ":{"ha":0,"x_min":0,"x_max":0,"o":"m 652 585 l 652 628 l 974 628 l 974 701 l 648 701 l 648 872 l 562 872 l 562 701 l 235 701 l 235 628 l 555 628 l 555 585 b 206 208 555 393 397 258 l 250 141 b 604 437 408 187 548 286 b 960 141 660 286 800 187 l 1004 208 b 652 585 810 258 652 393 z "},"ㅋ":{"ha":0,"x_min":0,"x_max":0,"o":"m 978 818 l 240 818 l 240 745 l 892 745 l 892 530 l 216 499 l 229 418 l 892 461 l 892 168 l 978 168 z "},"ﾻ":{"ha":0,"x_min":0,"x_max":0,"o":"m 978 818 l 240 818 l 240 745 l 892 745 l 892 530 l 216 499 l 229 418 l 892 461 l 892 168 l 978 168 z "},"ㅌ":{"ha":0,"x_min":0,"x_max":0,"o":"m 982 804 l 240 804 l 240 178 l 994 178 l 994 250 l 323 250 l 323 461 l 972 461 l 972 534 l 323 534 l 323 732 l 982 732 z "},"ﾼ":{"ha":0,"x_min":0,"x_max":0,"o":"m 982 804 l 240 804 l 240 178 l 994 178 l 994 250 l 323 250 l 323 461 l 972 461 l 972 534 l 323 534 l 323 732 l 982 732 z "},"ㅍ":{"ha":0,"x_min":0,"x_max":0,"o":"m 996 800 l 220 800 l 220 728 l 391 728 l 391 244 l 202 244 l 202 172 l 1015 172 l 1015 244 l 825 244 l 825 728 l 996 728 z m 477 244 l 477 728 l 739 728 l 739 244 z "},"ﾽ":{"ha":0,"x_min":0,"x_max":0,"o":"m 996 800 l 220 800 l 220 728 l 391 728 l 391 244 l 202 244 l 202 172 l 1015 172 l 1015 244 l 825 244 l 825 728 l 996 728 z m 477 244 l 477 728 l 739 728 l 739 244 z "},"ㅎ":{"ha":0,"x_min":0,"x_max":0,"o":"m 1009 712 l 652 712 l 652 878 l 566 878 l 566 712 l 208 712 l 208 639 l 1009 639 z m 608 547 b 320 334 441 547 319 458 b 608 121 319 209 441 121 b 898 334 776 121 897 209 b 608 547 897 458 776 547 z m 608 472 b 810 334 723 473 810 414 b 608 194 810 254 723 193 b 407 334 494 193 407 254 b 608 472 407 414 494 473 z "},"ﾾ":{"ha":0,"x_min":0,"x_max":0,"o":"m 1009 712 l 652 712 l 652 878 l 566 878 l 566 712 l 208 712 l 208 639 l 1009 639 z m 608 547 b 320 334 441 547 319 458 b 608 121 319 209 441 121 b 898 334 776 121 897 209 b 608 547 897 458 776 547 z m 608 472 b 810 334 723 473 810 414 b 608 194 810 254 723 193 b 407 334 494 193 407 254 b 608 472 407 414 494 473 z "},"ㅏ":{"ha":0,"x_min":0,"x_max":0,"o":"m 608 1066 l 522 1066 l 522 -106 l 608 -106 l 608 506 l 901 506 l 901 578 l 608 578 z "},"ￂ":{"ha":0,"x_min":0,"x_max":0,"o":"m 608 1066 l 522 1066 l 522 -106 l 608 -106 l 608 506 l 901 506 l 901 578 l 608 578 z "},"ㅐ":{"ha":0,"x_min":0,"x_max":0,"o":"m 806 1070 l 724 1070 l 724 589 l 495 589 l 495 1050 l 414 1050 l 414 -58 l 495 -58 l 495 517 l 724 517 l 724 -102 l 806 -102 z "},"ￃ":{"ha":0,"x_min":0,"x_max":0,"o":"m 806 1070 l 724 1070 l 724 589 l 495 589 l 495 1050 l 414 1050 l 414 -58 l 495 -58 l 495 517 l 724 517 l 724 -102 l 806 -102 z "},"ㅑ":{"ha":0,"x_min":0,"x_max":0,"o":"m 853 707 l 568 707 l 568 1069 l 483 1069 l 483 -102 l 568 -102 l 568 312 l 853 312 l 853 385 l 568 385 l 568 633 l 853 633 z "},"ￄ":{"ha":0,"x_min":0,"x_max":0,"o":"m 853 707 l 568 707 l 568 1069 l 483 1069 l 483 -102 l 568 -102 l 568 312 l 853 312 l 853 385 l 568 385 l 568 633 l 853 633 z "},"ㅒ":{"ha":0,"x_min":0,"x_max":0,"o":"m 803 1069 l 720 1069 l 720 722 l 495 722 l 495 1050 l 414 1050 l 414 -60 l 495 -60 l 495 332 l 720 332 l 720 -104 l 803 -104 z m 495 404 l 495 648 l 720 648 l 720 404 z "},"ￅ":{"ha":0,"x_min":0,"x_max":0,"o":"m 803 1069 l 720 1069 l 720 722 l 495 722 l 495 1050 l 414 1050 l 414 -60 l 495 -60 l 495 332 l 720 332 l 720 -104 l 803 -104 z m 495 404 l 495 648 l 720 648 l 720 404 z "},"ㅓ":{"ha":0,"x_min":0,"x_max":0,"o":"m 764 1067 l 678 1067 l 678 583 l 384 583 l 384 510 l 678 510 l 678 -104 l 764 -104 z "},"ￆ":{"ha":0,"x_min":0,"x_max":0,"o":"m 764 1067 l 678 1067 l 678 583 l 384 583 l 384 510 l 678 510 l 678 -104 l 764 -104 z "},"ㅔ":{"ha":0,"x_min":0,"x_max":0,"o":"m 850 1067 l 766 1067 l 766 -106 l 850 -106 z m 617 1048 l 534 1048 l 534 590 l 297 590 l 297 517 l 534 517 l 534 -61 l 617 -61 z "},"ￇ":{"ha":0,"x_min":0,"x_max":0,"o":"m 850 1067 l 766 1067 l 766 -106 l 850 -106 z m 617 1048 l 534 1048 l 534 590 l 297 590 l 297 517 l 534 517 l 534 -61 l 617 -61 z "},"ㅕ":{"ha":0,"x_min":0,"x_max":0,"o":"m 766 1069 l 681 1069 l 681 726 l 387 726 l 387 652 l 681 652 l 681 422 l 387 422 l 387 347 l 681 347 l 681 -103 l 766 -103 z "},"ￊ":{"ha":0,"x_min":0,"x_max":0,"o":"m 766 1069 l 681 1069 l 681 726 l 387 726 l 387 652 l 681 652 l 681 422 l 387 422 l 387 347 l 681 347 l 681 -103 l 766 -103 z "},"ㅖ":{"ha":0,"x_min":0,"x_max":0,"o":"m 848 1065 l 765 1065 l 765 -107 l 848 -107 z m 617 1048 l 534 1048 l 534 736 l 296 736 l 296 663 l 534 663 l 534 426 l 294 426 l 294 354 l 534 354 l 534 -61 l 617 -61 z "},"ￋ":{"ha":0,"x_min":0,"x_max":0,"o":"m 848 1065 l 765 1065 l 765 -107 l 848 -107 z m 617 1048 l 534 1048 l 534 736 l 296 736 l 296 663 l 534 663 l 534 426 l 294 426 l 294 354 l 534 354 l 534 -61 l 617 -61 z "},"ㅗ":{"ha":0,"x_min":0,"x_max":0,"o":"m 1141 334 l 640 334 l 640 846 l 555 846 l 555 334 l 56 334 l 56 262 l 1141 262 z "},"ￌ":{"ha":0,"x_min":0,"x_max":0,"o":"m 1141 334 l 640 334 l 640 846 l 555 846 l 555 334 l 56 334 l 56 262 l 1141 262 z "},"ㅘ":{"ha":0,"x_min":0,"x_max":0,"o":"m 490 697 l 404 697 l 404 282 b 71 277 285 277 170 277 l 84 202 b 821 247 290 202 574 209 l 814 311 b 490 285 712 298 600 290 z m 959 1066 l 873 1066 l 873 -107 l 959 -107 l 959 505 l 1152 505 l 1152 578 l 959 578 z "},"ￍ":{"ha":0,"x_min":0,"x_max":0,"o":"m 490 697 l 404 697 l 404 282 b 71 277 285 277 170 277 l 84 202 b 821 247 290 202 574 209 l 814 311 b 490 285 712 298 600 290 z m 959 1066 l 873 1066 l 873 -107 l 959 -107 l 959 505 l 1152 505 l 1152 578 l 959 578 z "},"ㅙ":{"ha":0,"x_min":0,"x_max":0,"o":"m 427 707 l 346 707 l 346 307 b 73 301 245 302 149 301 l 84 228 b 697 264 248 228 505 235 l 692 331 b 427 309 612 321 520 314 z m 1063 1067 l 979 1067 l 979 587 l 825 587 l 825 1051 l 742 1051 l 742 -61 l 825 -61 l 825 515 l 979 515 l 979 -106 l 1063 -106 z "},"ￎ":{"ha":0,"x_min":0,"x_max":0,"o":"m 427 707 l 346 707 l 346 307 b 73 301 245 302 149 301 l 84 228 b 697 264 248 228 505 235 l 692 331 b 427 309 612 321 520 314 z m 1063 1067 l 979 1067 l 979 587 l 825 587 l 825 1051 l 742 1051 l 742 -61 l 825 -61 l 825 515 l 979 515 l 979 -106 l 1063 -106 z "},"ㅚ":{"ha":0,"x_min":0,"x_max":0,"o":"m 541 692 l 458 692 l 458 300 b 123 296 338 296 222 296 l 137 220 b 869 264 342 220 624 225 l 863 330 b 541 302 762 316 651 308 z m 1027 1067 l 940 1067 l 940 -106 l 1027 -106 z "},"ￏ":{"ha":0,"x_min":0,"x_max":0,"o":"m 541 692 l 458 692 l 458 300 b 123 296 338 296 222 296 l 137 220 b 869 264 342 220 624 225 l 863 330 b 541 302 762 316 651 308 z m 1027 1067 l 940 1067 l 940 -106 l 1027 -106 z "},"ㅛ":{"ha":0,"x_min":0,"x_max":0,"o":"m 1152 304 l 861 304 l 861 846 l 776 846 l 776 304 l 446 304 l 446 846 l 361 846 l 361 304 l 68 304 l 68 231 l 1152 231 z "},"ￒ":{"ha":0,"x_min":0,"x_max":0,"o":"m 1152 304 l 861 304 l 861 846 l 776 846 l 776 304 l 446 304 l 446 846 l 361 846 l 361 304 l 68 304 l 68 231 l 1152 231 z "},"ㅜ":{"ha":0,"x_min":0,"x_max":0,"o":"m 1152 678 l 66 678 l 66 606 l 564 606 l 564 84 l 651 84 l 651 606 l 1152 606 z "},"ￓ":{"ha":0,"x_min":0,"x_max":0,"o":"m 1152 678 l 66 678 l 66 606 l 564 606 l 564 84 l 651 84 l 651 606 l 1152 606 z "},"ㅝ":{"ha":0,"x_min":0,"x_max":0,"o":"m 1074 1066 l 990 1066 l 990 324 l 686 324 l 686 255 l 990 255 l 990 -106 l 1074 -106 z m 95 540 l 107 465 b 414 471 201 465 305 467 l 414 -14 l 499 -14 l 499 473 b 897 509 631 480 768 491 l 890 572 b 95 540 629 545 331 541 z "},"ￔ":{"ha":0,"x_min":0,"x_max":0,"o":"m 1074 1066 l 990 1066 l 990 324 l 686 324 l 686 255 l 990 255 l 990 -106 l 1074 -106 z m 95 540 l 107 465 b 414 471 201 465 305 467 l 414 -14 l 499 -14 l 499 473 b 897 509 631 480 768 491 l 890 572 b 95 540 629 545 331 541 z "},"ㅞ":{"ha":0,"x_min":0,"x_max":0,"o":"m 1095 1066 l 1012 1066 l 1012 -106 l 1095 -106 z m 869 1036 l 787 1036 l 787 327 l 555 327 l 555 256 l 787 256 l 787 -76 l 869 -76 z m 84 541 l 98 469 b 358 477 172 469 263 471 l 358 -14 l 441 -14 l 441 481 b 724 511 539 488 638 498 l 718 574 b 84 541 529 549 259 540 z "},"ￕ":{"ha":0,"x_min":0,"x_max":0,"o":"m 1095 1066 l 1012 1066 l 1012 -106 l 1095 -106 z m 869 1036 l 787 1036 l 787 327 l 555 327 l 555 256 l 787 256 l 787 -76 l 869 -76 z m 84 541 l 98 469 b 358 477 172 469 263 471 l 358 -14 l 441 -14 l 441 481 b 724 511 539 488 638 498 l 718 574 b 84 541 529 549 259 540 z "},"ㅟ":{"ha":0,"x_min":0,"x_max":0,"o":"m 1070 1066 l 985 1066 l 985 -107 l 1070 -107 z m 117 538 l 129 465 b 480 471 236 465 356 466 l 480 -14 l 564 -14 l 564 475 b 926 506 686 480 808 490 l 922 571 b 117 538 658 544 358 538 z "},"ￖ":{"ha":0,"x_min":0,"x_max":0,"o":"m 1070 1066 l 985 1066 l 985 -107 l 1070 -107 z m 117 538 l 129 465 b 480 471 236 465 356 466 l 480 -14 l 564 -14 l 564 475 b 926 506 686 480 808 490 l 922 571 b 117 538 658 544 358 538 z "},"ㅠ":{"ha":0,"x_min":0,"x_max":0,"o":"m 1141 681 l 56 681 l 56 609 l 358 609 l 358 84 l 444 84 l 444 609 l 750 609 l 750 84 l 836 84 l 836 609 l 1141 609 z "},"ￗ":{"ha":0,"x_min":0,"x_max":0,"o":"m 1141 681 l 56 681 l 56 609 l 358 609 l 358 84 l 444 84 l 444 609 l 750 609 l 750 84 l 836 84 l 836 609 l 1141 609 z "},"ㅡ":{"ha":0,"x_min":0,"x_max":0,"o":"m 1141 548 l 56 548 l 56 473 l 1141 473 z "},"ￚ":{"ha":0,"x_min":0,"x_max":0,"o":"m 1141 548 l 56 548 l 56 473 l 1141 473 z "},"ㅢ":{"ha":0,"x_min":0,"x_max":0,"o":"m 1042 1048 l 958 1048 l 958 -122 l 1042 -122 z m 90 357 l 103 283 b 886 328 330 285 623 289 l 880 395 b 90 357 624 361 323 358 z "},"ￛ":{"ha":0,"x_min":0,"x_max":0,"o":"m 1042 1048 l 958 1048 l 958 -122 l 1042 -122 z m 90 357 l 103 283 b 886 328 330 285 623 289 l 880 395 b 90 357 624 361 323 358 z "},"ㅣ":{"ha":0,"x_min":0,"x_max":0,"o":"m 651 1067 l 564 1067 l 564 -106 l 651 -106 z "},"ￜ":{"ha":0,"x_min":0,"x_max":0,"o":"m 651 1067 l 564 1067 l 564 -106 l 651 -106 z "},"ㅤ":{"ha":0,"x_min":0,"x_max":0,"o":""},"ㆍ":{"ha":0,"x_min":0,"x_max":0,"o":""},"가":{"ha":0,"x_min":0,"x_max":0,"o":"l 974 0 l 974 1090 l 1602 1090 "},"각":{"ha":0,"x_min":0,"x_max":0,"o":""},"갂":{"ha":0,"x_min":0,"x_max":0,"o":""},"갃":{"ha":0,"x_min":0,"x_max":0,"o":""},"간":{"ha":0,"x_min":0,"x_max":0,"o":"m 985 1090 "},"갅":{"ha":-655,"x_min":0,"x_max":0,"o":""},"갆":{"ha":-617,"x_min":0,"x_max":0,"o":"m -715 -452 l -629 -452 l -629 -183 l -712 -183 l -712 -618 l -780 -618 l -780 -12 b -1130 -12 -1082 -12 -1130 -77 b NaN NaN -1130 92 -1128 NaN b NaN NaN NaN NaN NaN NaN z m NaN NaN b NaN NaN NaN NaN NaN NaN b NaN NaN NaN NaN NaN NaN b NaN NaN NaN NaN NaN NaN b NaN NaN NaN NaN NaN NaN z m NaN NaN l NaN NaN l NaN NaN l NaN NaN b NaN NaN NaN NaN NaN NaN l NaN NaN b NaN NaN NaN NaN NaN NaN z "},"갇":{"ha":0,"x_min":0,"x_max":0,"o":""},"갈":{"ha":0,"x_min":0,"x_max":0,"o":""},"갉":{"ha":0,"x_min":0,"x_max":0,"o":"l -644 0 l -644 85 l -358 85 l -358 271 l -286 271 l -286 85 "},"갊":{"ha":0,"x_min":0,"x_max":0,"o":"l 283 0 l 283 184 l 357 184 l 357 0 "},"갋":{"ha":0,"x_min":0,"x_max":0,"o":""},"갌":{"ha":0,"x_min":0,"x_max":0,"o":""},"갍":{"ha":0,"x_min":0,"x_max":0,"o":""},"갎":{"ha":0,"x_min":0,"x_max":0,"o":""},"갏":{"ha":0,"x_min":0,"x_max":0,"o":""},"감":{"ha":0,"x_min":0,"x_max":0,"o":""},"갑":{"ha":0,"x_min":0,"x_max":0,"o":""},"값":{"ha":0,"x_min":0,"x_max":0,"o":""},"갓":{"ha":0,"x_min":0,"x_max":0,"o":"m 1169 747 l 985 747 l 985 1093 l 898 1093 l 898 296 l 985 296 l 985 674 l 1169 674 b 1492 491 1169 167 1492 274 b 1793 NaN 1492 718 1793 NaN z m 1801 NaN l 1801 NaN l 1717 NaN l 1717 NaN b 1303 NaN 1717 NaN 1500 NaN l 1340 NaN b 1759 NaN 1510 NaN 1689 NaN b 2174 NaN 1828 NaN 2005 NaN l 2212 NaN b 1801 NaN 2014 NaN 1801 NaN z "},"갔":{"ha":0,"x_min":0,"x_max":0,"o":"m 985 1093 "},"강":{"ha":0,"x_min":0,"x_max":0,"o":""},"갖":{"ha":0,"x_min":0,"x_max":0,"o":""},"갗":{"ha":0,"x_min":0,"x_max":0,"o":"m 1169 803 l 985 803 l 985 1090 l 899 1090 l 899 430 l 985 430 l 985 730 l 1169 730 "},"갘":{"ha":0,"x_min":0,"x_max":0,"o":""},"같":{"ha":0,"x_min":0,"x_max":0,"o":""},"갚":{"ha":0,"x_min":0,"x_max":0,"o":"l 304 0 l 304 184 l 374 184 l 374 0 "},"갛":{"ha":0,"x_min":0,"x_max":0,"o":""},"개":{"ha":-84,"x_min":0,"x_max":0,"o":"m 1072 1090 z "},"객":{"ha":-309,"x_min":0,"x_max":0,"o":""},"갞":{"ha":-308,"x_min":0,"x_max":0,"o":""},"갟":{"ha":-304,"x_min":0,"x_max":0,"o":""},"갠":{"ha":-374,"x_min":0,"x_max":0,"o":""},"갡":{"ha":-486,"x_min":0,"x_max":0,"o":"l -304 0 l -304 -182 l -23 -182 l -23 -264 l -678 -264 l -678 -182 l -376 -182 l -376 0 l -685 0 l -685 81 "},"갢":{"ha":-578,"x_min":0,"x_max":0,"o":""},"갣":{"ha":-486,"x_min":0,"x_max":0,"o":"l -307 0 l -307 -182 l -23 -182 l -23 -264 l -684 -264 l -684 -182 l -377 -182 l -377 0 l -693 0 l -693 81 "},"갤":{"ha":0,"x_min":0,"x_max":0,"o":"l -587 0 l -587 83 l -330 83 l -330 264 l -597 264 l -597 346 m -1084 892 l -1548 892 l -1548 819 l -1172 819 b -1592 377 -1193 620 -1339 467 l -1550 312 b -1084 892 -1253 423 -1085 621 z m -597 290 l -1383 290 l -1383 218 l -680 218 l -680 83 l -1379 83 l -1379 -213 l -545 -213 l -545 -142 l -1295 -142 l -1295 15 l -597 15 z "},"갥":{"ha":-282,"x_min":0,"x_max":0,"o":""},"갦":{"ha":-282,"x_min":0,"x_max":0,"o":""},"갧":{"ha":-590,"x_min":0,"x_max":0,"o":""},"갨":{"ha":-282,"x_min":0,"x_max":0,"o":""},"갩":{"ha":-282,"x_min":0,"x_max":0,"o":""},"갪":{"ha":0,"x_min":0,"x_max":0,"o":""},"갫":{"ha":8,"x_min":0,"x_max":0,"o":"l -277 0 l -277 -182 l -23 -182 l -23 -264 l -597 -264 l -597 -182 l -349 -182 l -349 0 l -612 0 l -612 81 m -1099 621 l -1562 621 l -1562 549 l -1188 549 b -1606 129 -1208 355 -1360 211 l -1565 62 b -1099 621 -1275 165 -1099 354 z "},"갬":{"ha":-486,"x_min":0,"x_max":0,"o":"l -304 0 l -304 -182 l -23 -182 l -23 123 l 159 123 l 159 -189 l 240 -189 m 726 -850 z m 300 -496 l 898 -496 l 898 -1278 l 1512 -1278 l 1512 -1560 l 898 -1560 z "},"갭":{"ha":-298,"x_min":0,"x_max":0,"o":""},"갮":{"ha":-297,"x_min":0,"x_max":0,"o":""},"갯":{"ha":-324,"x_min":0,"x_max":0,"o":""},"갰":{"ha":-118,"x_min":0,"x_max":0,"o":"l -311 0 l -311 -182 l -23 -182 l -23 -264 l -685 -264 l -685 -182 l -382 -182 l -382 0 l -693 0 l -693 81 m -1179 685 l -1644 685 l -1644 612 l -1268 612 b -1691 126 -1288 400 -1440 231 l -1645 61 b -1179 685 -1348 189 -1180 404 z "},"갱":{"ha":-326,"x_min":0,"x_max":0,"o":""},"갲":{"ha":-486,"x_min":0,"x_max":0,"o":"l 304 0 l 304 182 l -8 182 l -8 263 m 136 -477 z "},"갳":{"ha":-298,"x_min":0,"x_max":0,"o":""},"갴":{"ha":-486,"x_min":0,"x_max":0,"o":"l -307 0 l -307 -182 l -23 -182 l -23 119 l 159 119 l 159 -189 l 240 -189 "},"갵":{"ha":-288,"x_min":0,"x_max":0,"o":""},"갶":{"ha":305,"x_min":0,"x_max":0,"o":""},"갷":{"ha":521,"x_min":0,"x_max":0,"o":"l -277 0 l -277 -182 l -23 -182 l -23 -264 l -587 -264 l -587 -182 l -349 -182 l -349 0 l -644 0 l -644 81 m -1131 643 l -1595 643 l -1595 572 l -1219 572 b -1640 127 -1240 372 -1387 218 l -1598 64 b -1131 643 -1301 174 -1133 373 z "},"갸":{"ha":0,"x_min":0,"x_max":0,"o":"m 1175 761 l 974 761 l 974 1090 l 888 1090 l 888 -106 l 974 -106 l 974 328 l 1175 328 l 1175 401 l 974 401 l 974 688 l 1175 688 "},"갹":{"ha":0,"x_min":0,"x_max":0,"o":"m 1169 899 l 985 899 l 985 1090 l 899 1090 l 899 387 l 985 387 l 985 568 l 1168 568 l 1168 753 "},"갺":{"ha":0,"x_min":0,"x_max":0,"o":"m 1162 905 l 985 905 l 985 1090 l 899 1090 l 899 400 l 985 400 l 985 582 l 1162 582 l 1162 654 l 985 654 l 985 833 l 1162 833 "},"갻":{"ha":0,"x_min":0,"x_max":0,"o":"l 176 0 l 176 184 l 361 184 l 361 255 l 176 255 "},"갼":{"ha":0,"x_min":0,"x_max":0,"o":"m 1169 856 l 985 856 l 985 1090 l 898 1090 l 898 209 l 985 209 l 985 488 l 1208 488 l 1208 673 "},"갽":{"ha":659,"x_min":0,"x_max":0,"o":"m 503 -104 l 1520 -104 l 1520 -282 l 1698 -282 l 1698 -368 l 1043 -368 l 1043 -282 l 1207 -282 l 1207 -104 l 1279 -104 l 1279 -282 l 1449 -282 l 1449 -104 z "},"갾":{"ha":-617,"x_min":0,"x_max":0,"o":"m -149 853 l -64 853 l -64 1002 l 114 1002 l 114 1074 l -64 1074 l -64 1221 l -779 1221 l -779 670 l -1331 670 l -1331 597 l -869 597 b -1382 153 -890 387 -1084 228 l -1348 85 b -779 670 -1004 170 -777 376 z "},"갿":{"ha":0,"x_min":0,"x_max":0,"o":""},"걀":{"ha":0,"x_min":0,"x_max":0,"o":"m 1169 930 l 985 930 l 985 1090 l 899 1090 l 899 477 l 985 477 l 985 624 l 1169 624 l 1169 693 l 985 693 l 985 859 l 1169 859 "},"걁":{"ha":0,"x_min":0,"x_max":0,"o":"l -644 0 l -644 85 l -479 85 l -479 251 l -294 251 l -294 320 l -479 320 "},"걂":{"ha":0,"x_min":0,"x_max":0,"o":""},"걃":{"ha":0,"x_min":0,"x_max":0,"o":""},"걄":{"ha":0,"x_min":0,"x_max":0,"o":""},"걅":{"ha":0,"x_min":0,"x_max":0,"o":""},"걆":{"ha":0,"x_min":0,"x_max":0,"o":""},"걇":{"ha":0,"x_min":0,"x_max":0,"o":"l -598 0 l -598 85 l -477 85 l -477 270 l -407 270 l -407 85 l -241 85 l -241 270 l -172 270 l -172 85 "},"걈":{"ha":0,"x_min":0,"x_max":0,"o":""},"걉":{"ha":0,"x_min":0,"x_max":0,"o":"m 985 1090 "},"걊":{"ha":0,"x_min":0,"x_max":0,"o":""},"걋":{"ha":0,"x_min":0,"x_max":0,"o":"m 1171 876 l 985 876 l 985 1090 l 899 1090 l 899 293 l 985 293 l 985 515 l 1171 515 l 1171 587 l 985 587 l 985 803 l 1171 803 b 1364 620 1171 294 1364 403 b 1666 NaN 1364 845 1666 NaN z m 1674 NaN b 1842 NaN 1733 NaN 1674 NaN l 1881 NaN b 1470 NaN 1683 NaN 1470 NaN z "},"걌":{"ha":0,"x_min":0,"x_max":0,"o":"m 985 1093 "},"걍":{"ha":0,"x_min":0,"x_max":0,"o":"m 1169 891 l 985 891 l 985 1090 l 899 1090 l 899 366 l 985 366 l 985 555 l 1177 555 l 1177 739 "},"걎":{"ha":0,"x_min":0,"x_max":0,"o":""},"걏":{"ha":0,"x_min":0,"x_max":0,"o":"l 661 0 l 661 1009 l 985 1009 l 985 1090 l 1165 1090 l 1165 1260 l 1350 1260 l 1350 1331 l 1165 1331 "},"걐":{"ha":0,"x_min":0,"x_max":0,"o":""},"걑":{"ha":0,"x_min":0,"x_max":0,"o":"l -643 0 l -643 85 l -498 85 l -498 270 l -427 270 l -427 85 l -247 85 l -247 270 l -176 270 l -176 85 "},"걒":{"ha":0,"x_min":0,"x_max":0,"o":""},"걓":{"ha":0,"x_min":0,"x_max":0,"o":"l -635 0 l -635 85 l -498 85 l -498 263 l -313 263 "},"걔":{"ha":-84,"x_min":0,"x_max":0,"o":"m 1072 1090 z m 1308 590 l 1308 270 l 1122 270 l 1122 557 l 1525 557 l 1525 743 l 1059 743 l 1059 1009 l 1245 1009 l 1245 743 z "},"걕":{"ha":-189,"x_min":0,"x_max":0,"o":"m 222 -368 l 222 -549 l 388 -549 l 388 -632 l -288 -632 l -288 -549 l -118 -549 l -118 -368 l -297 -368 l -297 -171 l -115 -171 l -115 -368 z "},"걖":{"ha":-184,"x_min":0,"x_max":0,"o":"m 222 -351 l 222 -533 l 384 -533 l 384 -616 l -270 -616 l -270 -533 l -107 -533 l -107 -351 l -277 -351 l -277 -168 l -95 -168 l -95 -351 z "},"걗":{"ha":-189,"x_min":0,"x_max":0,"o":"m 221 -365 l 221 -547 l 387 -547 l 387 -392 l 568 -392 l 568 -553 l 764 -553 l 764 -372 l 568 -372 z "},"걘":{"ha":-237,"x_min":0,"x_max":0,"o":"m -302 627 l -302 445 l -88 445 l -88 362 l -917 362 l -917 445 l -666 445 l -666 627 l -959 627 l -959 848 l -777 848 l -777 627 z "},"걙":{"ha":-486,"x_min":0,"x_max":0,"o":"l -193 0 l -193 -182 l -23 -182 l -23 -264 l -678 -264 l -678 -182 l -510 -182 l -510 0 l -685 0 l -685 81 m -463 -266 l -463 330 l -290 330 l -290 511 l -463 511 z "},"걚":{"ha":0,"x_min":0,"x_max":0,"o":""},"걛":{"ha":-486,"x_min":0,"x_max":0,"o":"l -183 0 l -183 -182 l -23 -182 l -23 -264 l -684 -264 l -684 -182 l -511 -182 l -511 0 l -693 0 l -693 81 m -471 -269 l -471 335 l -286 335 l -286 517 l -471 517 z "},"걜":{"ha":0,"x_min":0,"x_max":0,"o":"l -175 0 l -175 -182 l -23 -182 l -23 -264 l -610 -264 l -610 -182 l -469 -182 l -469 0 l -620 0 l -620 81 l -1107 81 l -1107 629 l -620 629 l -620 22 l -762 22 l -762 -678 l -1058 -678 l -1058 156 l -986 156 l -986 -594 l -830 -594 l -830 104 m -1093 665 l -1093 822 l -911 822 l -911 665 z "},"걝":{"ha":0,"x_min":0,"x_max":0,"o":""},"걞":{"ha":-175,"x_min":0,"x_max":0,"o":"m 224 -327 l 224 -509 l 376 -509 l 376 -359 l 557 -359 l 557 -517 l 713 -517 l 713 -335 l 557 -335 z "},"걟":{"ha":-174,"x_min":0,"x_max":0,"o":"m 199 556 l 199 374 l 350 374 l 350 292 l -240 292 l -240 374 l -96 374 l -96 556 l -248 556 l -248 715 l -66 715 l -66 556 z "},"걠":{"ha":-172,"x_min":0,"x_max":0,"o":"m 197 560 l 197 378 l 346 378 l 346 528 l 528 528 l 528 370 l 684 370 l 684 552 l 528 552 z "},"걡":{"ha":0,"x_min":0,"x_max":0,"o":""},"걢":{"ha":-175,"x_min":0,"x_max":0,"o":"m 201 555 l 201 373 l 353 373 l 353 518 l 534 518 l 534 365 l 557 365 l 557 -255 l 716 -255 l 716 -73 l 557 -73 "},"걣":{"ha":8,"x_min":0,"x_max":0,"o":"l -164 0 l -164 -182 l -23 -182 l -23 -264 l -597 -264 l -597 -182 l -457 -182 l -457 0 l -612 0 l -612 81 m -1099 621 l -1562 621 l -1562 549 l -1188 549 b -1606 129 -1208 355 -1360 211 l -1565 62 b -1099 621 -1275 165 -1099 354 z m -883 1188 l -883 568 l -731 568 l -731 750 l -883 750 z "},"걤":{"ha":-486,"x_min":0,"x_max":0,"o":"l -658 0 l -658 83 l -486 83 l -486 264 l -665 264 l -665 346 m -179 -315 z m -606 41 l -8 41 l -8 -741 l 606 -741 l 606 -1024 l -8 -1024 "},"걥":{"ha":-178,"x_min":0,"x_max":0,"o":"m -180 690 l -180 509 l -26 509 l -26 426 l -644 426 l -644 509 l -491 509 l -491 690 l -654 690 l -654 857 l -472 857 l -472 690 z "},"걦":{"ha":-175,"x_min":0,"x_max":0,"o":"m 224 -334 l 224 -515 l 376 -515 l 376 -598 l -240 -598 l -240 -515 l -88 -515 l -88 -334 l -254 -334 l -254 -167 l -72 -167 l -72 -334 z "},"걧":{"ha":-189,"x_min":0,"x_max":0,"o":"m 88 353 l 88 171 l 254 171 l 254 88 l -396 88 l -396 171 l -232 171 l -232 353 l -505 353 l -505 529 l -323 529 l -323 353 z "},"걨":{"ha":0,"x_min":0,"x_max":0,"o":"l -662 0 l -662 83 l -486 83 l -486 264 l -670 264 l -670 346 m -1156 949 l -1621 949 l -1621 876 l -1245 876 b -1668 391 -1265 665 -1417 496 l -1622 326 b -1156 949 -1325 453 -1157 669 "},"걩":{"ha":0,"x_min":0,"x_max":0,"o":""},"걪":{"ha":-486,"x_min":0,"x_max":0,"o":"l -655 0 l -655 83 l -484 83 l -484 264 l -663 264 l -663 346 m -519 -395 "},"걫":{"ha":-180,"x_min":0,"x_max":0,"o":"m 224 -340 l 224 -522 l 381 -522 l 381 -395 l 563 -395 l 563 -587 l 739 -587 l 739 -406 l 563 -406 z "},"걬":{"ha":0,"x_min":0,"x_max":0,"o":"l -183 0 l -183 -182 l -23 -182 l -23 -9 l 159 -9 l 159 -189 l 240 -189 "},"걭":{"ha":-171,"x_min":0,"x_max":0,"o":"m 224 -330 l 224 -511 l 372 -511 l 372 -362 l 553 -362 l 553 -519 l 718 -519 l 718 -338 l 553 -338 z "},"걮":{"ha":-186,"x_min":0,"x_max":0,"o":"m -8 669 l -8 487 l 155 487 l 155 404 l -500 404 l -500 487 l -332 487 l -332 669 l -509 669 l -509 848 l -327 848 l -327 669 z "},"걯":{"ha":0,"x_min":0,"x_max":0,"o":"l -165 0 l -165 -182 l -23 -182 l -23 -264 l -587 -264 l -587 -182 l -457 -182 l -457 0 l -654 0 l -654 81 m -1141 652 l -1605 652 l -1605 582 l -1229 582 b -1649 137 -1249 382 -1396 228 l -1607 73 b -1141 652 -1310 183 -1142 382 "},"거":{"ha":0,"x_min":0,"x_max":0,"o":"l -487 0 l -487 -301 l -560 -301 l -560 0 l -1196 0 l -1196 84 m -1580 1149 l -2125 1149 l -2125 1078 l -1666 1078 b -2176 387 -1685 793 -1844 548 l -2127 320 b -1580 1149 -1733 514 -1580 817 z "},"걱":{"ha":0,"x_min":0,"x_max":0,"o":"m 671 1010 l 130 1010 l 130 939 l 579 939 b 71 469 559 721 366 554 l 107 401 b 671 1010 449 500 670 715 l 1039 1010 l 1039 331 l 674 331 l 674 416 z m 674 1611 l 589 1611 l 589 1290 l 308 1290 l 308 1217 l 589 1217 l 589 906 l 674 906 z "},"걲":{"ha":0,"x_min":0,"x_max":0,"o":"m -68 -674 l -457 -674 l -457 -747 l -155 -747 l -155 -1114 l -68 -1114 z m 369 81 l 283 81 l 283 -237 l 1 -237 l 1 -309 l 283 -309 l 283 -617 l 369 -617 z m 369 -674 l -8 -674 l -8 -747 l 283 -747 l 283 -1114 l 369 -1114 z "},"걳":{"ha":-114,"x_min":0,"x_max":0,"o":"m 369 81 l 283 81 l 283 -237 l 1 -237 l 1 -309 l 283 -309 l 283 -621 l 369 -621 z "},"건":{"ha":0,"x_min":0,"x_max":0,"o":"l -376 0 l -376 -282 l -449 -282 l -449 0 l -888 0 l -888 85 m -1253 880 l -1794 880 l -1794 808 l -1347 808 b -1854 301 -1369 578 -1571 396 l -1816 232 b -1253 880 -1480 345 -1255 578 z m -857 -122 l -1553 -122 l -1553 178 l -1640 178 l -1640 -194 l -857 -194 z "},"걵":{"ha":0,"x_min":0,"x_max":0,"o":"m 864 267 l 872 267 l 872 477 l 945 477 l 945 -24 l 872 -24 l 872 184 l 864 184 l 864 578 l 1869 578 l 1869 288 l 1954 288 z "},"걶":{"ha":-377,"x_min":0,"x_max":0,"o":"b -449 -448 -214 -184 -371 -481 l -519 NaN b 39 NaN -174 NaN 38 NaN "},"걷":{"ha":0,"x_min":0,"x_max":0,"o":"m 669 1010 l 129 1010 l 129 939 l 579 939 b 69 469 557 720 363 553 l 103 400 b 669 1010 448 499 669 713 z m 1039 1090 l 954 1090 l 954 761 l 671 761 l 671 689 l 954 689 l 954 406 l 1039 406 "},"걸":{"ha":0,"x_min":0,"x_max":0,"o":"b -435 -448 -208 -187 -361 -479 l -506 NaN b 53 NaN -164 NaN 53 NaN m 429 NaN l -340 NaN l -340 NaN l 343 NaN l 343 NaN l -336 NaN l -336 NaN l 475 NaN l 475 NaN l -252 NaN l -252 NaN l 429 NaN z "},"걹":{"ha":0,"x_min":0,"x_max":0,"o":"l -271 0 l -271 85 "},"걺":{"ha":-372,"x_min":0,"x_max":0,"o":"l -267 0 l -267 85 m 187 353 l 760 353 l 760 -22 l 273 -22 l 273 353 z m -24 772 l 195 772 l 195 419 l -24 419 z "},"걻":{"ha":-372,"x_min":0,"x_max":0,"o":"l -254 0 l -254 85 m -96 365 l 456 365 l 456 286 l -43 286 l -43 662 l 456 662 l 456 583 l 286 583 l 286 365 z m 286 104 l 286 297 l 505 297 l 505 104 z "},"걼":{"ha":0,"x_min":0,"x_max":0,"o":"l -281 0 l -281 85 "},"걽":{"ha":0,"x_min":0,"x_max":0,"o":"l -254 0 l -254 85 "},"걾":{"ha":-372,"x_min":0,"x_max":0,"o":"l -298 0 l -298 -283 l -370 -283 l -370 0 l -637 0 l -637 85 m -514 -958 l -514 -385 l -168 -385 l -168 -260 l -514 -260 z "},"걿":{"ha":0,"x_min":0,"x_max":0,"o":"l -285 0 l -285 -283 l -357 -283 l -357 0 l -616 0 l -616 85 m -987 639 l -1525 639 l -1525 566 l -1078 566 b -1583 134 -1098 358 -1289 205 l -1550 64 b -987 639 -1210 149 -989 346 "},"검":{"ha":0,"x_min":0,"x_max":0,"o":""},"겁":{"ha":0,"x_min":0,"x_max":0,"o":"l -309 0 l -309 -282 l -381 -282 l -381 0 l -642 0 l -642 84 m -1009 650 l -1548 650 l -1548 576 l -1101 576 b -1609 129 -1121 364 -1308 206 l -1575 60 b -1009 650 -1227 151 -1009 355 "},"겂":{"ha":0,"x_min":0,"x_max":0,"o":"l -309 0 l -309 -282 l -381 -282 l -381 0 l -642 0 l -642 84 m -1009 650 l -1548 650 l -1548 576 l -1101 576 b -1609 129 -1121 364 -1308 206 l -1575 60 b -1009 650 -1227 151 -1009 355 z "},"것":{"ha":0,"x_min":0,"x_max":0,"o":"l -345 0 l -345 -279 l -418 -279 l -418 0 l -817 0 l -817 85 m -1185 806 l -1723 806 l -1723 734 l -1276 734 b -1781 241 -1297 508 -1491 334 l -1743 172 b -1185 806 -1404 282 -1187 505 z m -1157 136 b -979 184 -1097 52 -1157 88 b -664 90 -909 335 -840 185 b NaN NaN -494 54 -456 123 l NaN NaN b NaN NaN NaN NaN NaN NaN z "},"겄":{"ha":0,"x_min":0,"x_max":0,"o":"m 670 1010 l 137 1010 l 137 939 l 579 939 l 579 624 l 300 624 l 300 551 l 579 551 l 579 251 l 665 251 z m 75 123 b -39 -110 75 122 -39 23 b -94 -281 -39 -259 -94 -214 b -58 -232 -94 -372 -58 -273 b 29 -299 -58 -335 29 -422 z "},"겅":{"ha":0,"x_min":0,"x_max":0,"o":"l -349 0 l -349 -281 l -420 -281 l -420 0 l -726 0 l -726 85 m -1092 719 l -1633 719 l -1633 646 l -1185 646 b -1694 163 -1206 424 -1402 252 l -1657 94 b -1092 719 -1318 197 -1093 416 z m -1115 73 b -1512 -153 -1359 73 -1512 -11 b -1908 73 -1512 -11 -1666 73 z m -1908 3 b -1598 -153 -1721 4 -1598 -57 b NaN -94 -1598 -92 -1408 -94 z "},"겆":{"ha":0,"x_min":0,"x_max":0,"o":"m 689 1010 l 130 1010 l 130 939 l 597 939 b 76 477 577 722 380 555 l 110 406 b 689 1010 461 499 688 711 z m 1039 1090 "},"겇":{"ha":0,"x_min":0,"x_max":0,"o":"m 709 241 l 720 602 l 789 241 l 928 155 b 998 NaN 789 336 877 406 b 595 NaN 808 NaN 593 NaN z m 574 NaN l 16 NaN l 16 NaN l 482 NaN b -39 NaN 463 NaN 264 NaN l -5 NaN b 574 NaN 344 NaN 573 NaN z m 924 NaN l 839 NaN l 839 NaN l 558 NaN l 558 NaN l 839 NaN l 839 NaN l 924 NaN z "},"겈":{"ha":-369,"x_min":0,"x_max":0,"o":""},"겉":{"ha":0,"x_min":0,"x_max":0,"o":"l -312 0 l -312 -277 l -385 -277 l -385 0 l -652 0 l -652 85 m -1020 661 l -1561 661 l -1561 589 l -1114 589 b -1621 137 -1133 376 -1319 214 l -1587 66 b -1020 661 -1237 157 -1021 366 z "},"겊":{"ha":0,"x_min":0,"x_max":0,"o":"m 671 1009 l 130 1009 l 130 937 l 579 937 b 71 480 558 722 363 558 l 106 410 b 671 1009 446 502 671 715 z m 1039 1090 "},"겋":{"ha":0,"x_min":0,"x_max":0,"o":"m 663 1016 l 132 1016 l 132 945 l 571 945 b 71 498 553 734 372 575 l 103 429 b 663 1016 452 519 663 722 z m 1039 1090 "},"게":{"ha":1073,"x_min":0,"x_max":0,"o":"m -250 1162 l 841 1162 l 841 1080 l 374 1080 l 374 840 b 441 1185 420 949 441 1066 l -20 1185 l -20 1112 l 357 1112 b -68 468 338 858 199 627 l -16 406 b 342 769 151 505 267 629 l 614 769 l 614 208 l 697 208 z "},"겍":{"ha":0,"x_min":0,"x_max":0,"o":"b 694 -477 1096 -212 941 -376 l 737 -543 b 1117 -243 907 -471 1037 -369 l 1367 -243 l 1367 -517 l 1449 -517 l 1449 145 l 1367 145 l 1367 -171 l 1155 -171 b 1205 72 1187 -97 1204 -16 m 1687 172 z "},"겎":{"ha":0,"x_min":0,"x_max":0,"o":"b 214 588 583 990 375 835 b NaN NaN 114 633 50 NaN l NaN NaN b NaN NaN NaN NaN NaN NaN l NaN NaN l NaN NaN l NaN NaN l NaN NaN l NaN NaN l NaN NaN l NaN NaN b NaN NaN NaN NaN NaN NaN m NaN NaN l NaN NaN l NaN NaN l NaN NaN "},"겏":{"ha":481,"x_min":0,"x_max":0,"o":"b 326 -469 728 -210 572 -371 l 371 -533 b 748 -240 538 -463 668 -364 l 999 -240 l 999 -503 l 1082 -503 l 1082 140 l 999 140 l 999 -168 l 787 -168 b 838 72 819 -96 837 -15 "},"겐":{"ha":0,"x_min":0,"x_max":0,"o":"l -903 0 l -903 81 m -1141 959 l -1223 959 l -1223 593 l -1447 593 b -1386 867 -1407 676 -1386 768 l -1851 867 l -1851 796 l -1473 796 b -1902 294 -1494 579 -1643 403 l -1855 231 b -1487 522 -1691 302 -1567 401 l -1223 522 l -1223 118 l -1141 118 z m -860 -111 l -1591 -111 l -1591 195 l -1678 195 l -1678 -183 l -860 -183 z "},"겑":{"ha":0,"x_min":0,"x_max":0,"o":"l 277 0 l 277 997 l 12 997 l 12 1080 l 656 1080 l 656 997 l 347 997 l 347 785 b 397 1032 380 861 397 943 m 879 1122 l 798 1122 l 798 437 l 879 437 z "},"겒":{"ha":484,"x_min":0,"x_max":0,"o":"m 313 359 l 228 359 l 228 -73 l 282 -73 b 586 -31 349 -73 467 -69 l 570 42 b 313 0 479 10 378 1 z m 1134 335 l 888 335 l 888 446 l 804 446 l 804 335 l 555 335 l 555 267 l 1134 267 z m 845 212 b 617 54 712 212 617 151 b 845 -104 617 -43 712 -103 b NaN NaN 845 28 712 NaN z m NaN NaN b NaN NaN NaN NaN NaN NaN b NaN NaN NaN NaN NaN NaN b NaN NaN NaN NaN NaN NaN b NaN NaN NaN NaN NaN NaN z m NaN NaN l NaN NaN l NaN NaN l NaN NaN b NaN NaN NaN NaN NaN NaN l NaN NaN b NaN NaN NaN NaN NaN NaN l NaN NaN l NaN NaN l NaN NaN l NaN NaN l NaN NaN l NaN NaN l NaN NaN b NaN NaN NaN NaN NaN NaN z "},"겓":{"ha":0,"x_min":0,"x_max":0,"o":"m 1088 -14 l 370 -14 l 370 248 l 1073 248 l 1073 319 l 283 319 l 283 -85 l 1088 -85 l 583 -85 l 583 1001 l 304 1001 l 304 692 l 92 692 b 142 939 125 767 142 850 z m 624 1028 l 543 1028 l 543 327 l 624 327 z "},"겔":{"ha":0,"x_min":0,"x_max":0,"o":"l -620 0 l -620 81 l -857 81 l -857 674 l -1097 674 l -1097 757 l -860 757 l -860 689 l -997 689 l -997 -11 l -1289 -11 l -1289 823 l -1218 823 l -1218 75 l -1066 75 l -1066 772 "},"겕":{"ha":-449,"x_min":0,"x_max":0,"o":"l -624 0 l -624 81 l -861 81 l -861 678 l -1105 678 l -1105 761 m -868 685 l -1249 685 l -1249 612 l -951 612 l -951 180 l -868 180 z "},"겖":{"ha":0,"x_min":0,"x_max":0,"o":"l -628 0 l -628 81 b -1021 NaN -865 682 -958 724 l NaN NaN l NaN NaN l NaN NaN l NaN NaN l NaN NaN l NaN NaN l NaN NaN "},"겗":{"ha":0,"x_min":0,"x_max":0,"o":"l -624 0 l -624 81 l -861 81 l -861 678 l -1105 678 l -1105 761 "},"겘":{"ha":107,"x_min":0,"x_max":0,"o":"l -633 0 l -633 81 l -871 81 l -871 688 l -1119 688 l -1119 770 "},"겙":{"ha":1093,"x_min":0,"x_max":0,"o":"m 463 958 l 444 958 l 444 467 l 928 467 l 928 385 l 304 385 l 304 467 l 66 467 l 66 1063 l -178 1063 l -178 1146 z "},"겚":{"ha":0,"x_min":0,"x_max":0,"o":"b -393 NaN -237 601 -330 643 l NaN NaN l NaN NaN l NaN NaN l NaN NaN l NaN NaN l NaN NaN l NaN NaN m NaN NaN l NaN NaN l NaN NaN l NaN NaN z "},"겛":{"ha":-213,"x_min":0,"x_max":0,"o":"l -629 0 l -629 81 b -1021 NaN -867 684 -958 726 l NaN NaN l NaN NaN l NaN NaN l NaN NaN l NaN NaN l NaN NaN l NaN NaN m NaN NaN z "},"겜":{"ha":-781,"x_min":0,"x_max":0,"o":"l 583 0 l 583 1001 l 315 1001 l 315 1084 l 963 1084 l 963 1001 l 654 1001 l 654 789 b 704 1036 686 865 703 947 m 1185 378 z m 755 738 l 1370 738 l 1370 450 l 755 450 z "},"겝":{"ha":581,"x_min":0,"x_max":0,"o":"m 0 -243 l 0 762 l -248 762 l -248 845 l 374 845 l 374 636 l -251 636 l -251 808 l 359 808 l 359 636 z "},"겞":{"ha":-354,"x_min":0,"x_max":0,"o":"m 484 85 l 1199 85 l 1199 -151 l 1282 -151 l 1282 460 l 1200 460 l 1200 -191 l 1282 -191 z "},"겟":{"ha":0,"x_min":0,"x_max":0,"o":"l -803 0 l -803 81 m -1040 857 l -1123 857 l -1123 522 l -1335 522 b -1287 770 -1303 599 -1287 682 l -1754 770 l -1754 700 l -1373 700 b -1800 194 -1394 480 -1544 303 l -1754 129 b -1371 450 -1578 207 -1449 317 l -1123 450 l -1123 183 l -1040 183 z m -1156 96 l -1156 155 l -1242 155 l -1242 96 b -1663 -237 -1242 -75 -1470 -205 l -1629 -307 b -1199 -33 -1457 -273 -1272 -177 b -769 -307 -1128 -177 -943 -273 l -735 -237 b -1156 96 -928 -205 -1157 -75 z "},"겠":{"ha":-604,"x_min":0,"x_max":0,"o":"m 583 1001 l 117 1001 l 117 928 l 496 928 b 69 439 476 714 322 545 l 114 374 b 487 669 281 446 408 546 l 745 669 l 745 414 l 827 414 l 827 1063 l 745 1063 l 745 741 l 528 741 b 583 1001 564 819 583 907 z m 1065 1090 l 983 1090 l 983 395 l 1065 395 z "},"겡":{"ha":0,"x_min":0,"x_max":0,"o":"m 583 989 l 114 989 l 114 917 l 496 917 b 66 425 475 701 321 530 l 113 359 b 495 667 286 434 416 538 l 745 667 l 745 393 l 827 393 l 827 1063 l 745 1063 l 745 739 l 532 739 b 583 989 566 815 583 899 z m 1065 1090 l 983 1090 l 983 350 l 1065 350 z m 675 336 b 270 117 422 336 270 255 b 675 -100 270 -20 422 -100 b 1081 117 928 -100 1081 -20 b 675 336 1081 255 928 336 z m 675 267 b 996 117 869 267 996 209 b 675 -33 996 24 869 -33 b 354 117 480 -33 354 24 b 675 267 354 209 480 267 z "},"겢":{"ha":4,"x_min":0,"x_max":0,"o":"l 583 0 l 583 1001 l 319 1001 l 319 1084 l 963 1084 l 963 1001 l 654 1001 l 654 789 b 704 1036 686 865 703 947 m 1185 1126 l 1104 1126 l 1104 441 l 1185 441 z m 844 296 z "},"겣":{"ha":484,"x_min":0,"x_max":0,"o":"b -301 328 -138 707 -158 496 b NaN NaN -564 225 -518 161 l NaN NaN b NaN NaN NaN NaN NaN NaN l NaN NaN l NaN NaN l NaN NaN l NaN NaN l NaN NaN l NaN NaN l NaN NaN b NaN NaN NaN NaN NaN NaN "},"겤":{"ha":481,"x_min":0,"x_max":0,"o":"b 884 1180 583 1001 755 1076 b NaN NaN 963 1309 NaN NaN l NaN NaN l NaN NaN l NaN NaN l NaN NaN l NaN NaN l NaN NaN l NaN NaN b NaN NaN NaN NaN NaN NaN m NaN NaN l NaN NaN l NaN NaN l NaN NaN l NaN NaN l NaN NaN l NaN NaN l NaN NaN l NaN NaN l NaN NaN l NaN NaN z "},"겥":{"ha":0,"x_min":0,"x_max":0,"o":"l -625 0 l -625 81 m -863 680 l -945 680 l -945 408 l -1153 408 b -1107 636 -1123 477 -1107 553 l -1572 636 l -1572 564 l -1195 564 b -1618 113 -1215 362 -1362 205 l -1576 49 b -1191 336 -1399 115 -1268 212 l -945 336 l -945 91 l -863 91 z "},"겦":{"ha":481,"x_min":0,"x_max":0,"o":"m 1076 349 l 260 349 l 260 277 l 442 277 l 442 -15 l 250 -15 l 250 -87 l 1092 -87 l 1092 -15 l 894 -15 l 894 277 l 1076 277 l 583 277 l 583 1001 l 319 1001 l 319 1084 l 963 1084 l 963 1001 l 654 1001 l 654 789 b 704 1036 686 865 703 947 z m 168 612 l 168 701 l 460 701 l 460 982 l 168 982 z "},"겧":{"ha":0,"x_min":0,"x_max":0,"o":"b 989 1004 1099 351 1009 1210 b 629 684 843 844 586 747 l NaN NaN b NaN NaN NaN NaN NaN NaN l NaN NaN l NaN NaN l NaN NaN l NaN NaN l NaN NaN l NaN NaN l NaN NaN b NaN NaN NaN NaN NaN NaN m NaN NaN l NaN NaN l NaN NaN l NaN NaN z "},"겨":{"ha":0,"x_min":0,"x_max":0,"o":"m 658 959 l 109 959 l 109 888 l 574 888 b 58 198 553 602 387 355 l 104 127 b 618 685 389 266 549 463 l 954 685 l 954 438 l 600 438 l 600 365 l 954 365 l 954 -104 l 616 -104 l 616 -420 b 636 -217 629 -354 636 -286 z "},"격":{"ha":0,"x_min":0,"x_max":0,"o":"m 681 1008 l 133 1008 l 133 937 l 589 937 b 73 467 569 718 372 550 l 107 397 b 640 798 368 469 559 608 l 954 798 l 954 617 l 621 617 l 621 544 l 954 544 l 954 376 l 1039 376 l 1039 1090 l 954 1090 l 954 869 l 665 869 b 681 1008 675 913 681 960 l 1039 1008 l 1039 321 l 684 321 l 684 407 z "},"겪":{"ha":680,"x_min":0,"x_max":0,"o":"m -77 -675 l 933 -675 l 933 -830 l 1019 -830 l 1019 -132 l 629 -132 l 629 -205 l 932 -205 l 932 -571 l 1019 -571 z m 1455 -132 l 1078 -132 l 1078 -205 l 1370 -205 l 1370 -571 l 1455 -571 z "},"겫":{"ha":925,"x_min":0,"x_max":0,"o":""},"견":{"ha":0,"x_min":0,"x_max":0,"o":"l -254 0 l -254 -296 b -232 -137 -239 -245 -232 -193 l -779 -137 l -779 -209 l -324 -209 b -837 -715 -347 -439 -550 -620 l -799 -785 b -279 -366 -551 -704 -363 -557 l 42 -366 l 42 -563 l -296 -563 l -296 -636 l 42 -636 l 42 -937 l 129 -937 m 159 -1138 l -537 -1138 l -537 -849 l -624 -849 l -624 -1210 l 159 -1210 z "},"겭":{"ha":5,"x_min":0,"x_max":0,"o":"m 864 267 z "},"겮":{"ha":0,"x_min":0,"x_max":0,"o":"b 488 1091 286 361 506 1303 b 35 784 306 932 3 856 l NaN NaN b NaN NaN NaN NaN NaN NaN l NaN NaN l NaN NaN l NaN NaN l NaN NaN l NaN NaN l NaN NaN l NaN NaN "},"겯":{"ha":0,"x_min":0,"x_max":0,"o":"m 675 1010 l 129 1010 l 129 939 l 583 939 b 72 471 562 721 367 553 l 107 401 b 637 811 369 475 560 616 l 954 811 l 954 631 l 618 631 l 618 557 l 954 557 l 954 406 l 1039 406 l 1039 1090 l 954 1090 l 954 883 l 661 883 b 675 1010 670 924 675 966 "},"결":{"ha":0,"x_min":0,"x_max":0,"o":"b 835 728 1039 1090 1021 882 b NaN NaN 536 656 568 585 l NaN NaN b NaN NaN NaN NaN NaN NaN l NaN NaN l NaN NaN l NaN NaN l NaN NaN l NaN NaN l NaN NaN l NaN NaN l NaN NaN l NaN NaN l NaN NaN l NaN NaN l NaN NaN l NaN NaN l NaN NaN "},"겱":{"ha":0,"x_min":0,"x_max":0,"o":"m 671 1027 "},"겲":{"ha":-87,"x_min":0,"x_max":0,"o":"m 671 1027 l 513 1027 l 513 845 l 218 845 b 231 963 227 882 231 922 z m 685 1230 l 57 1230 l 57 856 l -430 856 l -430 1230 z m -727 1649 l -507 1649 l -507 1297 l -727 1297 z "},"겳":{"ha":0,"x_min":0,"x_max":0,"o":"m 1039 1090 l 502 1090 l 502 1019 l 945 1019 b 442 589 927 812 739 659 l 475 515 b 1005 902 739 582 930 712 l 1321 902 l 1321 746 l 986 746 l 986 675 l 1321 675 l 1321 537 l 1407 537 "},"겴":{"ha":0,"x_min":0,"x_max":0,"o":"l -160 0 l -160 85 "},"겵":{"ha":0,"x_min":0,"x_max":0,"o":"l -138 0 l -138 85 "},"겶":{"ha":0,"x_min":0,"x_max":0,"o":"l -182 0 l -182 -294 b -170 -176 -174 -257 -170 -218 l -328 -176 l -328 -91 m -576 -562 l -576 -216 l -452 -216 l -452 -562 z "},"겷":{"ha":0,"x_min":0,"x_max":0,"o":"l -178 0 l -178 -293 b -125 -236 -170 -256 -165 -217 b -549 -688 -330 -425 -481 -720 l -621 NaN b -91 NaN -358 NaN -166 NaN l 225 NaN l 225 NaN l -110 NaN l -110 NaN l 225 NaN l 225 NaN l 311 NaN "},"겸":{"ha":0,"x_min":0,"x_max":0,"o":"l 673 0 l 673 1010 l 511 1010 l 511 1096 l 1200 1096 l 1200 1010 l 990 1010 l 990 715 b 1005 845 1000 756 1005 800 m 1371 186 "},"겹":{"ha":0,"x_min":0,"x_max":0,"o":"m 673 1015 l 503 1015 l 503 682 l 429 682 l 429 1015 l 301 1015 l 301 1099 l 943 1099 l 943 1015 l 745 1015 l 745 720 b 758 842 753 759 758 800 "},"겺":{"ha":0,"x_min":0,"x_max":0,"o":"l -198 0 l -198 -294 b -184 -172 -189 -256 -184 -215 l -350 -172 l -350 -505 l -422 -505 l -422 -172 l -570 -172 l -570 -88 "},"겻":{"ha":0,"x_min":0,"x_max":0,"o":"l -236 0 l -236 -298 b -218 -159 -224 -254 -218 -208 l -758 -159 l -758 -231 l -311 -231 b -817 -723 -332 -458 -527 -632 l -779 -792 b -259 -370 -525 -711 -338 -565 l 62 -370 l 62 -551 l -273 -551 l -273 -623 l 62 -623 l 62 -880 l 148 -880 m -193 -827 l -193 -770 l -277 -770 l -277 -827 b -690 -1185 -278 -1017 -494 -1147 l -655 -1255 b -618 -808 -655 -1082 -618 -905 b -431 NaN -618 -740 -431 NaN z "},"겼":{"ha":0,"x_min":0,"x_max":0,"o":"m 673 1010 l 137 1010 l 137 939 l 582 939 b 71 469 560 721 366 553 l 106 401 b 635 807 366 474 556 614 l 954 807 l 954 632 l 798 632 l 798 718 l 1485 718 l 1485 632 l 1274 632 l 1274 336 b 1289 468 1283 378 1289 422 z m 1065 -267 b 951 -500 1065 -269 951 -368 b 897 -671 951 -650 897 -605 b 932 -623 897 -763 932 -664 b 1019 -690 932 -726 1019 -813 z "},"경":{"ha":0,"x_min":0,"x_max":0,"o":"l -233 0 l -233 -298 b -216 -157 -222 -254 -216 -207 l -757 -157 l -757 -231 l -308 -231 b -818 -713 -328 -452 -525 -625 l -781 -783 b -255 -368 -526 -705 -335 -562 l 65 -368 l 65 -545 l -270 -545 l -270 -618 l 65 -618 l 65 -793 l 151 -793 m -239 -804 b -636 -1029 -483 -804 -636 -888 b -1032 -804 -636 -888 -789 -804 z m -1032 -875 b -722 -1029 -845 -875 -722 -933 b NaN NaN -722 -971 -532 NaN z "},"겾":{"ha":0,"x_min":0,"x_max":0,"o":"m 1039 1090 "},"겿":{"ha":0,"x_min":0,"x_max":0,"o":"m 709 241 l 709 252 l 1070 252 l 1070 321 l 709 321 l 709 458 l 623 458 l 623 321 l 262 321 l 262 252 l 623 252 l 623 241 b 213 -34 623 111 400 -8 l 244 -100 b 666 134 414 -74 595 14 b 263 410 476 163 262 282 z m 593 1259 l 507 1259 l 507 1070 l 212 1070 b 225 1195 220 1109 225 1152 l -312 1195 l -312 1123 l 132 1123 b -373 665 113 905 -70 744 l -339 594 b 191 1000 -70 667 117 806 l 507 1000 l 507 836 l 172 836 l 172 766 l 507 766 l 507 579 l 593 579 z "},"곀":{"ha":0,"x_min":0,"x_max":0,"o":"m 0 1198 l -160 1198 l -160 1283 z "},"곁":{"ha":0,"x_min":0,"x_max":0,"o":"l -198 0 l -198 -294 b -186 -174 -191 -256 -186 -216 l -727 -174 l -727 -245 l -278 -245 b -787 -697 -298 -458 -484 -620 l -753 -768 b -220 -363 -484 -698 -293 -558 l 96 -363 l 96 -528 l -237 -528 l -237 -597 l 96 -597 l 96 -749 l 182 -749 "},"곂":{"ha":0,"x_min":0,"x_max":0,"o":"m 1039 1090 l 495 1090 l 495 1019 l 947 1019 b 437 557 926 804 732 638 l 472 490 b 1000 888 730 560 922 698 "},"곃":{"ha":0,"x_min":0,"x_max":0,"o":"l -180 0 l -180 -293 b -127 -235 -173 -256 -168 -217 b -566 -688 -337 -421 -491 -720 l -636 NaN b -103 NaN -369 NaN -178 NaN "},"계":{"ha":1073,"x_min":0,"x_max":0,"o":"m -240 1162 l 850 1162 l 850 1080 l 547 1080 l 547 878 b 564 1061 559 937 564 999 l 104 1061 l 104 987 l 481 987 b 57 343 461 733 323 502 l 109 281 b 530 806 336 417 471 601 l 749 806 l 749 576 l 510 576 l 510 505 l 749 505 l 749 83 l 831 83 z "},"곅":{"ha":1097,"x_min":0,"x_max":0,"o":""},"곆":{"ha":0,"x_min":0,"x_max":0,"o":""},"곇":{"ha":481,"x_min":0,"x_max":0,"o":"m NaN 732 l NaN 732 l NaN 661 l NaN 661 b NaN 191 NaN 451 NaN 290 l NaN 127 b NaN 524 NaN 215 NaN 349 l NaN 524 l NaN 362 l NaN 362 l NaN 281 l NaN 281 l NaN 92 b NaN 231 NaN 136 NaN 182 z "}}}
